<?xml version="1.0" standalone="no"?>
<!DOCTYPE svg PUBLIC "-//W3C//DTD SVG 1.1//EN" "http://www.w3.org/Graphics/SVG/1.1/DTD/svg11.dtd" >
<svg xmlns="http://www.w3.org/2000/svg" xmlns:xlink="http://www.w3.org/1999/xlink" version="1.1">
<metadata></metadata>
<defs>
<font id="ars_maquette_probold_italic" horiz-adv-x="1226" >
<font-face units-per-em="2048" ascent="1638" descent="-410" />
<missing-glyph horiz-adv-x="552" />
<glyph unicode="&#xfb01;" horiz-adv-x="1361" d="M90 0l182 860h-168l50 234h168l14 67q35 162 140.5 243t299.5 81q49 0 108.5 -10.5t90.5 -22.5l-86 -233q-17 10 -55.5 20t-69.5 10q-55 0 -83.5 -24t-39.5 -76l-12 -55h221l-49 -234h-223l-181 -860h-307zM795 0l231 1094h307l-231 -1094h-307zM1057 1241l47 221h307 l-45 -221h-309z" />
<glyph unicode="&#xfb02;" horiz-adv-x="1359" d="M90 0l182 860h-168l50 234h168l14 67q35 162 140.5 243t299.5 81q49 0 108.5 -10.5t90.5 -22.5l-86 -233q-17 10 -55.5 20t-69.5 10q-55 0 -83.5 -24t-39.5 -76l-12 -55h221l-49 -234h-223l-181 -860h-307zM795 0l309 1462h307l-309 -1462h-307z" />
<glyph horiz-adv-x="0" />
<glyph horiz-adv-x="682" />
<glyph unicode=" "  horiz-adv-x="552" />
<glyph unicode="&#x09;" horiz-adv-x="552" />
<glyph unicode="&#xa0;" horiz-adv-x="552" />
<glyph unicode="!" horiz-adv-x="608" d="M12 0l64 307h332l-64 -307h-332zM203 457l26 571l70 336h332l-70 -336l-219 -571h-139z" />
<glyph unicode="&#x22;" horiz-adv-x="966" d="M205 776l14 492l21 96h333l-20 -96l-195 -492h-153zM678 776l14 492l21 96h334l-21 -96l-195 -492h-153z" />
<glyph unicode="#" horiz-adv-x="1376" d="M61 369l37 174h248l111 280h-219l36 174h252l144 367h194l-143 -367h217l145 367h195l-143 -367h217l-37 -174h-250l-109 -280h220l-37 -174h-252l-144 -369h-194l145 369h-219l-145 -369h-197l146 369h-218zM543 543h219l108 280h-219z" />
<glyph unicode="$" d="M-2 315l227 119q73 -161 267 -203l71 338q-97 33 -164 68t-119 83.5t-77 112t-25 146.5q0 184 136.5 297t355.5 113q15 0 65 -5l27 115h121l-31 -133q232 -62 352 -260l-225 -123q-62 97 -178 137l-64 -301q189 -65 285 -163t96 -253q0 -88 -35 -165t-100.5 -135.5 t-168 -92t-228.5 -33.5q-4 0 -13.5 1.5t-13.5 1.5l-37 -175h-121l39 185q-151 26 -264 108.5t-178 216.5zM471 1006q0 -53 37 -85t117 -65l59 285h-14q-88 0 -143.5 -34.5t-55.5 -100.5zM610 219q96 0 158.5 43t62.5 115q0 51 -36 82t-119 67z" />
<glyph unicode="%" horiz-adv-x="1755" d="M188 997q0 157 105 270t270 113q142 0 231 -93.5t89 -231.5q0 -160 -105 -272.5t-268 -112.5q-146 0 -234 93t-88 234zM276 0l1004 1364h233l-1003 -1364h-234zM395 1010q0 -64 32 -104t93 -40q70 0 113 50.5t43 123.5q0 63 -33 102.5t-94 39.5q-70 0 -112 -50t-42 -122z M909 309q0 160 105 272.5t268 112.5q146 0 234 -93t88 -234q0 -157 -105 -270t-270 -113q-142 0 -231 93.5t-89 231.5zM1116 324q0 -63 33 -103.5t94 -40.5q70 0 112 51t42 123q0 64 -32 104t-93 40q-70 0 -113 -51t-43 -123z" />
<glyph unicode="&#x26;" horiz-adv-x="1425" d="M25 385q0 286 335 403q-59 128 -59 230q0 161 119.5 266t308.5 105q167 0 284 -85.5t117 -238.5q0 -73 -28 -133t-82 -105.5t-119 -80t-153 -66.5q106 -181 170 -277q105 122 157 293l240 -65q-15 -75 -75 -190.5t-157 -217.5q35 -26 86 -26q62 0 97 28l43 -200 q-69 -50 -209 -50q-155 0 -252 78q-170 -78 -344 -78q-97 0 -182 25.5t-152 74.5t-106 129t-39 181zM338 401q0 -80 60 -131t159 -51q65 0 123 27q-132 203 -211 340q-131 -64 -131 -185zM580 1036q0 -65 61 -176q126 37 176.5 86.5t50.5 108.5q0 57 -39 91t-102 34 q-66 0 -106.5 -39t-40.5 -105z" />
<glyph unicode="'" horiz-adv-x="493" d="M205 776l14 492l21 96h333l-20 -96l-195 -492h-153z" />
<glyph unicode="(" horiz-adv-x="692" d="M57 496q0 322 178 579t496 410l92 -185q-246 -136 -380 -354.5t-134 -466.5q0 -320 244 -545l-160 -178q-151 137 -243.5 324t-92.5 416z" />
<glyph unicode=")" horiz-adv-x="700" d="M-113 -59q246 134 380 353.5t134 467.5q0 323 -243 543l159 180q151 -137 243.5 -324t92.5 -416q0 -322 -178 -579t-495 -410z" />
<glyph unicode="*" horiz-adv-x="1122" d="M193 993l47 221q96 -20 161.5 -48.5t173.5 -96.5q-81 107 -116.5 168.5t-63.5 151.5l219 71q29 -94 37 -166t4 -198q48 119 85 181.5t102 133.5l168 -151q-62 -72 -119.5 -114.5t-173.5 -105.5q123 18 197.5 17.5t168.5 -21.5l-47 -223q-94 20 -160 49t-176 99 q82 -109 117.5 -170.5t63.5 -151.5l-219 -70q-29 94 -37.5 166.5t-3.5 198.5q-48 -119 -85 -182t-102 -134l-168 152q63 71 121 114t172 105q-123 -18 -197.5 -17.5t-168.5 21.5z" />
<glyph unicode="+" d="M70 494l53 256h393l86 401h256l-86 -401h393l-55 -256h-393l-84 -400h-256l86 400h-393z" />
<glyph unicode="," horiz-adv-x="581" d="M-57 -223q76 28 128.5 80t67.5 116l6 27h-145l70 326h331l-61 -289q-30 -142 -107 -236.5t-225 -162.5z" />
<glyph unicode="-" horiz-adv-x="833" d="M82 485l57 271h621l-58 -271h-620z" />
<glyph unicode="." horiz-adv-x="581" d="M0 0l70 326h331l-69 -326h-332z" />
<glyph unicode="/" horiz-adv-x="880" d="M-78 -221l799 1683h254l-797 -1683h-256z" />
<glyph unicode="0" d="M76 539q0 105 20.5 216t69.5 226t120.5 204.5t183 146.5t247.5 57q100 0 180.5 -30.5t134 -83t90 -125.5t52.5 -154t16 -171q0 -87 -15 -179.5t-46 -189t-83 -182t-120 -153t-164 -107t-209 -39.5q-126 0 -220.5 46.5t-149 127t-81 178.5t-26.5 212zM387 496 q0 -265 172 -265q72 0 130 49.5t92 122.5t57.5 163.5t32 165.5t8.5 136q0 124 -42 194.5t-128 70.5q-73 0 -131.5 -50t-93 -124t-57.5 -165t-31.5 -165t-8.5 -133z" />
<glyph unicode="1" d="M61 0l58 264h317l160 762q-159 -57 -326 -74l-20 238q331 45 500 174h235l-233 -1100h299l-58 -264h-932z" />
<glyph unicode="2" d="M14 0l49 229q189 128 306 212t213 161t144 132t72.5 105.5t24.5 102.5q0 84 -52 127t-130 43q-158 0 -256 -176l-240 139q212 314 539 314q210 0 342.5 -116.5t132.5 -305.5q0 -184 -140 -342t-444 -338h521l-62 -287h-1020z" />
<glyph unicode="3" d="M6 311l266 121q41 -92 115.5 -140t173.5 -48q103 0 161 47t58 123q0 73 -55 116t-152 43h-96l53 248h150q77 0 126.5 44.5t49.5 109.5q0 66 -50.5 105.5t-137.5 39.5q-157 0 -271 -133l-221 162q207 240 522 240q130 0 239 -44.5t176 -131t67 -199.5q0 -124 -75.5 -207.5 t-195.5 -112.5q85 -39 137 -122t52 -185q0 -177 -147 -294.5t-382 -117.5q-200 0 -347.5 89.5t-215.5 246.5z" />
<glyph unicode="4" d="M4 279l49 233q200 197 324.5 440t126.5 412h325q-2 -154 -132.5 -403t-311.5 -420h303q101 307 121 401h274l-84 -401h172l-55 -262h-172l-59 -279h-316l60 279h-625z" />
<glyph unicode="5" d="M-4 332l262 112q38 -95 114 -144.5t169 -49.5q106 0 180 60t74 161q0 90 -62.5 148.5t-169.5 58.5q-145 0 -237 -96q-28 16 -84 50.5t-84 51.5l184 680h889q-10 -48 -30 -143.5t-30 -143.5h-634l-78 -233q34 30 97 46.5t128 16.5q180 0 307 -124t127 -310 q0 -100 -40.5 -190.5t-112 -159t-178 -108.5t-230.5 -40q-190 0 -341.5 93.5t-219.5 263.5z" />
<glyph unicode="6" d="M74 498q0 251 161.5 479t421.5 387h484q-488 -272 -623 -481q73 57 199 57q84 0 160.5 -30t136 -84.5t94.5 -139t35 -186.5q0 -109 -39.5 -205.5t-110 -167t-173.5 -111.5t-224 -41q-229 0 -375.5 141t-146.5 382zM393 449q0 -98 52 -151.5t139 -53.5q108 0 168.5 78 t60.5 186q0 96 -51.5 148.5t-136.5 52.5q-105 0 -168.5 -75.5t-63.5 -184.5z" />
<glyph unicode="7" d="M172 1077l61 287h1033l-47 -221q-78 -74 -152 -156.5t-159 -198.5t-151.5 -235t-118.5 -265t-69 -288h-356q23 140 75 281.5t115 255.5t140.5 221.5t144.5 182.5t133 136h-649z" />
<glyph unicode="8" d="M39 389q0 139 86.5 232t226.5 127q-59 42 -101 112t-42 164q0 165 131 265t342 100q102 0 192.5 -26t159 -73t108.5 -119t40 -159q0 -121 -71.5 -201t-184.5 -117q75 -51 124.5 -134t49.5 -191q0 -174 -134.5 -284t-373.5 -110q-246 0 -399.5 113t-153.5 301zM356 401 q0 -95 60.5 -140.5t152.5 -45.5q97 0 155 52.5t58 144.5q0 95 -60.5 140.5t-152.5 45.5q-98 0 -155.5 -53t-57.5 -144zM522 983q0 -78 49.5 -117t122.5 -39q77 0 125.5 44t48.5 120q0 80 -50 120t-122 40q-76 0 -125 -45.5t-49 -122.5z" />
<glyph unicode="9" d="M121 0q215 117 382.5 243t241.5 238q-77 -57 -198 -57q-115 0 -210.5 50t-155.5 152t-60 238q0 109 39 205t109 167t173 112t224 41q231 0 376.5 -141t145.5 -382q0 -251 -162 -479.5t-420 -386.5h-485zM449 856q0 -96 51.5 -148.5t138.5 -52.5q104 0 166.5 75t62.5 185 q0 98 -51.5 151.5t-138.5 53.5q-108 0 -168.5 -78t-60.5 -186z" />
<glyph unicode=":" horiz-adv-x="626" d="M20 0l70 326h332l-70 -326h-332zM184 766l70 326h332l-70 -326h-332z" />
<glyph unicode=";" horiz-adv-x="628" d="M-35 -223q76 28 129 80t68 116l6 27h-145l69 326h332l-62 -289q-30 -142 -106.5 -236.5t-224.5 -162.5zM184 766l70 326h334l-70 -326h-334z" />
<glyph unicode="&#x3c;" d="M182 627l725 620l168 -192l-538 -463q57 -72 172 -216.5t172 -215.5l-201 -158z" />
<glyph unicode="=" d="M25 279l53 253h1042l-55 -253h-1040zM117 713l53 254h1040l-53 -254h-1040z" />
<glyph unicode="&#x3e;" d="M166 195l539 462l-345 433l201 157l498 -624l-725 -621z" />
<glyph unicode="?" horiz-adv-x="1218" d="M205 1198q224 193 497 193q125 0 229.5 -47t169 -139t64.5 -212q0 -99 -37.5 -183.5t-102.5 -144t-147.5 -98.5t-177.5 -55l-12 -57h-309l65 309q55 -14 113 -14q119 0 198 59.5t79 153.5q0 73 -54.5 115t-144.5 42q-156 0 -285 -123zM281 0l63 303h330l-66 -303h-327z " />
<glyph unicode="@" horiz-adv-x="1832" d="M127 541q0 169 67 324t184 271t286.5 185.5t363.5 69.5q165 0 300.5 -50.5t225 -139.5t138.5 -210.5t49 -263.5q0 -233 -118.5 -383.5t-307.5 -150.5q-176 0 -230 131q-103 -134 -266 -134q-147 0 -229 102.5t-82 264.5q0 128 52 237t144.5 173.5t204.5 64.5 q75 0 135.5 -29.5t92.5 -78.5l20 92h236l-119 -561q-6 -24 -6 -47q0 -80 82 -80q69 0 125 56.5t87 149t31 199.5q0 236 -151.5 380t-417.5 144q-132 0 -248.5 -38.5t-202 -105.5t-148 -157t-93.5 -195t-31 -216q0 -122 38 -225t109.5 -179.5t182.5 -120t250 -43.5 q208 0 356 93l53 -121q-202 -105 -422 -105q-216 0 -385 88.5t-262.5 247.5t-93.5 361zM752 575q0 -82 35.5 -135t103.5 -53q84 0 134 79t50 189q0 31 -6 59.5t-19.5 58t-42 47.5t-67.5 18q-86 0 -137 -79t-51 -184z" />
<glyph unicode="A" horiz-adv-x="1363" d="M-121 0l785 1364h383l204 -1364h-342l-30 295h-482l-155 -295h-363zM524 553h334l-51 543z" />
<glyph unicode="B" horiz-adv-x="1382" d="M25 0l290 1364h568q91 0 172.5 -23t144.5 -66.5t100 -110.5t37 -150q0 -119 -71.5 -198.5t-188.5 -117.5q87 -37 139 -118.5t52 -182.5q0 -170 -144.5 -283.5t-375.5 -113.5h-723zM403 274h328q100 0 154.5 43.5t54.5 116.5q0 68 -52 104.5t-151 36.5h-270zM522 829h314 q79 0 127.5 37t48.5 101q0 57 -41 88.5t-119 31.5h-274z" />
<glyph unicode="C" horiz-adv-x="1396" d="M96 633q0 207 94.5 380t264.5 274.5t381 101.5q205 0 352 -95t221 -247l-260 -150q-43 96 -122 154.5t-191 58.5q-121 0 -215.5 -68t-143.5 -177t-49 -236q0 -164 85 -270.5t237 -106.5q194 0 311 182l229 -180q-208 -279 -559 -279q-148 0 -269.5 52t-200.5 142 t-122 209t-43 255z" />
<glyph unicode="D" horiz-adv-x="1482" d="M27 0l288 1364h467q156 0 280.5 -48.5t202.5 -132.5t119 -193.5t41 -235.5q0 -155 -52.5 -292.5t-147 -240t-236.5 -162t-311 -59.5h-651zM408 287h284q95 0 172 38t127 102.5t76.5 148t26.5 176.5q0 146 -78 235.5t-238 89.5h-203z" />
<glyph unicode="E" horiz-adv-x="1288" d="M25 0l290 1364h1041l-62 -287h-721l-51 -239h611l-56 -256h-608l-63 -295h720l-61 -287h-1040z" />
<glyph unicode="F" horiz-adv-x="1247" d="M25 0l290 1364h1041l-62 -287h-719l-57 -268h608l-55 -258h-608l-119 -551h-319z" />
<glyph unicode="G" horiz-adv-x="1511" d="M94 635q0 156 56.5 295t155.5 240t241 160t305 59q201 0 345.5 -86t229.5 -242l-260 -148q-43 93 -127 145t-194 52q-126 0 -223 -68.5t-147 -178t-50 -238.5q0 -168 86.5 -274.5t251.5 -106.5q128 0 223.5 66.5t118.5 178.5h-342l53 256h615q14 -54 14 -120 q0 -88 -27 -178t-84.5 -175t-137.5 -151t-196.5 -106t-252.5 -40q-156 0 -282 53t-206 144t-123 209.5t-43 253.5z" />
<glyph unicode="H" horiz-adv-x="1497" d="M25 0l290 1364h320l-107 -506h549l109 506h321l-288 -1364h-324l123 573h-551l-121 -573h-321z" />
<glyph unicode="I" horiz-adv-x="624" d="M25 0l290 1364h320l-291 -1364h-319z" />
<glyph unicode="J" horiz-adv-x="1097" d="M-68 256l256 131q23 -69 77.5 -106t129.5 -37q94 0 144 58.5t75 174.5l189 887h319l-200 -944q-19 -93 -58 -170t-101 -140.5t-156 -99t-212 -35.5q-174 0 -293 75.5t-170 205.5z" />
<glyph unicode="K" horiz-adv-x="1400" d="M25 0l290 1364h320l-127 -596l608 596h404l-621 -598l395 -766h-354l-278 561l-248 -233l-70 -328h-319z" />
<glyph unicode="L" horiz-adv-x="1171" d="M25 0l290 1364h320l-229 -1077h675l-61 -287h-995z" />
<glyph unicode="M" horiz-adv-x="1830" d="M25 0l290 1364h447l100 -963l510 963h469l-289 -1364h-311l219 1028l-545 -1028h-256l-106 1020l-217 -1020h-311z" />
<glyph unicode="N" horiz-adv-x="1495" d="M25 0l290 1364h377l316 -911l192 911h305l-288 -1364h-365l-322 932l-196 -932h-309z" />
<glyph unicode="O" horiz-adv-x="1542" d="M96 633q0 207 95 380t265.5 274.5t381.5 101.5q149 0 272 -52.5t204 -142.5t125 -210t44 -255q0 -206 -96 -378.5t-267.5 -274t-382.5 -101.5q-149 0 -271.5 52.5t-202.5 142.5t-123.5 209t-43.5 254zM428 625q0 -161 81.5 -264t235.5 -103q120 0 214 67t143 175t49 235 q0 161 -81.5 265t-235.5 104q-121 0 -215 -67t-142.5 -175.5t-48.5 -236.5z" />
<glyph unicode="P" horiz-adv-x="1333" d="M25 0l290 1364h547q231 0 363.5 -116.5t132.5 -313.5q0 -224 -159.5 -360t-412.5 -136h-346l-94 -438h-321zM500 725h313q96 0 154.5 54.5t58.5 142.5q0 76 -48 115.5t-138 39.5h-265z" />
<glyph unicode="Q" horiz-adv-x="1542" d="M96 633q0 207 95 380t265.5 274.5t381.5 101.5q149 0 272 -52.5t204 -142.5t125 -210t44 -255q0 -170 -67 -319.5t-185 -251.5l121 -164l-232 -162l-129 186q-116 -43 -254 -43q-149 0 -271.5 52.5t-202.5 142.5t-123.5 209t-43.5 254zM428 625q0 -161 81 -266t234 -105 q41 0 76 12l-104 160l209 141l116 -157q111 133 111 325q0 161 -81.5 265t-235.5 104q-121 0 -215 -67t-142.5 -175.5t-48.5 -236.5z" />
<glyph unicode="R" horiz-adv-x="1390" d="M25 0l290 1364h580q212 0 340.5 -112t128.5 -300q0 -168 -101.5 -276t-265.5 -154l232 -522h-348l-197 477h-238l-100 -477h-321zM502 733h319q90 0 150.5 53.5t60.5 139.5q0 72 -45 111.5t-119 39.5h-293z" />
<glyph unicode="S" horiz-adv-x="1286" d="M-2 322l254 135q33 -74 97 -125t139 -73.5t159 -22.5q97 0 158 38.5t61 106.5q0 14 -3.5 27t-8.5 23t-16 20.5t-20 17.5t-26.5 16t-29 14.5t-35.5 14.5t-37 13.5t-42 14.5t-44 15q-83 27 -144.5 53.5t-117 62.5t-90 78.5t-54.5 98.5t-20 125q0 185 145.5 299.5 t376.5 114.5q180 0 329.5 -74t242.5 -219l-248 -135q-44 76 -132.5 119.5t-195.5 43.5q-87 0 -141.5 -32t-54.5 -91q0 -29 15.5 -52t44.5 -39.5t66 -31t84 -30.5q7 -2 11 -3t9.5 -3t10.5 -4q112 -37 188.5 -74t137.5 -87.5t90 -117t29 -153.5q0 -88 -37 -165.5t-106.5 -137 t-178 -94t-243.5 -34.5q-214 0 -376.5 89t-246.5 258z" />
<glyph unicode="T" horiz-adv-x="1241" d="M147 1077l62 287h1147l-60 -287h-415l-230 -1077h-319l229 1077h-414z" />
<glyph unicode="U" horiz-adv-x="1447" d="M109 395q0 69 20 164l174 805h320l-177 -829q-12 -47 -12 -86q0 -88 59 -138.5t171 -50.5q254 0 311 268l178 836h320l-187 -877q-54 -249 -221 -380.5t-430 -131.5q-156 0 -273.5 47.5t-185 143.5t-67.5 229z" />
<glyph unicode="V" horiz-adv-x="1329" d="M145 1364h349l110 -993l526 993h357l-785 -1364h-350z" />
<glyph unicode="W" horiz-adv-x="1961" d="M209 1364h338v-918l442 918h289l45 -922l397 922h363l-660 -1364h-348l-39 872l-411 -872h-349z" />
<glyph unicode="X" horiz-adv-x="1404" d="M-115 0l637 713l-332 651h349l204 -465l390 465h395l-604 -670l360 -694h-350l-238 483l-411 -483h-400z" />
<glyph unicode="Y" horiz-adv-x="1343" d="M133 1364h354l218 -547l419 547h387l-696 -840l-110 -524h-322l117 543z" />
<glyph unicode="Z" horiz-adv-x="1292" d="M-47 0l53 248l825 829h-620l59 287h1084l-49 -234l-840 -843h678l-62 -287h-1128z" />
<glyph unicode="[" horiz-adv-x="673" d="M-39 -221l358 1683h502l-39 -194h-247l-275 -1295h246l-41 -194h-504z" />
<glyph unicode="\" horiz-adv-x="882" d="M272 1462h234l104 -1683h-235z" />
<glyph unicode="]" horiz-adv-x="679" d="M-133 -221l41 194h246l276 1295h-248l43 194h502l-356 -1683h-504z" />
<glyph unicode="^" d="M119 907l545 457h213l383 -498l-201 -155l-305 395l-473 -395z" />
<glyph unicode="_" horiz-adv-x="1161" d="M-201 -256l23 102h1198l-23 -102h-1198z" />
<glyph unicode="`" horiz-adv-x="657" d="M219 1477l256 43q44 -110 170 -277l-117 -59q-92 47 -183 129.5t-126 163.5z" />
<glyph unicode="a" horiz-adv-x="1218" d="M6 295q0 59 14.5 107t37.5 81.5t60 60.5t73 43.5t85 29t88 18.5t91 12q17 2 51 5q148 16 195 36q61 26 61 80q0 98 -170 98q-169 0 -340 -100l-96 215q220 137 471 137q202 0 323 -82.5t121 -234.5q0 -62 -18 -139l-74 -334q-12 -58 -12 -72q0 -55 61 -55q30 0 55 18 l29 -199q-59 -36 -174 -36q-198 0 -248 143q-116 -152 -336 -152q-158 0 -253 81.5t-95 238.5zM313 324q0 -64 39.5 -93.5t104.5 -29.5q87 0 149 53t84 158l27 127q-24 -22 -62.5 -37.5t-69 -22t-79.5 -14.5q-39 -6 -59.5 -10.5t-50.5 -15t-45 -23.5t-26.5 -36.5 t-11.5 -55.5z" />
<glyph unicode="b" horiz-adv-x="1329" d="M6 0l309 1462h308l-105 -483q131 137 311 137q190 0 307 -142.5t117 -359.5q0 -173 -74.5 -319t-208.5 -233t-298 -87q-209 0 -330 164l-29 -139h-307zM424 494q0 -111 55 -181.5t160 -70.5q132 0 210.5 107.5t78.5 250.5q0 110 -52.5 181t-158.5 71q-89 0 -157.5 -53 t-102 -133.5t-33.5 -171.5z" />
<glyph unicode="c" horiz-adv-x="1142" d="M59 502q0 169 77 309t217 222.5t313 82.5q311 0 471 -274l-238 -133q-77 147 -225 147q-130 0 -209.5 -105.5t-79.5 -252.5q0 -117 54.5 -189.5t158.5 -72.5q132 0 240 141l192 -176q-179 -226 -457 -226q-230 0 -372 148t-142 379z" />
<glyph unicode="d" horiz-adv-x="1333" d="M55 475q0 173 75 320t209.5 235t297.5 88q211 0 330 -166l108 510h307l-309 -1462h-307l25 113q-128 -138 -308 -138q-193 0 -310.5 141t-117.5 359zM383 492q0 -111 52 -181.5t157 -70.5q90 0 159 53t102.5 133t33.5 170q0 112 -55.5 184t-159.5 72q-89 0 -156.5 -53.5 t-100 -134t-32.5 -172.5z" />
<glyph unicode="e" horiz-adv-x="1253" d="M57 496q0 171 76 312t219 225.5t326 84.5q235 0 371.5 -131t136.5 -332q0 -88 -31 -184h-768v-18q0 -102 64 -162t176 -60q85 0 165.5 34t141.5 97l182 -180q-201 -207 -512 -207q-176 0 -301.5 70t-185.5 186t-60 265zM414 666h471q2 6 2 24q0 88 -59.5 143.5 t-153.5 55.5q-100 0 -169 -59.5t-91 -163.5z" />
<glyph unicode="f" horiz-adv-x="788" d="M90 0l182 860h-168l50 234h168l14 67q35 162 140.5 243t299.5 81q49 0 108.5 -10.5t90.5 -22.5l-86 -233q-17 10 -55.5 20t-69.5 10q-55 0 -83.5 -24t-39.5 -76l-12 -55h221l-49 -234h-223l-181 -860h-307z" />
<glyph unicode="g" horiz-adv-x="1341" d="M-33 -207l168 215q58 -55 155.5 -92t201.5 -37q261 0 315 260l10 51q-116 -122 -307 -122q-201 0 -322.5 134t-121.5 337q0 156 71 288.5t200 211.5t286 79q229 0 354 -172l31 148h307l-189 -885q-27 -133 -65 -231.5t-109 -176.5q-165 -178 -479 -178q-301 0 -506 170z M391 563q0 -107 58.5 -176.5t164.5 -69.5q125 0 203 90.5t78 219.5q0 104 -58.5 170.5t-166.5 66.5q-127 0 -203 -88t-76 -213z" />
<glyph unicode="h" horiz-adv-x="1245" d="M6 0l309 1462h310l-105 -489q142 145 332 145q144 0 225.5 -88t81.5 -209q0 -55 -16 -129l-148 -692h-309l137 643q13 47 13 78q0 58 -36 92.5t-106 34.5q-90 0 -158.5 -60.5t-91.5 -164.5l-131 -623h-307z" />
<glyph unicode="i" horiz-adv-x="573" d="M6 0l232 1094h307l-232 -1094h-307zM268 1241l47 221h308l-45 -221h-310z" />
<glyph unicode="j" horiz-adv-x="571" d="M-346 -283l133 199q36 -41 96 -41q99 0 127 148l228 1071h307l-240 -1129q-37 -181 -131.5 -261.5t-247.5 -80.5q-175 0 -272 94zM270 1241l47 221h306l-45 -221h-308z" />
<glyph unicode="k" horiz-adv-x="1245" d="M6 0l311 1462h306l-174 -827l499 459h365l-498 -455l309 -639h-340l-209 451l-206 -185l-56 -266h-307z" />
<glyph unicode="l" horiz-adv-x="571" d="M6 0l309 1462h308l-310 -1462h-307z" />
<glyph unicode="m" horiz-adv-x="1892" d="M6 0l232 1094h309l-27 -123q141 147 326 147q108 0 177.5 -50.5t98.5 -129.5q165 180 371 180q102 0 175 -44t105.5 -109.5t32.5 -143.5q0 -55 -16 -129l-148 -692h-309l140 641q10 48 10 78q0 58 -35 92.5t-102 34.5q-85 0 -150 -60t-86 -165l-131 -621h-309l137 641 q12 43 12 78q0 58 -35 92.5t-102 34.5q-86 0 -150.5 -59.5t-87.5 -165.5l-131 -621h-307z" />
<glyph unicode="n" horiz-adv-x="1245" d="M6 0l232 1094h309l-27 -121q142 145 332 145q144 0 225.5 -88t81.5 -209q0 -55 -16 -129l-148 -692h-309l137 643q13 47 13 78q0 58 -36 92.5t-106 34.5q-90 0 -158.5 -60.5t-91.5 -164.5l-131 -623h-307z" />
<glyph unicode="o" horiz-adv-x="1298" d="M61 508q0 172 76 311t216.5 219t320.5 80q249 0 396 -146t147 -386q0 -172 -75.5 -311t-216.5 -219.5t-323 -80.5q-248 0 -394.5 146t-146.5 387zM387 496q0 -115 55.5 -189t161.5 -74q89 0 156 55.5t99 137t32 172.5q0 115 -55.5 188.5t-161.5 73.5q-89 0 -156 -55 t-99 -136.5t-32 -172.5z" />
<glyph unicode="p" horiz-adv-x="1331" d="M-68 -356l306 1450h309l-27 -115q133 139 311 139q190 0 307 -143t117 -361q0 -173 -74.5 -319t-208.5 -233t-298 -87q-209 0 -330 164l-104 -495h-308zM426 494q0 -111 55 -181.5t160 -70.5q132 0 210.5 107.5t78.5 250.5q0 110 -52.5 182t-158.5 72q-89 0 -157.5 -53.5 t-102 -134.5t-33.5 -172z" />
<glyph unicode="q" horiz-adv-x="1333" d="M55 475q0 173 75 320t209.5 235t297.5 88q211 0 330 -166l28 142h310l-308 -1450h-309l103 469q-128 -138 -308 -138q-193 0 -310.5 141t-117.5 359zM383 492q0 -111 52 -181.5t157 -70.5q90 0 159 53t102.5 133t33.5 170q0 112 -55.5 184t-159.5 72q-89 0 -156.5 -53.5 t-100 -134t-32.5 -172.5z" />
<glyph unicode="r" horiz-adv-x="866" d="M6 0l232 1094h307l-35 -164q119 182 295 182q40 0 82 -10.5t65 -24.5l-135 -303q-56 31 -115 31q-106 0 -178.5 -75t-99.5 -200l-113 -530h-305z" />
<glyph unicode="s" horiz-adv-x="1124" d="M-27 242l222 120q45 -80 134.5 -122.5t190.5 -42.5q78 0 128 27.5t50 78.5q0 23 -9.5 39.5t-42 32.5t-53.5 23.5t-85 27.5q-2 1 -3.5 1.5t-4 1t-4.5 1.5q-45 13 -71.5 21.5t-70.5 26t-71 34t-60 43t-51.5 56t-31.5 70.5t-13 89q0 112 64.5 192t169 118t235.5 38 q163 0 290 -58t206 -145l-205 -143q-43 50 -125 87.5t-170 37.5q-67 0 -111.5 -23.5t-44.5 -68.5q0 -39 37.5 -64t124.5 -49q37 -10 54.5 -15.5t54.5 -17t57 -20.5t53.5 -23.5t52.5 -29t44.5 -34.5t40 -42t29 -48.5t20.5 -58t6 -67.5q0 -160 -135.5 -260.5t-362.5 -100.5 q-182 0 -322.5 68.5t-216.5 198.5z" />
<glyph unicode="t" horiz-adv-x="905" d="M92 860l49 234h170l58 270h307l-58 -270h306l-50 -234h-305l-104 -491q-6 -24 -6 -45q0 -80 96 -80q83 0 145 49l93 -221q-137 -97 -310 -97q-153 0 -246.5 72t-93.5 205q0 43 13 110l106 498h-170z" />
<glyph unicode="u" horiz-adv-x="1245" d="M66 272q0 68 14 129l147 693h310l-138 -641q-12 -62 -12 -80q0 -56 36 -90.5t105 -34.5q91 0 159 60t91 165l131 621h310l-234 -1094h-307l24 121q-65 -70 -152 -108t-179 -38q-143 0 -224 88t-81 209z" />
<glyph unicode="v" horiz-adv-x="1140" d="M94 1094h328l78 -738l387 738h352l-647 -1094h-316z" />
<glyph unicode="w" horiz-adv-x="1681" d="M147 1094h318v-707l336 707h264l47 -709l285 709h348l-533 -1094h-309l-47 696l-334 -696h-311z" />
<glyph unicode="x" horiz-adv-x="1196" d="M-113 0l506 582l-239 512h340l129 -340l260 340h377l-463 -531l260 -563h-348l-144 369l-293 -369h-385z" />
<glyph unicode="y" horiz-adv-x="1138" d="M-141 -291l133 205q53 -43 112 -43q49 0 85.5 28t72.5 83l39 55l-211 1057h336l98 -693l369 693h344l-659 -1127q-51 -89 -94.5 -148t-96.5 -106t-115 -68.5t-139 -21.5q-161 0 -274 86z" />
<glyph unicode="z" horiz-adv-x="1093" d="M-51 0l47 221l618 608h-467l58 265h899l-45 -211l-621 -619h508l-57 -264h-940z" />
<glyph unicode="{" horiz-adv-x="794" d="M8 524l41 193h103q74 0 112 42.5t53 117.5l60 286q66 303 395 303h174l-41 -192h-92q-87 0 -128 -38.5t-64 -143.5l-43 -205q-25 -112 -82.5 -174.5t-165.5 -91.5q133 -63 133 -220q0 -32 -12 -110l-31 -144q-12 -62 -12 -79q0 -52 31.5 -76.5t97.5 -24.5h92l-41 -192 h-170q-129 0 -202 62t-73 175q0 32 13 103l53 250q8 50 8 69q0 90 -111 90h-98z" />
<glyph unicode="|" horiz-adv-x="503" d="M-39 -221l358 1683h234l-358 -1683h-234z" />
<glyph unicode="}" horiz-adv-x="800" d="M-139 -225l43 192h92q86 0 126.5 38.5t63.5 141.5l45 207q23 111 81.5 174.5t166.5 92.5q-133 60 -133 217q0 50 12 112l31 144q10 52 10 80q0 52 -30.5 76t-96.5 24h-92l41 192h170q128 0 200.5 -62t72.5 -175q0 -46 -11 -103l-53 -249q-8 -50 -8 -70q0 -90 108 -90h101 l-41 -193h-103q-74 0 -112.5 -42t-55.5 -117l-59 -287q-63 -303 -393 -303h-176z" />
<glyph unicode="~" horiz-adv-x="1228" d="M61 514q160 315 385 315q94 0 209 -73q73 -47 102.5 -60.5t65.5 -13.5q104 0 201 145l154 -88q-163 -315 -385 -315q-51 0 -98 16t-111 58q-71 46 -102 59.5t-66 13.5q-106 0 -203 -145z" />
<glyph unicode="&#xa1;" horiz-adv-x="638" d="M-31 -270l70 336l219 571h139l-26 -571l-70 -336h-332zM193 786l63 308h332l-64 -308h-331z" />
<glyph unicode="&#xa2;" d="M90 502q0 130 46 243.5t127 195t197 128.5t249 47l34 166h121l-39 -180q211 -46 336 -258l-233 -131q-59 109 -154 137l-131 -617q122 8 225 140l187 -174q-178 -224 -453 -224h-14l-35 -168h-123l39 183q-174 40 -276.5 178.5t-102.5 333.5zM397 498q0 -88 32.5 -153.5 t94.5 -92.5l129 604q-117 -18 -186.5 -120.5t-69.5 -237.5z" />
<glyph unicode="&#xa3;" d="M-27 197q140 73 209.5 148.5t69.5 170.5q0 19 -4 39h-223l41 190h139q-29 111 -29 187q0 104 43.5 191t117.5 144.5t171 89.5t205 32q317 0 522 -291l-238 -172q-43 72 -114.5 124t-161.5 52q-94 0 -155.5 -56.5t-61.5 -164.5q0 -61 20 -136h357l-41 -190h-283 q0 -77 -47 -135q-29 -72 -113 -127q77 29 156 29q52 0 132.5 -28t115.5 -28q93 0 121 117l239 -115q-111 -293 -348 -293q-77 0 -215 46.5t-217 46.5q-138 0 -283 -93z" />
<glyph unicode="&#xa4;" d="M29 293l194 164q-20 56 -20 127q0 146 82 264l-111 143l201 156l108 -141q91 32 166 32q113 0 205 -53l197 164l163 -197l-200 -166q22 -68 22 -135q0 -142 -80 -258l109 -141l-201 -156l-106 140q-81 -35 -174 -35q-115 0 -203 53l-191 -158zM418 598q0 -85 46.5 -138.5 t131.5 -53.5q100 0 162.5 69.5t62.5 167.5q0 83 -46.5 137t-131.5 54q-100 0 -162.5 -69t-62.5 -167z" />
<glyph unicode="&#xa5;" d="M47 315l29 136h342l20 88l-18 55h-314l29 135h244l-195 635h351l114 -520l334 520h377l-467 -635h240l-29 -135h-309l-39 -51l-21 -92h338l-26 -136h-340l-66 -315h-319l67 315h-342z" />
<glyph unicode="&#xa6;" horiz-adv-x="475" d="M-31 -221l140 655h188l-137 -655h-191zM186 807l142 655h188l-139 -655h-191z" />
<glyph unicode="&#xa7;" horiz-adv-x="1300" d="M16 -68l166 195q136 -139 320 -139q127 0 209 69l-136 97q-96 70 -164.5 133.5t-126.5 140.5t-87 164.5t-29 185.5q0 124 45 235.5t125 194.5t199 132t258 49q275 0 475 -197l-168 -195q-137 140 -318 140q-126 0 -211 -72l138 -94q95 -67 165.5 -132t127 -141.5 t85.5 -164.5t29 -187q0 -167 -76 -305t-220.5 -221.5t-329.5 -83.5q-280 0 -476 196zM432 788q0 -74 24 -140.5t72.5 -125.5t94 -101.5t114.5 -96.5l105 -80q10 48 10 92q0 74 -24 141t-71.5 125.5t-93.5 102t-114 96.5l-105 78q-12 -43 -12 -91z" />
<glyph unicode="&#xa8;" horiz-adv-x="657" d="M150 1223l49 231h229l-49 -231h-229zM553 1223l49 231h232l-50 -231h-231z" />
<glyph unicode="&#xa9;" horiz-adv-x="1693" d="M145 682q0 117 36.5 227t103 198t155 154.5t198 103t226.5 36.5t226.5 -36.5t198 -103t155 -154.5t103 -198t36.5 -227q0 -116 -36.5 -226t-103 -198.5t-155 -155t-198.5 -103t-226 -36.5t-226 36.5t-198.5 103t-155 155t-103 198.5t-36.5 226zM293 682 q0 -155 76.5 -286.5t208 -208t286.5 -76.5q116 0 222 45.5t182.5 121.5t122 182t45.5 222q0 156 -77 287.5t-208.5 207.5t-286.5 76t-286.5 -76t-208 -207.5t-76.5 -287.5zM434 682q0 181 126 307.5t306 126.5q244 0 387 -235l-188 -123q-72 125 -197 125q-82 0 -139 -59 t-57 -142q0 -82 57.5 -142.5t138.5 -60.5q123 0 197 131l192 -125q-69 -117 -170.5 -176t-220.5 -59q-180 0 -306 126t-126 306z" />
<glyph unicode="&#xaa;" horiz-adv-x="911" d="M133 846q0 64 26.5 108.5t68.5 66t93 34t102.5 17.5t93.5 10.5t68.5 19.5t26.5 39q0 59 -104 59t-215 -63l-66 157q144 88 314 88q57 0 106.5 -10t94 -31.5t70.5 -62.5t26 -98q0 -16 -11 -90l-47 -211q-1 -7 -3.5 -22.5t-2.5 -22.5q0 -16 9 -25.5t26 -9.5q21 0 33 12 l16 -141q-39 -27 -115 -27q-98 0 -143 57q-18 18 -25 35q-73 -96 -217 -96q-100 0 -162.5 52.5t-62.5 154.5zM356 868q0 -35 22 -52t58 -17q50 0 82.5 29.5t44.5 86.5l17 76q-20 -19 -61 -29t-75.5 -13.5t-61 -23t-26.5 -57.5z" />
<glyph unicode="&#xab;" horiz-adv-x="1050" d="M33 496l24 112l383 408l131 -119l-288 -381l170 -358l-166 -86zM475 496l23 112l411 408l127 -123l-311 -377l147 -358l-163 -86z" />
<glyph unicode="&#xac;" horiz-adv-x="1331" d="M111 494l53 256h1042l-141 -656h-252l84 400h-786z" />
<glyph unicode="&#xad;" horiz-adv-x="833" d="M82 485l57 271h621l-58 -271h-620z" />
<glyph unicode="&#xae;" horiz-adv-x="1064" d="M203 985q0 167 118 285.5t285 118.5q166 0 285 -118.5t119 -285.5t-119 -284t-285 -117q-167 0 -285 117t-118 284zM262 985q0 -143 101 -243.5t243 -100.5q141 0 242.5 101t101.5 243t-101.5 243t-242.5 101q-142 0 -243 -100.5t-101 -243.5zM434 780v414h201 q75 0 116.5 -37t41.5 -98q0 -47 -19.5 -80t-54.5 -45l82 -154h-129l-51 138h-72v-138h-115zM549 1001h78q21 0 36 14.5t15 39.5q0 24 -15 37.5t-36 13.5h-78v-105z" />
<glyph unicode="&#xaf;" horiz-adv-x="692" d="M133 1231l33 168h678l-35 -168h-676z" />
<glyph unicode="&#xb0;" horiz-adv-x="804" d="M164 1057q0 137 97 234.5t233 97.5t232.5 -97.5t96.5 -234.5q0 -135 -96.5 -232.5t-232.5 -97.5t-233 97.5t-97 232.5zM350 1057q0 -59 42 -101.5t102 -42.5t102.5 42.5t42.5 101.5q0 60 -42.5 102.5t-102.5 42.5t-102 -42.5t-42 -102.5z" />
<glyph unicode="&#xb1;" d="M-29 0l54 254h1042l-55 -254h-1041zM121 707l53 254h393l76 350h254l-76 -350h396l-56 -254h-393l-74 -351h-256l76 351h-393z" />
<glyph unicode="&#xb2;" horiz-adv-x="815" d="M102 674l35 166q292 193 386.5 276.5t94.5 157.5q0 48 -30 71t-74 23q-97 0 -156 -111l-172 101q144 213 361 213q139 0 227 -77.5t88 -201.5q0 -117 -83.5 -213t-260.5 -196h305l-45 -209h-676z" />
<glyph unicode="&#xb3;" horiz-adv-x="813" d="M98 883l195 84q53 -115 172 -115q60 0 92.5 26.5t32.5 67.5q0 39 -29.5 62.5t-85.5 23.5h-63l39 180h92q44 0 71 25t27 59t-27.5 57t-78.5 23q-94 0 -166 -84l-162 115q139 164 352 164q131 0 225.5 -66.5t94.5 -177.5q0 -81 -50.5 -134t-128.5 -71q56 -26 88.5 -79 t32.5 -117q0 -116 -96 -192.5t-252 -76.5q-134 0 -231.5 59.5t-143.5 166.5z" />
<glyph unicode="&#xb4;" horiz-adv-x="657" d="M254 1247q127 141 211 273l252 -52q-42 -82 -152 -163.5t-219 -122.5z" />
<glyph unicode="&#xb5;" d="M-98 -356l309 1450h307l-141 -660q-12 -62 -12 -80q0 -51 27.5 -84t80.5 -39q42 -3 82 13q134 41 184 280l121 570h309l-174 -807q-8 -36 -8 -43q0 -43 47 -43q30 0 45 18l-18 -203q-62 -32 -141 -32q-89 0 -117 47q-60 24 -84 90q-40 -67 -110.5 -106.5t-164.5 -39.5 q-89 0 -151 56l-82 -387h-309z" />
<glyph unicode="&#xb6;" horiz-adv-x="1239" d="M160 852q0 152 76.5 271t198 180t263.5 61h512l-327 -1550h-109l289 1364h-117l-289 -1364h-202l139 653h-68q-161 0 -263.5 108.5t-102.5 276.5z" />
<glyph unicode="&#xb7;" horiz-adv-x="579" d="M100 623q0 79 58.5 136.5t136.5 57.5q79 0 135.5 -57t56.5 -137q0 -78 -56.5 -135.5t-135.5 -57.5q-78 0 -136.5 57.5t-58.5 135.5z" />
<glyph unicode="&#xb8;" horiz-adv-x="657" d="M-51 -248l78 94q20 -27 55 -44t70 -17q40 0 67 24.5t27 75.5q0 41 -22 81.5t-70 92.5h110q185 -99 185 -239q0 -86 -71 -136.5t-175 -50.5q-81 0 -147.5 31.5t-106.5 87.5z" />
<glyph unicode="&#xb9;" horiz-adv-x="718" d="M100 674l41 194h201l94 445q-111 -32 -205 -43l-14 172q217 26 330 112h172l-146 -686h189l-41 -194h-621z" />
<glyph unicode="&#xba;" horiz-adv-x="907" d="M152 987q0 172 111 283.5t292 111.5q165 0 264 -95.5t99 -254.5q0 -171 -112 -282t-294 -111q-165 0 -262.5 95t-97.5 253zM389 979q0 -68 31.5 -111t93.5 -43q78 0 122 67t44 150q0 67 -32 110.5t-93 43.5q-78 0 -122 -67t-44 -150z" />
<glyph unicode="&#xbb;" horiz-adv-x="1050" d="M-10 197l311 374l-147 361l163 84l234 -422l-23 -115l-411 -407zM455 193l288 378l-168 361l164 84l254 -422l-22 -115l-385 -407z" />
<glyph unicode="&#xbc;" horiz-adv-x="2111" d="M127 483l43 195h201l92 444q-110 -32 -203 -43l-14 172q212 25 327 113h175l-148 -686h191l-43 -195h-621zM434 0l1077 1364h238l-1079 -1364h-236zM1198 170l35 168q118 121 194 276.5t76 266.5h238q0 -97 -78.5 -254.5t-189.5 -268.5h165q62 168 82 254h197l-53 -254 h108l-41 -188h-106l-37 -170h-229l34 170h-395z" />
<glyph unicode="&#xbd;" horiz-adv-x="2111" d="M115 483l43 195h200l93 444q-110 -32 -203 -43l-15 172q214 26 328 113h174l-147 -686h190l-43 -195h-620zM422 0l1077 1364h238l-1080 -1364h-235zM1223 0l34 166q289 190 384.5 274.5t95.5 159.5q0 48 -29.5 71t-73.5 23q-96 0 -155 -110l-172 100q143 211 360 211 q139 0 227 -76.5t88 -200.5q0 -119 -84 -216t-262 -193h308l-46 -209h-675z" />
<glyph unicode="&#xbe;" horiz-adv-x="2111" d="M125 692l194 84q52 -114 170 -114q60 0 93.5 27t33.5 67q0 39 -30 62.5t-86 23.5h-64l39 180h92q44 0 72.5 25t28.5 59t-27.5 57t-79.5 23q-97 0 -166 -84l-162 115q138 163 353 163q131 0 224 -66t93 -177q0 -81 -49 -134t-127 -71q56 -26 87.5 -79.5t31.5 -117.5 q0 -116 -96 -192t-252 -76q-133 0 -230 59t-143 166zM436 0l1077 1364h238l-1079 -1364h-236zM1200 170l35 168q118 121 194 276.5t76 266.5h238q0 -97 -78.5 -254.5t-189.5 -268.5h165q62 168 82 254h197l-53 -254h108l-41 -188h-106l-37 -170h-229l34 170h-395z" />
<glyph unicode="&#xbf;" horiz-adv-x="1241" d="M59 100q0 99 37.5 184t102.5 144.5t147.5 98.5t177.5 55l13 57h309l-66 -309q-55 14 -112 14q-119 0 -198 -59.5t-79 -153.5q0 -73 54.5 -115.5t144.5 -42.5q155 0 284 123l146 -200q-224 -193 -498 -193q-125 0 -229.5 46.5t-169 138.5t-64.5 212zM551 791l65 303h328 l-63 -303h-330z" />
<glyph unicode="&#xc0;" horiz-adv-x="1363" d="M-121 0l785 1364h383l204 -1364h-342l-30 295h-482l-155 -295h-363zM524 553h334l-51 543zM573 1735l256 43q44 -110 170 -277l-116 -59q-93 47 -184 129.5t-126 163.5z" />
<glyph unicode="&#xc1;" horiz-adv-x="1363" d="M-121 0l785 1364h383l204 -1364h-342l-30 295h-482l-155 -295h-363zM524 553h334l-51 543zM748 1505q123 137 210 273l252 -52q-42 -82 -151.5 -163.5t-218.5 -122.5z" />
<glyph unicode="&#xc2;" horiz-adv-x="1363" d="M-121 0l785 1364h383l204 -1364h-342l-30 295h-482l-155 -295h-363zM520 1530q123 68 289 213h221q67 -117 130 -180q26 -25 52 -45l-67 -88q-73 21 -143.5 62.5t-108.5 80.5q-41 -38 -133.5 -78t-194.5 -65zM524 553h334l-51 543z" />
<glyph unicode="&#xc3;" horiz-adv-x="1363" d="M-121 0l785 1364h383l204 -1364h-342l-30 295h-482l-155 -295h-363zM477 1526q40 88 108 145.5t154 57.5q59 0 148.5 -40t128.5 -40t80 23t71 65l109 -78q-38 -88 -107 -145.5t-155 -57.5q-59 0 -147.5 40t-127.5 40t-80 -23t-73 -65zM524 553h334l-51 543z" />
<glyph unicode="&#xc4;" horiz-adv-x="1363" d="M-121 0l785 1364h383l204 -1364h-342l-30 295h-482l-155 -295h-363zM524 553h334l-51 543zM555 1481l49 231h230l-50 -231h-229zM958 1481l50 231h231l-49 -231h-232z" />
<glyph unicode="&#xc5;" horiz-adv-x="1351" d="M-127 0l778 1352q-35 47 -35 108q0 96 73.5 163t182.5 67q104 0 168 -61t64 -150q0 -81 -62 -140l203 -1339h-342l-31 295h-481l-155 -295h-363zM518 553h334l-51 543zM760 1458q0 -40 24.5 -67t67.5 -27q46 0 77.5 34.5t31.5 80.5q0 40 -26 68t-67 28q-46 0 -77 -35 t-31 -82z" />
<glyph unicode="&#xc6;" horiz-adv-x="1947" d="M-152 0l965 1364h1202l-61 -287h-639l-51 -239h530l-55 -256h-529l-63 -295h641l-62 -287h-958l61 295h-430l-198 -295h-353zM575 553h310l119 557h-60z" />
<glyph unicode="&#xc7;" horiz-adv-x="1402" d="M98 633q0 207 94.5 380t264.5 274.5t381 101.5q209 0 357.5 -97.5t219.5 -259.5l-274 -129q-41 93 -118.5 150t-186.5 57q-120 0 -214 -68.5t-143 -177.5t-49 -235q0 -164 85 -270.5t237 -106.5q194 0 311 182l229 -180q-208 -279 -557 -279h-22q69 -69 69 -155 t-70 -136.5t-173 -50.5q-82 0 -149 31.5t-107 87.5l77 94q22 -27 56 -44t69 -17q41 0 69 25t28 75q0 53 -45 117q-208 59 -323.5 231t-115.5 400z" />
<glyph unicode="&#xc8;" horiz-adv-x="1288" d="M25 0l290 1364h1041l-62 -287h-721l-51 -239h611l-56 -256h-608l-63 -295h720l-61 -287h-1040zM555 1739l256 43q44 -110 170 -277l-117 -59q-92 47 -183 129.5t-126 163.5z" />
<glyph unicode="&#xc9;" horiz-adv-x="1288" d="M25 0l290 1364h1041l-62 -287h-721l-51 -239h611l-56 -256h-608l-63 -295h720l-61 -287h-1040zM686 1509q127 141 211 273l252 -51q-42 -82 -152 -164t-219 -123z" />
<glyph unicode="&#xca;" horiz-adv-x="1288" d="M25 0l290 1364h1041l-62 -287h-721l-51 -239h611l-56 -256h-608l-63 -295h720l-61 -287h-1040zM502 1534q123 68 289 213h221q67 -117 130 -180q26 -25 52 -45l-68 -88q-73 21 -143.5 62.5t-108.5 80.5q-41 -38 -133.5 -78t-193.5 -65z" />
<glyph unicode="&#xcb;" horiz-adv-x="1288" d="M25 0l290 1364h1041l-62 -287h-721l-51 -239h611l-56 -256h-608l-63 -295h720l-61 -287h-1040zM539 1483l49 231h229l-49 -231h-229zM942 1483l49 231h232l-49 -231h-232z" />
<glyph unicode="&#xcc;" horiz-adv-x="624" d="M25 0l290 1364h320l-291 -1364h-319zM215 1735l256 43q44 -110 170 -277l-117 -59q-92 47 -183 129.5t-126 163.5z" />
<glyph unicode="&#xcd;" horiz-adv-x="624" d="M25 0l290 1364h320l-291 -1364h-319zM369 1505q127 141 211 273l251 -52q-42 -82 -151.5 -163.5t-218.5 -122.5z" />
<glyph unicode="&#xce;" horiz-adv-x="624" d="M25 0l290 1364h320l-291 -1364h-319zM137 1530q123 68 289 213h221q67 -117 130 -180q25 -25 52 -45l-67 -88q-73 21 -143.5 62.5t-108.5 80.5q-41 -38 -133.5 -78t-194.5 -65z" />
<glyph unicode="&#xcf;" horiz-adv-x="624" d="M25 0l290 1364h320l-291 -1364h-319zM180 1481l49 231h230l-49 -231h-230zM584 1481l49 231h231l-49 -231h-231z" />
<glyph unicode="&#xd0;" horiz-adv-x="1558" d="M25 563l53 252h196l117 549h465q157 0 281.5 -48.5t202 -132.5t118.5 -193.5t41 -235.5q0 -155 -52.5 -292.5t-146.5 -240t-235.5 -162t-310.5 -59.5h-652l119 563h-196zM481 287h285q95 0 172.5 38t126.5 102.5t75.5 148t26.5 176.5q0 147 -77 236t-238 89h-201 l-55 -262h303l-53 -252h-305z" />
<glyph unicode="&#xd1;" horiz-adv-x="1495" d="M25 0l290 1364h377l316 -911l192 911h305l-288 -1364h-365l-322 932l-196 -932h-309zM549 1526q40 88 108 145.5t154 57.5q59 0 148 -40t128 -40t80.5 23t71.5 65l109 -78q-38 -88 -107.5 -145.5t-155.5 -57.5q-59 0 -147 40t-127 40t-81 -23t-73 -65z" />
<glyph unicode="&#xd2;" horiz-adv-x="1542" d="M96 633q0 207 95 380t265.5 274.5t381.5 101.5q149 0 272 -52.5t204 -142.5t125 -210t44 -255q0 -206 -96 -378.5t-267.5 -274t-382.5 -101.5q-149 0 -271.5 52.5t-202.5 142.5t-123.5 209t-43.5 254zM428 625q0 -161 81.5 -264t235.5 -103q120 0 214 67t143 175t49 235 q0 161 -81.5 265t-235.5 104q-121 0 -215 -67t-142.5 -175.5t-48.5 -236.5zM586 1735l256 43q44 -110 170 -277l-117 -59q-92 47 -183 129.5t-126 163.5z" />
<glyph unicode="&#xd3;" horiz-adv-x="1542" d="M96 633q0 207 95 380t265.5 274.5t381.5 101.5q149 0 272 -52.5t204 -142.5t125 -210t44 -255q0 -206 -96 -378.5t-267.5 -274t-382.5 -101.5q-149 0 -271.5 52.5t-202.5 142.5t-123.5 209t-43.5 254zM428 625q0 -161 81.5 -264t235.5 -103q120 0 214 67t143 175t49 235 q0 161 -81.5 265t-235.5 104q-121 0 -215 -67t-142.5 -175.5t-48.5 -236.5zM754 1505q127 141 211 273l252 -52q-42 -82 -152 -163.5t-219 -122.5z" />
<glyph unicode="&#xd4;" horiz-adv-x="1542" d="M96 633q0 207 95 380t265.5 274.5t381.5 101.5q149 0 272 -52.5t204 -142.5t125 -210t44 -255q0 -206 -96 -378.5t-267.5 -274t-382.5 -101.5q-149 0 -271.5 52.5t-202.5 142.5t-123.5 209t-43.5 254zM428 625q0 -161 81.5 -264t235.5 -103q120 0 214 67t143 175t49 235 q0 161 -81.5 265t-235.5 104q-121 0 -215 -67t-142.5 -175.5t-48.5 -236.5zM518 1530q123 68 289 213h221q67 -117 130 -180q26 -25 52 -45l-67 -88q-73 21 -143.5 62.5t-108.5 80.5q-41 -38 -133.5 -78t-194.5 -65z" />
<glyph unicode="&#xd5;" horiz-adv-x="1542" d="M96 633q0 207 95 380t265.5 274.5t381.5 101.5q149 0 272 -52.5t204 -142.5t125 -210t44 -255q0 -206 -96 -378.5t-267.5 -274t-382.5 -101.5q-149 0 -271.5 52.5t-202.5 142.5t-123.5 209t-43.5 254zM428 625q0 -161 81.5 -264t235.5 -103q120 0 214 67t143 175t49 235 q0 161 -81.5 265t-235.5 104q-121 0 -215 -67t-142.5 -175.5t-48.5 -236.5zM492 1526q40 88 108 145.5t154 57.5q59 0 148 -40t128 -40t80.5 23t71.5 65l108 -78q-38 -88 -107 -145.5t-155 -57.5q-59 0 -147 40t-127 40t-81 -23t-73 -65z" />
<glyph unicode="&#xd6;" horiz-adv-x="1542" d="M96 633q0 207 95 380t265.5 274.5t381.5 101.5q149 0 272 -52.5t204 -142.5t125 -210t44 -255q0 -206 -96 -378.5t-267.5 -274t-382.5 -101.5q-149 0 -271.5 52.5t-202.5 142.5t-123.5 209t-43.5 254zM428 625q0 -161 81.5 -264t235.5 -103q120 0 214 67t143 175t49 235 q0 161 -81.5 265t-235.5 104q-121 0 -215 -67t-142.5 -175.5t-48.5 -236.5zM532 1481l50 231h229l-49 -231h-230zM936 1481l49 231h232l-50 -231h-231z" />
<glyph unicode="&#xd7;" d="M29 295l415 346l-270 352l201 156l264 -344l412 344l163 -197l-419 -348l270 -350l-201 -156l-264 340l-410 -340z" />
<glyph unicode="&#xd8;" horiz-adv-x="1542" d="M96 633q0 207 95 380t265.5 274.5t381.5 101.5q203 0 366 -103l80 98l100 -84l-79 -98q86 -91 132 -213t46 -260q0 -206 -96 -378.5t-267.5 -274t-382.5 -101.5q-214 0 -364 101l-78 -96l-100 83l77 95q-86 90 -131 213t-45 262zM428 625q0 -135 53 -217l531 647 q-77 49 -178 49q-121 0 -215 -67t-142.5 -175.5t-48.5 -236.5zM567 307q74 -49 178 -49q120 0 214 67t143 175t49 235q0 129 -53 221z" />
<glyph unicode="&#xd9;" horiz-adv-x="1447" d="M109 395q0 69 20 164l174 805h320l-177 -829q-12 -47 -12 -86q0 -88 59 -138.5t171 -50.5q254 0 311 268l178 836h320l-187 -877q-54 -249 -221 -380.5t-430 -131.5q-156 0 -273.5 47.5t-185 143.5t-67.5 229zM604 1735l256 43q44 -110 170 -277l-117 -59 q-92 47 -183 129.5t-126 163.5z" />
<glyph unicode="&#xda;" horiz-adv-x="1447" d="M109 395q0 69 20 164l174 805h320l-177 -829q-12 -47 -12 -86q0 -88 59 -138.5t171 -50.5q254 0 311 268l178 836h320l-187 -877q-54 -249 -221 -380.5t-430 -131.5q-156 0 -273.5 47.5t-185 143.5t-67.5 229zM776 1505q127 141 211 273l252 -52q-42 -82 -152 -163.5 t-219 -122.5z" />
<glyph unicode="&#xdb;" horiz-adv-x="1447" d="M109 395q0 69 20 164l174 805h320l-177 -829q-12 -47 -12 -86q0 -88 59 -138.5t171 -50.5q254 0 311 268l178 836h320l-187 -877q-54 -249 -221 -380.5t-430 -131.5q-156 0 -273.5 47.5t-185 143.5t-67.5 229zM553 1530q123 68 289 213h221q67 -117 130 -180 q26 -25 52 -45l-67 -88q-73 21 -143.5 62.5t-108.5 80.5q-41 -38 -133.5 -78t-194.5 -65z" />
<glyph unicode="&#xdc;" horiz-adv-x="1447" d="M109 395q0 69 20 164l174 805h320l-177 -829q-12 -47 -12 -86q0 -88 59 -138.5t171 -50.5q254 0 311 268l178 836h320l-187 -877q-54 -249 -221 -380.5t-430 -131.5q-156 0 -273.5 47.5t-185 143.5t-67.5 229zM600 1481l49 231h230l-50 -231h-229zM1004 1481l49 231h231 l-49 -231h-231z" />
<glyph unicode="&#xdd;" horiz-adv-x="1343" d="M133 1364h354l218 -547l419 547h387l-696 -840l-110 -524h-322l117 543zM690 1505q127 141 211 273l252 -52q-42 -82 -152 -163.5t-219 -122.5z" />
<glyph unicode="&#xde;" horiz-adv-x="1331" d="M25 0l290 1364h320l-37 -170h225q233 0 365.5 -115.5t132.5 -312.5q0 -148 -73.5 -261.5t-203 -174t-294.5 -60.5h-349l-57 -270h-319zM463 555h313q95 0 154 55t59 142q0 76 -48.5 116.5t-139.5 40.5h-262z" />
<glyph unicode="&#xdf;" horiz-adv-x="1341" d="M6 0l227 1075q42 195 183 304.5t391 109.5q136 0 247.5 -47t178.5 -138t67 -210q0 -131 -80.5 -222t-205.5 -122q102 -43 159.5 -130t57.5 -202q0 -193 -153 -319t-398 -126q-138 0 -264 58l82 256q73 -47 178 -47q112 0 175.5 55.5t63.5 146.5q0 90 -58 144.5t-163 54.5 h-102l53 248h141q89 0 145 49.5t56 126.5q0 76 -55.5 122t-147.5 46q-209 0 -252 -197l-219 -1036h-307z" />
<glyph unicode="&#xe0;" horiz-adv-x="1218" d="M6 295q0 59 14.5 107t37.5 81.5t60 60.5t73 43.5t85 29t88 18.5t91 12q17 2 51 5q148 16 195 36q61 26 61 80q0 98 -170 98q-169 0 -340 -100l-96 215q220 137 471 137q202 0 323 -82.5t121 -234.5q0 -62 -18 -139l-74 -334q-12 -58 -12 -72q0 -55 61 -55q30 0 55 18 l29 -199q-59 -36 -174 -36q-198 0 -248 143q-116 -152 -336 -152q-158 0 -253 81.5t-95 238.5zM313 324q0 -64 39.5 -93.5t104.5 -29.5q87 0 149 53t84 158l27 127q-24 -22 -62.5 -37.5t-69 -22t-79.5 -14.5q-39 -6 -59.5 -10.5t-50.5 -15t-45 -23.5t-26.5 -36.5 t-11.5 -55.5zM399 1477l256 43q44 -110 170 -277l-116 -59q-93 47 -184 129.5t-126 163.5z" />
<glyph unicode="&#xe1;" horiz-adv-x="1218" d="M6 295q0 59 14.5 107t37.5 81.5t60 60.5t73 43.5t85 29t88 18.5t91 12q17 2 51 5q148 16 195 36q61 26 61 80q0 98 -170 98q-169 0 -340 -100l-96 215q220 137 471 137q202 0 323 -82.5t121 -234.5q0 -62 -18 -139l-74 -334q-12 -58 -12 -72q0 -55 61 -55q30 0 55 18 l29 -199q-59 -36 -174 -36q-198 0 -248 143q-116 -152 -336 -152q-158 0 -253 81.5t-95 238.5zM313 324q0 -64 39.5 -93.5t104.5 -29.5q87 0 149 53t84 158l27 127q-24 -22 -62.5 -37.5t-69 -22t-79.5 -14.5q-39 -6 -59.5 -10.5t-50.5 -15t-45 -23.5t-26.5 -36.5 t-11.5 -55.5zM508 1247q127 141 211 273l252 -52q-42 -82 -152 -163.5t-219 -122.5z" />
<glyph unicode="&#xe2;" horiz-adv-x="1218" d="M6 295q0 59 14.5 107t37.5 81.5t60 60.5t73 43.5t85 29t88 18.5t91 12q17 2 51 5q148 16 195 36q61 26 61 80q0 98 -170 98q-169 0 -340 -100l-96 215q220 137 471 137q202 0 323 -82.5t121 -234.5q0 -62 -18 -139l-74 -334q-12 -58 -12 -72q0 -55 61 -55q30 0 55 18 l29 -199q-59 -36 -174 -36q-198 0 -248 143q-116 -152 -336 -152q-158 0 -253 81.5t-95 238.5zM313 324q0 -64 39.5 -93.5t104.5 -29.5q87 0 149 53t84 158l27 127q-24 -22 -62.5 -37.5t-69 -22t-79.5 -14.5q-39 -6 -59.5 -10.5t-50.5 -15t-45 -23.5t-26.5 -36.5 t-11.5 -55.5zM336 1272q123 68 289 213h221q67 -117 130 -180q25 -25 52 -45l-67 -89q-72 21 -143 62.5t-109 81.5q-41 -38 -134 -78.5t-194 -65.5z" />
<glyph unicode="&#xe3;" horiz-adv-x="1218" d="M6 295q0 59 14.5 107t37.5 81.5t60 60.5t73 43.5t85 29t88 18.5t91 12q17 2 51 5q148 16 195 36q61 26 61 80q0 98 -170 98q-169 0 -340 -100l-96 215q220 137 471 137q202 0 323 -82.5t121 -234.5q0 -62 -18 -139l-74 -334q-12 -58 -12 -72q0 -55 61 -55q30 0 55 18 l29 -199q-59 -36 -174 -36q-198 0 -248 143q-116 -152 -336 -152q-158 0 -253 81.5t-95 238.5zM295 1268q40 88 108 145t154 57q59 0 148.5 -39.5t128.5 -39.5t80 23t71 65l109 -78q-38 -88 -107.5 -145.5t-155.5 -57.5q-59 0 -147 40t-127 40t-81 -23t-73 -65zM313 324 q0 -64 39.5 -93.5t104.5 -29.5q87 0 149 53t84 158l27 127q-24 -22 -62.5 -37.5t-69 -22t-79.5 -14.5q-39 -6 -59.5 -10.5t-50.5 -15t-45 -23.5t-26.5 -36.5t-11.5 -55.5z" />
<glyph unicode="&#xe4;" horiz-adv-x="1218" d="M6 295q0 59 14.5 107t37.5 81.5t60 60.5t73 43.5t85 29t88 18.5t91 12q17 2 51 5q148 16 195 36q61 26 61 80q0 98 -170 98q-169 0 -340 -100l-96 215q220 137 471 137q202 0 323 -82.5t121 -234.5q0 -62 -18 -139l-74 -334q-12 -58 -12 -72q0 -55 61 -55q30 0 55 18 l29 -199q-59 -36 -174 -36q-198 0 -248 143q-116 -152 -336 -152q-158 0 -253 81.5t-95 238.5zM313 324q0 -64 39.5 -93.5t104.5 -29.5q87 0 149 53t84 158l27 127q-24 -22 -62.5 -37.5t-69 -22t-79.5 -14.5q-39 -6 -59.5 -10.5t-50.5 -15t-45 -23.5t-26.5 -36.5 t-11.5 -55.5zM379 1223l49 231h229l-49 -231h-229zM782 1223l49 231h232l-49 -231h-232z" />
<glyph unicode="&#xe5;" horiz-adv-x="1218" d="M6 295q0 59 14.5 107t37.5 81.5t60 60.5t73 43.5t85 29t88 18.5t91 12q17 2 51 5q148 16 195 36q61 26 61 80q0 98 -170 98q-169 0 -340 -100l-96 215q220 137 471 137q202 0 323 -82.5t121 -234.5q0 -62 -18 -139l-74 -334q-12 -58 -12 -72q0 -55 61 -55q30 0 55 18 l29 -199q-59 -36 -174 -36q-198 0 -248 143q-116 -152 -336 -152q-158 0 -253 81.5t-95 238.5zM313 324q0 -64 39.5 -93.5t104.5 -29.5q87 0 149 53t84 158l27 127q-24 -22 -62.5 -37.5t-69 -22t-79.5 -14.5q-39 -6 -59.5 -10.5t-50.5 -15t-45 -23.5t-26.5 -36.5 t-11.5 -55.5zM451 1372q0 96 74 164t182 68q104 0 167.5 -62t63.5 -151q0 -95 -73.5 -162.5t-182.5 -67.5q-104 0 -167.5 61.5t-63.5 149.5zM596 1372q0 -41 24.5 -68.5t65.5 -27.5q48 0 78.5 34.5t30.5 80.5q0 41 -24.5 69.5t-65.5 28.5q-48 0 -78.5 -34.5t-30.5 -82.5z " />
<glyph unicode="&#xe6;" horiz-adv-x="1888" d="M4 293q0 59 15.5 107.5t40 82t62 60t74.5 42t85.5 27.5t86 17t85.5 10q173 17 223 32q85 28 86 91q0 104 -176 104q-165 0 -336 -100l-96 215q218 137 471 137q247 0 338 -129q158 129 350 129q235 0 371.5 -131t136.5 -332q0 -88 -31 -184h-766q-2 -6 -2 -18 q0 -102 65 -162t177 -60q84 0 165 34.5t142 96.5l180 -180q-201 -207 -512 -207q-152 0 -259.5 52.5t-168.5 146.5q-145 -199 -442 -199q-165 0 -265 81.5t-100 236.5zM311 322q0 -62 39.5 -91.5t104.5 -29.5q87 0 148.5 53.5t84.5 157.5l27 127q-28 -26 -72.5 -42 t-73 -20.5t-88.5 -11.5q-36 -5 -64 -13.5t-53.5 -24.5t-39 -42.5t-13.5 -62.5zM1049 666h473q2 6 2 24q0 88 -60 143.5t-155 55.5q-100 0 -169 -59.5t-91 -163.5z" />
<glyph unicode="&#xe7;" horiz-adv-x="1142" d="M59 502q0 169 77 309t217 222.5t313 82.5q311 0 471 -274l-238 -133q-77 147 -225 147q-130 0 -209.5 -105.5t-79.5 -252.5q0 -118 54 -190t159 -72q132 0 240 141l192 -176q-53 -69 -135.5 -127t-196.5 -82q-66 -15 -110 -15q69 -76 69 -157q0 -87 -70 -137t-173 -50 q-82 0 -149 31.5t-107 87.5l78 94q22 -27 56 -44t68 -17q41 0 69 25t28 75q0 54 -41 113q-165 44 -261 180t-96 324z" />
<glyph unicode="&#xe8;" horiz-adv-x="1253" d="M57 496q0 171 76 312t219 225.5t326 84.5q235 0 371.5 -131t136.5 -332q0 -88 -31 -184h-768v-18q0 -102 64 -162t176 -60q85 0 165.5 34t141.5 97l182 -180q-201 -207 -512 -207q-176 0 -301.5 70t-185.5 186t-60 265zM414 666h471q2 6 2 24q0 88 -59.5 143.5 t-153.5 55.5q-100 0 -169 -59.5t-91 -163.5zM455 1477l256 43q44 -110 170 -277l-117 -59q-92 47 -183 129.5t-126 163.5z" />
<glyph unicode="&#xe9;" horiz-adv-x="1253" d="M57 496q0 171 76 312t219 225.5t326 84.5q235 0 371.5 -131t136.5 -332q0 -88 -31 -184h-768v-18q0 -102 64 -162t176 -60q85 0 165.5 34t141.5 97l182 -180q-201 -207 -512 -207q-176 0 -301.5 70t-185.5 186t-60 265zM414 666h471q2 6 2 24q0 88 -59.5 143.5 t-153.5 55.5q-100 0 -169 -59.5t-91 -163.5zM571 1247q127 141 211 273l252 -52q-42 -82 -151.5 -163.5t-218.5 -122.5z" />
<glyph unicode="&#xea;" horiz-adv-x="1253" d="M57 496q0 171 76 312t219 225.5t326 84.5q235 0 371.5 -131t136.5 -332q0 -88 -31 -184h-768v-18q0 -102 64 -162t176 -60q85 0 165.5 34t141.5 97l182 -180q-201 -207 -512 -207q-176 0 -301.5 70t-185.5 186t-60 265zM352 1272q123 68 289 213h221q67 -117 130 -180 q25 -25 52 -45l-67 -89q-72 21 -143 62.5t-109 81.5q-41 -38 -134 -78.5t-194 -65.5zM414 666h471q2 6 2 24q0 88 -59.5 143.5t-153.5 55.5q-100 0 -169 -59.5t-91 -163.5z" />
<glyph unicode="&#xeb;" horiz-adv-x="1253" d="M57 496q0 171 76 312t219 225.5t326 84.5q235 0 371.5 -131t136.5 -332q0 -88 -31 -184h-768v-18q0 -102 64 -162t176 -60q85 0 165.5 34t141.5 97l182 -180q-201 -207 -512 -207q-176 0 -301.5 70t-185.5 186t-60 265zM391 1223l49 231h230l-49 -231h-230zM414 666h471 q2 6 2 24q0 88 -59.5 143.5t-153.5 55.5q-100 0 -169 -59.5t-91 -163.5zM795 1223l49 231h231l-49 -231h-231z" />
<glyph unicode="&#xec;" horiz-adv-x="573" d="M6 0l232 1094h307l-232 -1094h-307zM150 1477l256 43q45 -113 169 -277l-116 -59q-92 47 -183 129.5t-126 163.5z" />
<glyph unicode="&#xed;" horiz-adv-x="573" d="M6 0l232 1094h307l-232 -1094h-307zM315 1247q127 141 211 273l252 -52q-42 -82 -151.5 -163.5t-218.5 -122.5z" />
<glyph unicode="&#xee;" horiz-adv-x="573" d="M6 0l232 1094h307l-232 -1094h-307zM57 1272q123 68 289 213h221q88 -153 183 -225l-68 -89q-72 21 -143 62.5t-109 81.5q-41 -38 -134 -78.5t-194 -65.5z" />
<glyph unicode="&#xef;" horiz-adv-x="573" d="M6 0l232 1094h307l-232 -1094h-307zM117 1223l49 231h229l-49 -231h-229zM520 1223l49 231h232l-49 -231h-232z" />
<glyph unicode="&#xf0;" horiz-adv-x="1290" d="M57 479q0 231 152 388t381 157q175 0 274 -90q-51 121 -155 221l-240 -94l-47 117l164 65q-75 48 -133 78l231 166q120 -68 197 -135l276 108l47 -119l-219 -86q227 -251 227 -618q0 -141 -44 -263t-124 -210t-197.5 -138.5t-258.5 -50.5q-237 0 -384 140.5t-147 363.5z M385 479q0 -107 60 -171t167 -64q129 0 201 88t72 211q0 108 -59 176.5t-169 68.5q-86 0 -149.5 -46t-93 -114.5t-29.5 -148.5z" />
<glyph unicode="&#xf1;" horiz-adv-x="1245" d="M6 0l232 1094h309l-27 -121q142 145 332 145q144 0 225.5 -88t81.5 -209q0 -55 -16 -129l-148 -692h-309l137 643q13 47 13 78q0 58 -36 92.5t-106 34.5q-90 0 -158.5 -60.5t-91.5 -164.5l-131 -623h-307zM383 1268q40 88 108 145t154 57q59 0 148.5 -39.5t128.5 -39.5 t80 23t71 65l109 -78q-38 -88 -107 -145.5t-155 -57.5q-59 0 -147.5 40t-127.5 40t-80 -23t-73 -65z" />
<glyph unicode="&#xf2;" horiz-adv-x="1298" d="M61 508q0 172 76 311t216.5 219t320.5 80q249 0 396 -146t147 -386q0 -172 -75.5 -311t-216.5 -219.5t-323 -80.5q-248 0 -394.5 146t-146.5 387zM387 496q0 -115 55.5 -189t161.5 -74q89 0 156 55.5t99 137t32 172.5q0 115 -55.5 188.5t-161.5 73.5q-89 0 -156 -55 t-99 -136.5t-32 -172.5zM395 1477l256 43q44 -110 170 -277l-116 -59q-93 47 -184 129.5t-126 163.5z" />
<glyph unicode="&#xf3;" horiz-adv-x="1298" d="M61 508q0 172 76 311t216.5 219t320.5 80q249 0 396 -146t147 -386q0 -172 -75.5 -311t-216.5 -219.5t-323 -80.5q-248 0 -394.5 146t-146.5 387zM387 496q0 -115 55.5 -189t161.5 -74q89 0 156 55.5t99 137t32 172.5q0 115 -55.5 188.5t-161.5 73.5q-89 0 -156 -55 t-99 -136.5t-32 -172.5zM596 1247q127 141 211 273l252 -52q-42 -82 -152 -163.5t-219 -122.5z" />
<glyph unicode="&#xf4;" horiz-adv-x="1298" d="M61 508q0 172 76 311t216.5 219t320.5 80q249 0 396 -146t147 -386q0 -172 -75.5 -311t-216.5 -219.5t-323 -80.5q-248 0 -394.5 146t-146.5 387zM371 1272q120 67 288 213h222q67 -117 130 -180q26 -25 52 -45l-68 -89q-72 21 -143 62.5t-109 81.5q-41 -38 -133.5 -78.5 t-193.5 -65.5zM387 496q0 -115 55.5 -189t161.5 -74q89 0 156 55.5t99 137t32 172.5q0 115 -55.5 188.5t-161.5 73.5q-89 0 -156 -55t-99 -136.5t-32 -172.5z" />
<glyph unicode="&#xf5;" horiz-adv-x="1298" d="M61 508q0 172 76 311t216.5 219t320.5 80q249 0 396 -146t147 -386q0 -172 -75.5 -311t-216.5 -219.5t-323 -80.5q-248 0 -394.5 146t-146.5 387zM319 1268q40 88 108.5 145t154.5 57q59 0 148 -39.5t128 -39.5t80.5 23t71.5 65l108 -78q-38 -88 -107 -145.5t-155 -57.5 q-59 0 -147 40t-127 40t-81 -23t-73 -65zM387 496q0 -115 55.5 -189t161.5 -74q89 0 156 55.5t99 137t32 172.5q0 115 -55.5 188.5t-161.5 73.5q-89 0 -156 -55t-99 -136.5t-32 -172.5z" />
<glyph unicode="&#xf6;" horiz-adv-x="1298" d="M61 508q0 172 76 311t216.5 219t320.5 80q249 0 396 -146t147 -386q0 -172 -75.5 -311t-216.5 -219.5t-323 -80.5q-248 0 -394.5 146t-146.5 387zM385 1223l49 231h230l-50 -231h-229zM387 496q0 -115 55.5 -189t161.5 -74q89 0 156 55.5t99 137t32 172.5 q0 115 -55.5 188.5t-161.5 73.5q-89 0 -156 -55t-99 -136.5t-32 -172.5zM788 1223l50 231h231l-49 -231h-232z" />
<glyph unicode="&#xf7;" d="M72 494l53 256h1042l-55 -256h-1040zM356 211q0 72 52 124t124 52q73 0 125 -52t52 -124q0 -73 -51.5 -124.5t-125.5 -51.5q-72 0 -124 51.5t-52 124.5zM530 1034q0 74 52 126t125 52t124.5 -52t51.5 -126q0 -72 -51.5 -124t-124.5 -52t-125 52t-52 124z" />
<glyph unicode="&#xf8;" horiz-adv-x="1298" d="M61 508q0 172 76 311t216.5 219t320.5 80q168 0 297 -74l53 66l94 -78l-51 -59q150 -150 150 -387q0 -172 -75.5 -311t-216.5 -219.5t-323 -80.5q-172 0 -295 72l-53 -63l-94 77l49 60q-148 145 -148 387zM387 496q0 -61 25 -131l376 462q-51 33 -114 33q-89 0 -156 -55 t-99 -136.5t-32 -172.5zM487 264q53 -31 117 -31q89 0 156 55.5t99 137t32 172.5q0 67 -27 129z" />
<glyph unicode="&#xf9;" horiz-adv-x="1245" d="M66 272q0 68 14 129l147 693h310l-138 -641q-12 -62 -12 -80q0 -56 36 -90.5t105 -34.5q91 0 159 60t91 165l131 621h310l-234 -1094h-307l24 121q-65 -70 -152 -108t-179 -38q-143 0 -224 88t-81 209zM426 1477l256 43q44 -110 170 -277l-117 -59q-92 47 -183 129.5 t-126 163.5z" />
<glyph unicode="&#xfa;" horiz-adv-x="1245" d="M66 272q0 68 14 129l147 693h310l-138 -641q-12 -62 -12 -80q0 -56 36 -90.5t105 -34.5q91 0 159 60t91 165l131 621h310l-234 -1094h-307l24 121q-65 -70 -152 -108t-179 -38q-143 0 -224 88t-81 209zM621 1247q123 137 210 273l252 -52q-42 -82 -151.5 -163.5 t-218.5 -122.5z" />
<glyph unicode="&#xfb;" horiz-adv-x="1245" d="M66 272q0 68 14 129l147 693h310l-138 -641q-12 -62 -12 -80q0 -56 36 -90.5t105 -34.5q91 0 159 60t91 165l131 621h310l-234 -1094h-307l24 121q-65 -70 -152 -108t-179 -38q-143 0 -224 88t-81 209zM395 1272q123 68 289 213h221q67 -117 130 -180q26 -25 52 -45 l-67 -89q-72 21 -143 62.5t-109 81.5q-41 -38 -134 -78.5t-194 -65.5z" />
<glyph unicode="&#xfc;" horiz-adv-x="1245" d="M66 272q0 68 14 129l147 693h310l-138 -641q-12 -62 -12 -80q0 -56 36 -90.5t105 -34.5q91 0 159 60t91 165l131 621h310l-234 -1094h-307l24 121q-65 -70 -152 -108t-179 -38q-143 0 -224 88t-81 209zM434 1223l49 231h230l-49 -231h-230zM838 1223l49 231h231l-49 -231 h-231z" />
<glyph unicode="&#xfd;" horiz-adv-x="1138" d="M-141 -291l133 205q53 -43 112 -43q49 0 85.5 28t72.5 83l39 55l-211 1057h336l98 -693l369 693h344l-659 -1127q-51 -89 -94.5 -148t-96.5 -106t-115 -68.5t-139 -21.5q-161 0 -274 86zM565 1247q127 141 211 273l252 -52q-42 -82 -152 -163.5t-219 -122.5z" />
<glyph unicode="&#xfe;" horiz-adv-x="1331" d="M-68 -356l383 1818h308l-103 -483q133 139 311 139q190 0 307 -143t117 -361q0 -173 -74.5 -319t-208.5 -233t-298 -87q-209 0 -330 164l-104 -495h-308zM426 494q0 -111 55 -181.5t160 -70.5q132 0 210.5 107.5t78.5 250.5q0 110 -52.5 182t-158.5 72 q-89 0 -157.5 -53.5t-102 -134.5t-33.5 -172z" />
<glyph unicode="&#xff;" horiz-adv-x="1138" d="M-141 -291l133 205q53 -43 112 -43q49 0 85.5 28t72.5 83l39 55l-211 1057h336l98 -693l369 693h344l-659 -1127q-51 -89 -94.5 -148t-96.5 -106t-115 -68.5t-139 -21.5q-161 0 -274 86zM360 1223l50 231h229l-49 -231h-230zM764 1223l49 231h231l-49 -231h-231z" />
<glyph unicode="&#x152;" horiz-adv-x="2033" d="M96 610q0 155 52.5 292.5t147 240t236 162t310.5 59.5h1261l-61 -287h-660l-51 -239h547l-53 -256h-549l-62 -295h658l-60 -287h-1073q-157 0 -281.5 48.5t-202 132.5t-118.5 193.5t-41 235.5zM428 612q0 -146 77.5 -235.5t237.5 -89.5h152l168 790h-234 q-125 0 -218 -65.5t-138 -169.5t-45 -230z" />
<glyph unicode="&#x153;" horiz-adv-x="2062" d="M61 508q0 172 76 311t216.5 219t320.5 80q252 0 395 -172q169 172 418 172q236 0 372 -131t136 -336q0 -100 -31 -180h-766q-2 -6 -2 -18q0 -102 63 -162t175 -60q84 0 164.5 34t142.5 95l182 -178q-204 -207 -512 -207q-262 0 -397 164q-147 -144 -375 -159 q-92 -3 -160 10q-195 32 -306.5 170.5t-111.5 347.5zM387 496q0 -115 55.5 -189t161.5 -74q89 0 156 55.5t99 137t32 172.5q0 115 -55.5 188.5t-161.5 73.5q-89 0 -156 -55t-99 -136.5t-32 -172.5zM1223 666h473q3 27 -4 55q-8 75 -65.5 121.5t-143.5 46.5 q-100 0 -169 -59.5t-91 -163.5z" />
<glyph unicode="&#x178;" horiz-adv-x="1343" d="M133 1364h354l218 -547l419 547h387l-696 -840l-110 -524h-322l117 543zM494 1481l49 231h229l-49 -231h-229zM897 1481l49 231h232l-50 -231h-231z" />
<glyph unicode="&#x2c6;" horiz-adv-x="692" d="M127 1272q123 68 289 213h221q67 -117 130 -180q25 -25 52 -45l-67 -89q-72 21 -143 62.5t-109 81.5q-41 -38 -134 -78.5t-194 -65.5z" />
<glyph unicode="&#x2dc;" horiz-adv-x="753" d="M106 1268q40 88 108.5 145t154.5 57q59 0 148 -39.5t128 -39.5t80.5 23t71.5 65l108 -78q-38 -88 -107 -145.5t-155 -57.5q-59 0 -147 40t-127 40t-81 -23t-73 -65z" />
<glyph unicode="&#x2000;" horiz-adv-x="891" />
<glyph unicode="&#x2001;" horiz-adv-x="1782" />
<glyph unicode="&#x2002;" horiz-adv-x="891" />
<glyph unicode="&#x2003;" horiz-adv-x="1782" />
<glyph unicode="&#x2004;" horiz-adv-x="594" />
<glyph unicode="&#x2005;" horiz-adv-x="445" />
<glyph unicode="&#x2006;" horiz-adv-x="297" />
<glyph unicode="&#x2007;" horiz-adv-x="297" />
<glyph unicode="&#x2008;" horiz-adv-x="222" />
<glyph unicode="&#x2009;" horiz-adv-x="356" />
<glyph unicode="&#x200a;" horiz-adv-x="99" />
<glyph unicode="&#x2010;" horiz-adv-x="833" d="M82 485l57 271h621l-58 -271h-620z" />
<glyph unicode="&#x2011;" horiz-adv-x="833" d="M82 485l57 271h621l-58 -271h-620z" />
<glyph unicode="&#x2012;" horiz-adv-x="833" d="M82 485l57 271h621l-58 -271h-620z" />
<glyph unicode="&#x2013;" d="M70 494l53 256h1042l-55 -256h-1040z" />
<glyph unicode="&#x2014;" horiz-adv-x="1835" d="M84 494l53 256h1622l-53 -256h-1622z" />
<glyph unicode="&#x2018;" horiz-adv-x="540" d="M125 707l59 284q30 142 107 237t225 163l66 -138q-76 -30 -128 -82.5t-69 -119.5l-12 -52h145l-63 -292h-330z" />
<glyph unicode="&#x2019;" horiz-adv-x="516" d="M135 817q75 30 126.5 82.5t68.5 120.5l12 51h-143l61 293h332l-60 -285q-31 -144 -107 -237.5t-224 -161.5z" />
<glyph unicode="&#x201a;" horiz-adv-x="577" d="M-61 -223q75 28 127 80.5t69 119.5l12 52h-145l64 293h329l-59 -285q-30 -142 -107 -236.5t-225 -162.5z" />
<glyph unicode="&#x201c;" horiz-adv-x="1026" d="M125 707l59 284q30 142 107 237t225 163l66 -138q-76 -30 -128 -82.5t-69 -119.5l-12 -52h145l-63 -292h-330zM610 707l60 284q30 143 106.5 237.5t224.5 162.5l66 -138q-75 -30 -126.5 -82.5t-68.5 -119.5l-12 -52h144l-62 -292h-332z" />
<glyph unicode="&#x201d;" horiz-adv-x="1003" d="M135 817q75 30 126.5 82.5t68.5 120.5l12 51h-143l61 293h332l-60 -285q-31 -144 -107 -237.5t-224 -161.5zM621 817q76 30 127.5 82.5t68.5 120.5l12 51h-145l64 293h329l-59 -285q-30 -143 -106.5 -237t-225.5 -162z" />
<glyph unicode="&#x201e;" horiz-adv-x="1064" d="M-61 -223q75 28 127 80.5t69 119.5l12 52h-145l64 293h329l-59 -285q-30 -142 -107 -236.5t-225 -162.5zM426 -223q74 28 126 80.5t69 119.5l12 52h-144l62 293h332l-60 -285q-32 -143 -108 -237.5t-223 -161.5z" />
<glyph unicode="&#x2022;" horiz-adv-x="825" d="M90 682q0 140 98.5 240t237.5 100q141 0 240.5 -100t99.5 -240t-99.5 -239t-240.5 -99q-139 0 -237.5 99t-98.5 239z" />
<glyph unicode="&#x2026;" horiz-adv-x="1673" d="M0 0l70 326h331l-69 -326h-332zM547 0l67 326h334l-69 -326h-332zM1092 0l69 326h332l-70 -326h-331z" />
<glyph unicode="&#x202f;" horiz-adv-x="356" />
<glyph unicode="&#x2039;" horiz-adv-x="606" d="M31 496l24 112l412 408l127 -123l-313 -377l147 -358l-162 -86z" />
<glyph unicode="&#x203a;" horiz-adv-x="606" d="M-10 197l311 374l-147 361l163 84l234 -422l-23 -115l-411 -407z" />
<glyph unicode="&#x205f;" horiz-adv-x="445" />
<glyph unicode="&#x20ac;" horiz-adv-x="1609" d="M88 483l29 138h123v12q0 44 8 106h-105l27 133h104q72 230 262 373.5t443 143.5q208 0 357 -97t220 -262l-274 -125q-43 93 -120 149t-185 56q-118 0 -209 -65t-143 -173h419l-28 -133h-436q-9 -56 -9 -110v-8h420l-30 -138h-369q32 -107 109 -169t192 -62q194 0 311 182 l230 -180q-208 -279 -557 -279q-253 0 -417.5 141t-207.5 367h-164z" />
<glyph unicode="&#x2122;" horiz-adv-x="1587" d="M254 1212l33 152h538l-32 -152h-193l-98 -462h-156l96 462h-188zM778 750l131 614h213l39 -426l221 426h211l-131 -614h-151l92 426l-227 -426h-113l-45 426l-88 -426h-152z" />
<glyph unicode="&#x25fc;" horiz-adv-x="1095" d="M0 0v1096h1096v-1096h-1096z" />
</font>
</defs>
</svg>
