<?xml version="1.0" standalone="no"?>
<!DOCTYPE svg PUBLIC "-//W3C//DTD SVG 1.1//EN" "http://www.w3.org/Graphics/SVG/1.1/DTD/svg11.dtd">
<svg xmlns="http://www.w3.org/2000/svg">
<metadata>Copyright (C) 2021 by original authors @ fontello.com</metadata>
<defs>
<font id="fontello" horiz-adv-x="1000" >
<font-face font-family="fontello" font-weight="400" font-stretch="normal" units-per-em="1000" ascent="850" descent="-150" />
<missing-glyph horiz-adv-x="1000" />
<glyph glyph-name="samsung" unicode="&#xe800;" d="M826 422l2-113h-1l-33 113h-53v-142h35l-2 116h1l35-116h51v142z m-673 0l-27-143h39l19 130h1l19-130h39l-27 143z m216 0l-18-109h-1l-18 109h-58l-3-143h36l1 128h1l23-128h37l24 128h1l1-128h35l-3 143z m-303-103c1-3 1-8 0-10-1-5-4-10-13-10-9 0-15 6-15 13v14h-38v-11c0-32 25-41 52-41 26 0 47 9 51 32 2 13 0 21 0 24-7 30-61 38-65 55-1 3-1 6 0 8 1 4 4 9 13 9 8 0 13-5 13-13v-8h36v10c0 31-28 35-48 35-26 0-47-8-51-31 0-6-1-12 1-19 6-30 57-38 64-57m465 0c1-3 1-7 0-10-1-5-4-10-14-10-9 0-14 6-14 13v14h-38v-11c0-31 25-41 51-41 26 0 47 9 50 33 2 12 1 20 0 23-5 30-59 39-63 55-1 3-1 6 0 8 1 4 4 9 13 9 8 0 13-5 13-13v-8h36v10c0 31-28 35-48 35-26 0-46-8-50-31-1-6-1-12 1-19 5-30 55-38 63-57m120-19c10 0 13 7 14 11 0 1 0 4 0 5v106h37v-103c0-3 0-8-1-10-2-26-23-35-50-35-26 0-47 9-49 35 0 2-1 7-1 10v103h37v-106c0-2 0-4 0-5 0-4 3-11 13-11m298 2c10 0 14 7 15 10 0 2 0 4 0 6v20h-15v21h51v-38c0-3 0-5 0-10-3-26-25-35-51-35-25 0-47 9-50 35 0 5 0 7 0 10v60c0 2 0 7 0 10 4 26 25 35 50 35s48-9 51-35c0-5 0-10 0-10v-5h-36v8s0 4 0 6c-1 3-4 10-15 10-10 0-13-6-14-10 0-2 0-5 0-7v-65c0-2 0-4 0-6 0-3 4-10 14-10" horiz-adv-x="1000" />

<glyph glyph-name="dell" unicode="&#xe801;" d="M749 242v220h50v-176h90v-44h-140z m-408 137l124 95c12-9 23-19 35-28l-118-90 26-22 118 92c11-9 23-19 35-28a12326 12326 0 0 0-118-93l25-22 118 96 0 83h51v-176h92v-44h-140v83c-41-32-83-64-124-96l-124 96c-6-31-27-57-55-71-12-6-25-10-38-12-8 0-15 0-23 0h-78v220h90a106 106 0 0 0 65-24c19-15 33-36 39-59m-147 38v-134l40 0a57 57 0 0 1 43 22 73 73 0 0 1 8 79 62 62 0 0 1-41 32c-7 1-14 1-21 1h-29z m299 433h14a498 498 0 0 0 225-57 504 504 0 0 0 172-148 497 497 0 0 0 96-287v-15a499 499 0 0 0-135-335 499 499 0 0 0-357-158h-15a500 500 0 0 0-173 34 502 502 0 0 0-178 118 502 502 0 0 0-118 195 500 500 0 0 0-24 146v15a497 497 0 0 0 83 266 509 509 0 0 0 196 174 495 495 0 0 0 214 52m-7-51a447 447 0 0 1-268-99 449 449 0 0 1-138-191 452 452 0 0 1 8-338 450 450 0 0 1 148-184 446 446 0 0 1 199-81c61-9 123-6 183 10a448 448 0 0 1 211 128 448 448 0 0 1 112 220 455 455 0 0 1-5 195 449 449 0 0 1-296 318 449 449 0 0 1-154 22z" horiz-adv-x="1000" />

<glyph glyph-name="hp" unicode="&#xe802;" d="M500-150h-15l103 281h140c25 0 52 19 61 42l111 304c18 50-10 91-64 91h-195l-257-705c-220 53-384 251-384 487 0 229 155 422 365 481l-255-700h106l135 372h80l-135-372h105l127 347c18 50-10 91-64 91h-89l103 280c7 0 14 1 22 1 276 0 500-224 500-500s-224-500-500-500z m303 653h-80l-112-306h80z" horiz-adv-x="1000" />

<glyph glyph-name="toshiba" unicode="&#xe803;" d="M216 426c-45 0-66-8-69-48a372 372 0 0 1-1-28c0-9 0-19 1-28 3-40 24-48 69-48 44 0 65 8 68 48 1 9 1 19 1 28 0 9 0 19-1 28-3 40-24 48-68 48z m158 0c-18 0-35-1-41-5-14-6-23-16-23-42 0-16 4-28 12-33 12-9 23-10 55-12 12 0 19-3 19-14 0-14-12-14-23-14-12 0-16 1-19 4-4 3-5 8-5 15h-39c0-21 0-37 19-45 17-8 70-8 85-1 14 6 24 14 24 41 0 19-4 31-18 40-11 6-40 7-55 8-10 0-14 4-14 14 0 12 12 13 22 13 8 0 14-1 18-5 2-1 4-4 4-13h39c0 17 0 36-19 44-7 4-24 5-41 5z m91-2v-148h42v57h48v-57h42v148h-42v-54h-48v54h-42z m168 0v-148h42v148h-42z m79 0v-148h79c36 0 48 16 48 40 0 17-4 32-27 37 19 5 24 16 24 32 0 32-20 39-49 39h-75z m182 0l-44-148h43l8 28h48l8-28h43l-45 148h-61z m-894 0v-37h44v-111h44v111h44v37h-132z m216-32c17 0 26-3 27-25 0-4 1-9 1-17 0-8-1-13-1-16-1-23-10-26-27-26-18 0-27 3-28 26a320 320 0 0 0 0 16c0 8 0 13 0 17 1 22 10 25 28 25z m537-2h29c8 0 12-4 12-12 0-8-4-12-12-12h-29v24z m172-3h0l15-51h-30l15 51z m-172-50h29c12 0 14-5 14-13s-4-14-14-14h-29v27z" horiz-adv-x="1000" />

<glyph glyph-name="apple" unicode="&#xe804;" d="M506 563c-39 0-100 45-165 43-85-1-163-49-206-126-89-153-23-379 63-503 42-61 92-129 158-127 63 3 87 41 164 41 76 0 98-41 165-39 68 1 111 61 153 122 48 71 68 139 69 143-1 0-132 51-134 202-1 127 104 187 108 190-59 87-151 97-183 99-83 7-153-45-192-45z m141 127c35 43 58 102 52 160-50-2-111-33-147-76-33-37-61-97-53-154 56-5 113 28 148 70" horiz-adv-x="1000" />

<glyph glyph-name="applemusic" unicode="&#xe805;" d="M1000 595a385 385 0 0 1-10 91c-13 55-44 96-91 127a209 209 0 0 1-78 30 437 437 0 0 1-65 6c-2 1-4 1-6 1h-501c-6 0-12-1-18-1-32-2-63-5-92-17-56-22-96-60-119-116-8-18-12-38-15-58-3-17-4-33-5-49 0-2 0-3 0-4v-510c0-5 1-11 1-17 2-34 7-68 21-99 27-59 72-98 135-117 17-5 35-8 54-9 23-3 46-3 69-3h460a521 521 0 0 1 65 4c34 5 66 15 96 34a210 210 0 0 1 78 92c8 17 12 36 15 55 5 28 6 57 6 85 0 159 0 317 0 475z m-268-166v-238c0-18-2-35-10-51-12-24-32-40-58-47-14-4-29-7-44-7-40-2-74 25-81 64a78 78 0 0 0 43 84c13 7 28 10 42 13 16 4 32 7 48 10 11 3 19 10 21 22a38 38 0 0 1 1 8c0 76 0 151 0 227a30 30 0 0 1-2 7c-1 7-6 11-12 10-7 0-13-1-20-3-32-6-63-12-95-19l-97-19-57-12c-1 0-1 0-2 0-12-3-16-9-16-21 0-1 0-3 0-5 0-108 0-217 0-325 0-18-2-35-9-51-12-27-33-44-60-52-15-4-30-6-45-7-40-1-73 25-80 64-6 34 10 71 48 87 15 6 31 10 46 13 12 2 24 5 36 7 16 4 24 14 25 30v6c0 123 0 247 0 370 0 5 1 11 2 16 3 12 11 18 23 21 10 3 21 5 32 7 30 6 61 12 92 19l94 19c28 5 56 11 84 17 9 1 18 3 28 4 12 1 21-7 23-20 0-3 0-6 0-9 0-80 0-160 0-239z" horiz-adv-x="1000" />

<glyph glyph-name="applepay" unicode="&#xe806;" d="M90 670a1757 1757 0 0 1-19 0c-7 0-13-1-19-2a60 60 0 0 1-44-32c-3-6-5-11-6-18-1-6-2-12-2-18a425 425 0 0 1 0-9v-482c0-3 0-5 0-8 0-7 1-13 2-19 1-6 3-12 6-18a60 60 0 0 1 26-26c6-3 12-5 18-6 6-1 12-2 19-2l8 0h842l8 0c7 0 13 1 19 2 6 1 12 3 18 6a60 60 0 0 1 26 26c3 6 5 12 6 18 1 6 2 12 2 19 0 3 0 5 0 8l0 11v471c0 3 0 6 0 8a125 125 0 0 1-2 19 60 60 0 0 1-50 50 126 126 0 0 1-19 2 435 435 0 0 1-18 0z m0-21h831c2 0 5 0 8 0 5 0 10-1 15-2 5 0 9-2 12-4a39 39 0 0 0 17-17 42 42 0 0 0 4-12c1-5 1-10 2-15 0-3 0-6 0-8v-482c0-2 0-5 0-8-1-5-1-10-2-15a39 39 0 0 0-21-29 42 42 0 0 0-12-4 108 108 0 0 0-15-2l-8 0h-842c-2 0-5 0-8 0a109 109 0 0 0-15 2c-5 1-9 2-12 4a38 38 0 0 0-17 17 42 42 0 0 0-4 12 106 106 0 0 0-1 15 400 400 0 0 0-1 8v482c0 2 0 5 1 8 0 5 0 10 1 16 1 4 2 8 4 12a39 39 0 0 0 17 16 43 43 0 0 0 12 4c5 1 11 2 15 2 3 0 6 0 8 0z m196-154c-13-1-28-9-37-19-8-10-15-25-13-39 14-1 28 7 37 18 9 11 14 25 13 40z m92-18v-229h35v78h50c44 0 76 31 76 76 0 45-31 75-75 75z m35-30h41c31 0 49-16 49-45 0-29-18-46-49-46h-41z m-131-12c-19-1-35-12-44-12-10 0-25 11-41 11a60 60 0 0 1-51-31c-22-38-6-94 16-125 10-15 23-32 39-32 16 1 22 10 41 10 18 0 24-10 40-9 17 0 28 15 38 30 12 18 17 34 18 35-1 1-33 13-34 51 0 31 26 46 27 47-14 22-37 24-45 25a47 47 0 0 1-4 0z m342-17c-41 0-67-22-69-52h32c3 15 16 24 36 24 20 0 33-11 33-29v-13l-46-3c-39-2-62-20-62-49 0-30 23-51 56-51 22 0 43 12 52 31h1v-28h33v115c0 34-26 55-66 55z m81-3l60-167c0 0-3-10-3-10-5-17-14-24-30-24-3 0-8 0-11 1v-28c3-1 11-1 14-1 35 0 51 13 65 54l63 175h-36l-42-136h-1l-42 136z m-49-91v-13c0-22-19-38-43-38-18 0-30 9-30 24 0 14 11 23 32 24z" horiz-adv-x="1000" />

<glyph glyph-name="applearcade" unicode="&#xe807;" d="M8 90a40 40 0 0 0-8 24v40s0 23 24 13c0 0 288-131 334-151a326 326 0 0 1 142-31 342 342 0 0 1 142 31l335 151c23 10 23-13 23-13v-40a43 43 0 0 0-8-24c-8-11-22-23-59-40-30-14-260-118-291-132a334 334 0 0 0-142-31 347 347 0 0 0-159 39c-60 27-244 110-274 124-37 18-48 27-59 40z m59 249l291 132a332 332 0 0 0 90 26v-237c0-17 24-29 52-29s47 13 47 29v237c33-5 65-13 95-26l291-132c24-11 67-32 67-64s-42-52-67-64l-291-132a342 342 0 0 0-142-30 326 326 0 0 0-142 30l-291 132c-25 12-67 32-67 64s43 53 67 64z m75-94c32-16 71-16 103 0 28 17 28 43 0 59a113 113 0 0 1-103 0c-28-16-27-42 0-59z m358 289a140 140 0 1 0 140 139v0c0-77-63-139-140-139z" horiz-adv-x="1000" />

<glyph glyph-name="applepodcasts" unicode="&#xe808;" d="M223 850a222 222 0 0 1-223-222v-555a222 222 0 0 1 223-223h555a222 222 0 0 1 222 223v555a222 222 0 0 1-222 222z m271-107c98 0 186-38 253-108 51-53 79-109 94-183 5-24 5-91 0-119a354 354 0 0 0-135-221c-25-19-87-52-97-52-4 0-4 4-2 19 3 25 6 30 20 36 22 9 60 36 83 59a319 319 0 0 1 84 148c9 34 8 110-2 146-30 112-122 199-234 223-33 6-92 6-125 0-114-24-208-115-237-231-7-31-7-107 0-139 19-76 69-146 133-188 13-8 28-17 35-19 14-6 17-11 19-36 2-15 2-19-2-19-2 0-19 7-37 16l-2 1c-103 51-169 136-193 250-6 30-7 100-1 127 15 73 43 129 91 179 69 73 157 111 255 111z m6-117c17 0 33-2 46-4 116-26 198-142 182-258-6-46-22-84-50-120-14-18-48-48-54-48-1 0-2 12-2 26v25l17 20c65 79 61 188-11 260-27 28-59 44-101 52-26 5-32 5-60 0-42-7-75-23-105-52-71-71-76-181-11-260l18-20v-26c0-14-1-25-3-25-1 0-11 7-21 15l-2 1c-34 27-65 76-78 124-7 29-7 85 1 114 21 78 78 139 158 167 17 6 48 9 76 9z m-5-125c13 0 25-2 35-7 20-11 37-31 43-52 19-66-50-124-113-94h-1c-30 13-46 39-46 73 0 31 17 57 46 73 10 5 23 7 36 7z m-1-197c41 1 71-14 82-40 8-19 5-81-9-179-10-69-15-87-28-99-19-16-45-20-69-12h0c-30 11-37 26-49 111-14 98-17 160-9 179 11 26 41 40 82 40z" horiz-adv-x="1000" />

<glyph glyph-name="appletv" unicode="&#xe809;" d="M857 111h-75l-140 384h68l85-250c3-10 11-37 24-84l12 42 14 42 87 250h68z m-223 3a240 240 0 0 0-64-9c-51 0-77 29-77 87v256h-44v47h47v60l61 25v-86h71v-46h-70v-242c0-19 3-31 8-39 6-7 17-11 32-11 8 0 20 2 37 5z m-303 222c0-73 64-98 65-98-1-2-10-35-34-69-20-30-41-59-74-60-33-1-43 19-81 19-37 0-48-18-79-20-32-1-56 33-77 62-42 61-74 171-31 245 22 37 60 61 101 61 31 1 61-21 81-21 19 0 55 26 93 22 15-1 60-7 89-48-3-1-54-31-53-93m-61 181c16 21 28 49 25 78-24-1-54-16-72-37-16-18-29-47-26-75 28-2 56 14 73 34z" horiz-adv-x="1000" />

<glyph glyph-name="huawei" unicode="&#xe80a;" d="M153 594s-77-74-81-151v-15c3-63 51-100 51-100 76-75 260-168 304-190 0 0 2-1 4 1l1 1v2c-119 258-279 452-279 452z m249-519c-1 3-4 3-4 3l-308-10c34-60 90-106 149-92 40 10 131 74 161 96 3 2 2 3 2 3z m3 33c-135 91-396 230-396 230-6-19-9-37-9-54v-3c0-44 17-76 17-76 33-70 97-91 97-91 29-13 59-13 59-13 5-1 183 0 230 0 2 0 4 2 4 2v2c0 2-2 3-2 3z m-27 609a143 143 0 0 1-108-131v-17c2-25 7-44 7-44 28-121 161-319 190-360 2-2 4-2 4-2a4 4 0 0 1 2 5c45 441-46 559-46 559-13-1-49-10-49-10z m345-94s-20 75-101 95c0 0-24 5-49 9 0 0-91-117-47-560 1-3 3-3 3-3 3-1 4 1 4 1 30 43 162 240 190 360 0 0 15 58 0 98z m-121-545s-3 0-4-2c0 0 0-3 1-4 29-22 119-84 162-96 0 0 7-2 18-3h6c28 1 79 16 125 95l-309 10z m326 350c6 86-81 166-81 166 0 0-160-194-278-450 0 0-1-3 1-5l2-1h2c44 22 228 116 304 190 0 0 47 38 50 100z m63-89s-261-140-396-231c0 0-2-2-2-5 0 0 2-2 3-2 49 0 232 0 237 1 0 0 23 1 52 12 0 0 65 21 99 94 0 0 31 61 7 131z" horiz-adv-x="1000" />

<glyph glyph-name="motorola" unicode="&#xe80b;" d="M500 850c-276 0-500-224-500-500s224-500 500-500 500 224 500 500c0 276-224 500-500 500h0z m305-753s-24 110-63 175c-22 36-55 65-99 64-31 0-58-18-92-65-19-32-36-65-51-100 0 0-12 28-26 56a335 335 0 0 1-26 44c-33 47-60 64-91 65-44 0-77-29-99-64-39-66-63-175-63-175h-36l192 630 148-492 1-1 1 1 148 492 192-630h-36z" horiz-adv-x="1000" />

<glyph glyph-name="lg" unicode="&#xe80c;" d="M220 570a220 220 0 1 1 0-440 220 220 0 0 1 0 440z m0-36c2 0 7 0 9 0v-17a609 609 0 0 1-9 0 166 166 0 0 1-118-49 166 166 0 0 1-49-118c0-44 18-86 49-118a166 166 0 0 1 118-49 168 168 0 0 1 167 156v2h-114v18h124l8 0v-9a183 183 0 0 0-54-130 183 183 0 0 0-131-54c-49 0-95 19-130 54a183 183 0 0 0-54 130 185 185 0 0 0 184 185z m670-36c-92 0-141-50-141-146 0-96 44-147 140-147 44 0 88 11 111 27v139h-114v-54h53v-49c-9-4-29-8-47-8-59 0-79 30-79 91 0 59 19 93 78 93 33 0 52-10 67-30l41 37c-25 36-68 47-109 47z m-351-4v-285h202v55h-136v230z m-389-47a27 27 0 1 0 0-53 27 27 0 0 0 0 53z m62 0h17v-176h44v-17h-61z" horiz-adv-x="1000" />

<glyph glyph-name="lgtm" unicode="&#xe80d;" d="M500 647c-121 0-224-28-291-88-2 4-4 7-6 11-7 11-14 24-34 37a113 113 0 0 1-43 16 89 89 0 0 1-19 0l4 1c-38 0-60-23-75-43-14-19-23-41-29-65-12-48-12-111 34-157 23-25 52-36 77-43 5-1 9-2 14-3 17-79 66-145 132-182v0h0c39-22 75-32 103-43 38-14 79-31 126-35l3 0h6c54 0 96 22 131 35 28 11 65 21 104 42a257 257 0 0 1 49 37 282 282 0 0 1 82 144 163 163 0 0 1 92 48c45 46 45 109 33 157-6 24-15 46-29 65-15 20-37 43-75 43l4-1a89 89 0 0 1-19 0 112 112 0 0 1-42-16c-21-13-28-26-35-37-2-4-4-7-6-10-67 59-169 87-291 87z m1-57c149 0 251-44 294-124 27 11 46 79 68 93 17 10 27 8 27 8 40 0 81-117 30-168-27-28-76-35-101-33-2-80-48-152-109-186-31-17-65-27-96-38-38-15-74-32-111-32h-4c-36 3-72 17-111 32-31 11-64 21-95 38-61 35-107 106-109 186-25-3-75 5-102 33-51 51-10 168 30 168 0 0 10 2 28-8 21-14 41-83 67-93 44 80 146 124 294 124z m-161-97a127 127 0 1 1 0-254 127 127 0 0 1 0 254z m323 0a127 127 0 1 1 0-254 127 127 0 0 1 0 254z m-305-71a57 57 0 0 0 0-113 57 57 0 0 0-55 70 24 24 0 0 1 46 9 24 24 0 0 1-23 24 56 56 0 0 0 32 10z m287 0a57 57 0 0 0 0-113 57 57 0 0 0-55 70 24 24 0 1 1 23 33 56 56 0 0 0 32 10z m-165-194c-10-1-16-6-16-20 0-9 6-15 16-15a6 6 0 0 1 1 12c0 0-5 2-5 5 0 4 0 6 8 7 3 0 5 4 4 7-1 3-4 4-8 4z m43 0c-4 0-7-1-8-4-1-3 1-7 4-7 8-1 8-3 8-7 0-3-5-5-6-5a6 6 0 0 1 2-12c10 0 15 6 15 15 0 14-5 19-15 20z" horiz-adv-x="1000" />

<glyph glyph-name="hitachi" unicode="&#xe80e;" d="M741 375h-43a36 36 0 0 1-2 11 30 30 0 0 1-19 18 59 59 0 0 1-38-1 37 37 0 0 1-22-22 97 97 0 0 1-2-59 37 37 0 0 1 22-25 62 62 0 0 1 41-1 29 29 0 0 1 18 16 41 41 0 0 1 3 17h43a92 92 0 0 0-2-15c-4-15-14-28-28-34a136 136 0 0 0-94-4c-20 6-37 20-44 40a99 99 0 0 0-6 33c0 16 3 31 11 44 8 14 20 24 35 30a128 128 0 0 0 97-3 50 50 0 0 0 29-36c1-3 1-6 1-9z m-166-102h-45l-13 33h-77c0 0-13-33-13-33h-45l72 154c0 0 50 0 50 0l71-154z m229 0h-41s0 154 0 154h41v-62h82c0 0 0 62 0 62h41s0-154 0-154h-41v68c0 0-82 0-82 0 0 0 0-68 0-68z m-763 0h-41s0 154 0 154h41s0-62 0-62h82c0 0 0 62 0 62h41s0-154 0-154h-41v68c0 0-82 0-82 0 0 0 0-68 0-68z m314 0h-41v128h-62s0 26 0 26c0 0 165 0 165 0v-26h-62v-128z m-159 154h41v-154h-41v154z m763 0h41v-154h-41v154z m-480-26l-29-70h57l-28 70z" horiz-adv-x="1000" />

<glyph glyph-name="amd" unicode="&#xe80f;" d="M764 469l65-65h106v-106l65-65v236z m-681-16l-83-206h55l15 41h93l17-41h55l-92 206z m176 0v-206h51v129l56-65h8l56 65v-129h51v206h-45l-66-76-66 76z m262 0v-206h85c83 0 120 43 120 103 0 56-39 103-114 103z m51-38h33c49 0 68-29 68-65 0-30-15-65-67-65h-34z m-458-11l33-80h-63z m714-13l-66-66v-94h93l67 67h-94z" horiz-adv-x="1000" />

<glyph glyph-name="beatport" unicode="&#xe810;" d="M153 101a387 387 0 0 0-37 314 23 23 0 0 1-14 28l-52 16a23 23 0 0 1-28-15h0a486 486 0 0 1 47-393h0a23 23 0 0 1 30-8l47 28a23 23 0 0 1 7 30z m847 198c0 50-7 98-22 145h0l0 0 0 1a23 23 0 0 1-28 14l-51-16a23 23 0 0 1-15-28l0 0c11-37 17-76 17-116a385 385 0 0 0-54-198 23 23 0 0 1 8-30l46-28a23 23 0 0 1 30 8 484 484 0 0 1 69 248m-137-2c0 201-163 363-363 363-200 0-363-162-363-363 0-92 35-180 99-248a23 23 0 0 1 31-1l39 37a23 23 0 0 1 1 32 263 263 0 0 0-71 180 264 264 0 0 0 264 265 265 265 0 0 0 264-265c0-67-25-131-71-180l0 0a23 23 0 0 1 1-32l39-37a23 23 0 0 1 32 1h0a362 362 0 0 1 98 249z" horiz-adv-x="1000" />

<glyph glyph-name="beats" unicode="&#xe811;" d="M109 850v-625h344a313 313 0 0 1 0 625z m709-488c-65-136-204-230-365-230h-344v-282h469a313 313 0 0 1 240 512z" horiz-adv-x="1000" />

<glyph glyph-name="adobe" unicode="&#xe812;" d="M582-93l-70 179h-174l163 381 236-560z m-212 886h-370v-886z m630 0h-370l370-886z" horiz-adv-x="1000" />

<glyph glyph-name="amazon" unicode="&#xe813;" d="M2 99c3 5 8 5 14 1 152-88 317-132 495-132 119 0 236 22 352 67l13 6c6 2 10 4 12 5 10 4 17 2 22-5 5-8 4-14-5-20-10-8-25-18-42-28-52-31-110-55-174-72a734 734 0 0 0-456 24 745 745 0 0 0-227 140c-4 3-6 6-6 9 0 2 1 4 2 6z m273 259c0 42 11 78 31 108 21 29 49 52 85 67 34 14 74 24 122 30 16 2 43 4 80 7v16c0 38-5 65-13 78-12 18-32 27-60 27h-7c-20-2-38-8-52-19-15-12-24-27-28-46-3-12-9-19-18-21l-105 13c-11 2-16 7-16 16 0 2 0 4 1 6 10 54 36 94 76 120 40 26 87 41 141 44h23c68 0 123-18 162-54 5-6 11-12 16-20 5-6 10-13 12-18 3-6 6-14 8-24 3-11 5-18 6-21 1-5 3-13 3-26 1-13 1-21 1-23v-220c0-16 2-30 7-43 4-13 9-23 13-28l21-28c4-6 6-11 6-15 0-5-3-10-8-13-50-44-77-68-81-72-7-5-16-6-27-2a253 253 0 0 0-22 21l-13 15a391 391 0 0 0-13 17l-12 18c-34-37-67-60-100-69-21-6-46-10-76-10-47 0-85 15-115 43-30 29-45 70-45 123l-3 3z m157 19c0-24 6-43 18-57 11-14 28-22 48-22 2 0 4 1 8 1 4 1 5 1 7 1 25 7 45 23 59 49 7 12 12 24 15 38 4 14 5 25 6 34 0 8 0 22 0 41v23c-35 0-62-3-80-8-53-15-80-48-80-101l-1 1z m382-293c1 2 3 4 5 7 15 10 30 17 44 21a337 337 0 0 0 67 10c6 0 12 0 17-2 27-2 44-7 49-13 3-4 4-10 4-17v-6c0-21-6-46-18-75-11-29-27-52-48-70-3-2-6-4-8-4-1 0-2 0-4 1-3 2-4 5-2 10 22 52 33 89 33 110 0 6-1 11-3 14-6 7-23 11-51 11-11 0-23-1-37-2-15-2-29-4-41-6-4 0-7 1-8 2-1 2-1 2-1 3 0 1 1 2 1 3v3z" horiz-adv-x="1000" />

<glyph glyph-name="amazonalexa" unicode="&#xe814;" d="M500 850c-276 0-500-224-500-500 0-254 189-463 433-496v100a66 66 0 0 1-45 64 350 350 0 0 0-238 340 349 349 0 0 0 354 342 350 350 0 0 0 346-363l0-3a362 362 0 0 0-2-16c0-3 0-5 0-8 0-3-1-7-1-10l-1-4c-43-282-411-441-413-442 22-3 45-4 67-4 276 0 500 224 500 500s-224 500-500 500z" horiz-adv-x="1000" />

<glyph glyph-name="amazonaws" unicode="&#xe815;" d="M282 432c0-12 1-22 4-30 2-7 6-15 10-24 2-2 3-5 3-7 0-4-2-7-7-10l-21-14a16 16 0 0 0-8-3c-4 0-7 1-10 4a103 103 0 0 0-12 16 258 258 0 0 0-11 20c-26-31-58-46-97-46-28 0-51 8-67 24-16 16-25 37-25 64 0 28 10 51 31 68 20 17 47 26 81 26 11 0 23-1 35-3 13-1 25-4 39-7v24c0 26-6 43-16 54-11 10-29 15-54 15-12 0-24-1-36-4-12-3-24-7-36-12a95 95 0 0 0-12-4 20 20 0 0 0-5-1c-5 0-7 3-7 10v16c0 6 1 10 2 12a25 25 0 0 0 10 7c11 6 25 11 42 15a202 202 0 0 0 51 6c40 0 69-9 88-27 18-17 27-45 27-81v-108z m-135-51c11 0 22 2 34 6 12 4 23 12 32 22 5 6 9 13 11 21 2 8 3 18 3 29v14a278 278 0 0 1-30 5 251 251 0 0 1-32 2c-22 0-38-4-49-13-11-9-16-21-16-38 0-16 4-27 12-35 8-9 20-13 35-13z m267-36c-6 0-10 1-13 4-2 2-5 6-7 13l-78 257a58 58 0 0 0-3 13c0 5 3 8 8 8h33c6 0 10-1 13-3 2-2 4-7 6-13l56-220 52 220c2 7 4 11 6 13a23 23 0 0 0 14 3h26c7 0 11-1 14-3 2-2 5-7 6-13l52-223 58 223c2 7 4 11 7 13a22 22 0 0 0 13 3h31c5 0 8-2 8-8 0-2 0-3-1-5a47 47 0 0 0-2-9l-80-257c-2-6-5-11-7-13a21 21 0 0 0-13-3h-28c-7 0-11 1-14 3-2 3-5 7-6 14l-52 214-51-214c-2-7-4-11-6-13-3-3-8-4-13-4z m427-9c-17 0-34 2-51 6-17 4-30 9-38 14-6 3-9 6-10 9a24 24 0 0 0-2 9v17c0 7 2 11 7 11 2 0 4-1 6-1 2-1 5-2 8-4 12-5 24-9 37-11 13-3 26-4 40-4 21 0 37 3 48 11a36 36 0 0 1 17 31 32 32 0 0 1-8 24c-6 6-18 11-34 17l-48 15c-25 7-43 19-54 34a79 79 0 0 0-16 48c0 14 3 26 9 37 6 10 14 20 24 27 10 8 21 13 34 17 14 4 28 6 42 6 8 0 15 0 23-1 7-1 14-3 21-4 7-2 13-3 19-5 6-2 11-4 14-6a29 29 0 0 0 10-9 18 18 0 0 0 3-11v-15c0-7-3-11-8-11a35 35 0 0 0-12 4 152 152 0 0 1-64 13c-19 0-34-3-44-9-11-6-16-16-16-30 0-9 3-17 10-23 7-7 19-13 37-19l47-15c24-7 41-18 51-32 11-13 16-29 16-46 0-14-3-27-9-39-6-11-14-21-24-29-11-8-23-14-37-19-15-4-31-7-48-7z m63-161c-109-81-268-124-405-124-192 0-364 71-495 189-10 9-1 22 12 14 141-82 315-131 495-131 121 0 254 25 377 77 18 8 34-12 16-25z m46 52c-14 18-93 8-128 4-11-1-13 8-3 15 63 44 165 31 177 17 12-15-3-118-62-167-9-8-17-4-13 6 13 33 43 107 29 125z" horiz-adv-x="1000" />

<glyph glyph-name="android" unicode="&#xe816;" d="M730 211c-23 0-41 19-41 41s18 42 41 42c23 0 42-19 42-42 0-22-19-41-42-41m-460 0c-23 0-42 19-42 41s19 42 42 42c23 0 42-19 42-42 0-22-19-41-42-41m475 251l83 144a17 17 0 0 1-6 23 17 17 0 0 1-24-6l-84-146c-64 30-137 46-214 46s-150-16-214-46l-84 146a17 17 0 0 1-24 6 17 17 0 0 1-6-23l83-144c-143-78-241-223-255-394h1000c-14 171-112 316-255 394" horiz-adv-x="1000" />

<glyph glyph-name="androidauto" unicode="&#xe817;" d="M500 850c-25 0-46-13-58-33l-422-734a67 67 0 0 1 58-100h83l321 566 18 32 339-598h83a67 67 0 0 1 58 100l-422 734a67 67 0 0 1-58 33z m0-311l-378-667 23-22 355 133 355-133 23 22z" horiz-adv-x="1000" />

<glyph glyph-name="audio-technica" unicode="&#xe818;" d="M500 850a500 500 0 0 1-499-499 501 501 0 0 1 499-501 501 501 0 0 1 499 501 500 500 0 0 1-499 499z m0-38a462 462 0 0 0 462-461c0-255-207-463-462-463a463 463 0 0 0-462 463 462 462 0 0 0 462 461z m4-48l-18-52-237-669-8-26h527l-9 26-237 669z m0-116l83-236-126-356h-167z m104-294l105-298h-212z" horiz-adv-x="1000" />

<glyph glyph-name="audiomack" unicode="&#xe819;" d="M14 376s22 4 32-6c9-10 3-30-9-30-13-1-24-3-32 6-9 8-6 26 9 30m245-137c-2-1-5 1-7 2-16 23-22 100-29 105-8 4-36-43-91-38-24 2-47 17-61 27 1 18 1 59 36 46 21-8 57-31 88 9 35 44 55 31 66 22 12-10 4-60 21-46 17 14 87 101 87 101s54 54 62-3c8-57 43-120 53-118 9 1 117 221 133 236 15 14 67 12 65-24-3-37-8-263-8-263s-6-64 4-30c4 14 9 27 14 42 27 85 72 231 95 307 5 18 10 33 13 45l0 0a150 150 0 0 0 4 14c2 6 4 11 4 12 1 3 4 5 8 6 4 3 8 3 13 3 13 1 29 0 43-5 5 0 9-1 14-4v0s0 0 0-1c0 0 0 0 0 0 1-1 3-2 5-4 0 0 0 0 0-1 0 0 1-1 2-3 8-11 13-33 8-72-13-98-22-298-22-298s-2-10 18 33c1 1 2 2 2 4 1 0 3 1 4 3 13 15 46 24 69 24 10-2 18-4 23-7 9-14 3-65 3-65-19-2-55-12-68-14-13-2-33-87-60-78-28 9-89 47-89 52 0 5 5 61 6 75 0 1 0 2 0 3a6 6 0 0 0 0 1l0 0c1 11 0 16-5 5-4-10-24-73-46-141-2-6-44-131-49-146-7-18-12-32-16-39-6-8-13-12-24-9-27 8-61 45-62 54 0 52 3 333-10 309-13-24-113-190-113-190-2 0-3 0-5 0-7 1-18 3-21 10 0 0-1 0-1 1 0 0 0 1 0 2-2 4-2 9-3 13-5 15-12 37-20 59-11 38-23 77-25 81-4 9-10 5-15 0-22-19-70-103-113-108" horiz-adv-x="1000" />

<glyph glyph-name="amazondynamodb" unicode="&#xe81a;" d="M692-13v99c-53-45-162-75-294-75-133 0-242 30-295 75v-99c0-48 121-103 295-103 173 0 294 55 294 103z m0 282l34 0v0c0-21-11-41-31-60 25-22 31-44 31-60a69238 69238 0 0 1 0-162c0-78-141-137-328-137-187 0-327 58-329 136a24297 24297 0 0 0 0 163c0 16 6 38 31 60-25 22-31 44-31 60v162c0 16 6 38 31 60-25 22-31 44-31 60 0 56 0 114 0 162 1 78 142 137 329 137 90 0 176-15 237-41l-14-31c-56 24-138 37-223 37-174 0-295-54-295-102 0-49 121-103 295-103 4 0 9 0 13 0l2-35c-5 0-10 0-15 0-133 0-242 30-295 75v-99c0-19 19-35 34-46 47-30 130-51 223-56l-2-34c-94 4-176 24-229 55-13-10-26-24-26-39 0-49 121-103 295-103 17 0 33 0 50 2l2-35c-17-1-35-2-52-2-133 0-242 30-295 75v-99c0-19 19-35 34-46 53-35 153-56 261-56h7v-35h-7c-110 0-208 21-269 57-13-11-26-24-26-40 0-49 121-103 295-103 173 0 294 54 294 103v0c0 16-13 29-26 39a239 239 0 0 0-27-14l-14 32c13 6 24 11 33 17 15 11 34 28 34 46z m182 288h-113a17 17 0 0 0-14 8 18 18 0 0 0-2 15l50 150h-225l-108-207h110c5 0 10-3 13-7a17 17 0 0 0 3-15l-94-349z m52 6l-453-484a17 17 0 0 0-21-3 17 17 0 0 0-8 20l106 392h-116a17 17 0 0 0-14 9 17 17 0 0 0-1 17l126 241a17 17 0 0 0 15 10h259c5 0 11-3 14-8a18 18 0 0 0 2-15l-50-150h129c7 0 13-4 16-11a18 18 0 0 0-4-18z m-797-577a338 338 0 0 1 71-30l10 34a305 305 0 0 0-64 27z m71 250l10 33a303 303 0 0 0-64 27l-17-30a336 336 0 0 1 71-30z m-71 309l17 30c17-10 39-19 64-27l-10-33a335 335 0 0 0-71 30z" horiz-adv-x="1000" />

<glyph glyph-name="androidstudio" unicode="&#xe81b;" d="M500 850c-247 0-448-201-448-448 0-137 62-260 159-342l188 325-16 16c-5 5-7 9-8 13a10 10 0 0 0 0 1h0v107c0 26 21 47 47 47h26v84h104v-84h26c26 0 47-21 47-47v-106h0v-1h0c0-3-2-8-7-13l-1-1-16-16 81-139a240 240 0 0 1 58 156h83a323 323 0 0 0-98-231l64-111a447 447 0 0 1 159 342c0 248-200 448-448 448z m289-790a450 450 0 0 0-69-48l63-109a24 24 0 0 1 9-9l62-43c3-1 6-1 8 0a8 8 0 0 1 4 7l-7 75a29 29 0 0 1-4 12l-66 115z m-69-48l-62 108a321 321 0 0 0-158-41 321 321 0 0 0-157 41l-62-108a445 445 0 0 1 219-58c80 0 155 21 220 58z m-439 0a450 450 0 0 0-70 48l-66-115a29 29 0 0 1-4-11l-6-76c0-3 2-5 4-7 2-2 5-1 8 0l62 43a32 32 0 0 1 8 8z m219 516v-1a62 62 0 0 1-62-62 63 63 0 0 1 62-63h0a63 63 0 0 1 63 63 63 63 0 0 1-63 62z m-39-204l-76-131a238 238 0 0 1 115-30 235 235 0 0 1 115 29l-76 131-15-15a32 32 0 0 0-24-10h0a33 33 0 0 0-24 10z" horiz-adv-x="1000" />

<glyph glyph-name="amazonlumberyard" unicode="&#xe81c;" d="M547 683a94 94 0 0 1-18-2 89 89 0 0 1-72-91c-3-3-6-5-9-8l-9-9c-5-6-11-11-17-17-12-12-24-23-36-34-24-22-49-45-72-71a304 304 0 0 1-30-43 204 204 0 0 1-27-74 155 155 0 0 1-2-14l0-3-1-3 0-6 0-2 0-2v-3l0-7 0-6c-36 12-88 20-132 19-52 0-89-11-108-31a48 48 0 0 1-14-35c2-40 47-63 121-63h5c52 1 115 14 150 32a86 86 0 0 0 3-46 69 69 0 0 0-7-19 60 60 0 0 0-13-15 60 60 0 0 0-18-10 76 76 0 0 0-20-5l2-26h0c54-32 66-68 73-71 8-4 42 8 36 36-4 16-23 28-41 35 4 1 7 1 10 2a22 22 0 0 1 2 0l3 0 2 1a225 225 0 0 1 9 2l1 0c51 10 96 29 133 55 38-24 79-59 92-90-1-5-5-11-10-11l14-26c43 22 75 10 96 0l8-4c1-1 0 0 1-1l4 2c6 3 22 18 18 34-5 19-17 26-29 24-12-3-42-21-40-3l0 0c2 14 4 38 0 66-7 52-30 92-66 118a146 146 0 0 1 5 25c26-9 51-16 83-19 11-1 37-1 57-1l2-10a0 0 0 0 1 1 0l11 4a21 21 0 0 0 3 1c1 0 1 0 1-1 0-2-1-5-1-6l-2-12-2-7c0-2 2-4 5-2 3 1 6 3 6 3 19 7 39 18 57 26 9 4 13 13 14 21a52 52 0 0 1 0 17l29-3 0 1 9 23 24-3 9 23 24-2 9 23 24-3 9 23 24-2 9 23 24-2 9 23 14-2 4 21 0 1-12 59-350-138a1 1 0 0 1 0-2l16-16c0 0 0-1 1 0l7 2a4 4 0 0 0 6-2l4-10s0-1-2-1l-2 0a293 293 0 0 0-9 0 143 143 0 0 0-15 2c-3 1-6 2-8 2-3 1-5 2-8 2l-7 3-8 3a187 187 0 0 0-14 7c-2 2-5 3-7 4a472 472 0 0 0-21 14c-5 4-9 7-14 10l-1 1c5 62 22 87 35 98a34 34 0 0 0 15 7 76 76 0 0 1-1-16l18-1 1 5c0 1 1 3 1 4 1 2 1 3 2 4 0 2 1 3 2 5 0 1 1 2 2 4 0 1 1 2 2 4 1 2 3 5 5 8l5 9c2 3 4 6 5 10 1 1 2 3 3 5 0 2 1 4 2 6l1 3 1 1 0 1 1 3 0 1 0 0 0 1 1 2 0 1v1c0 1 0 1 0 3a10 10 0 0 1-1 1l0 1a61 61 0 0 1-17 25 92 92 0 0 1-9 7l6 0c7 0 12 0 15 0 4 0 6 0 6 0l2 22s-2 0-6 1a330 330 0 0 1-14 2l-3 0 2 1a94 94 0 0 1-91 73z m5-27a68 68 0 0 0 58-44l-16 1a864 864 0 0 1-24 1 830 830 0 0 1-22 1l-8 0c-3 0-5 0-7 0l-5-1v0c-1 0-2 0-3 0a130 130 0 0 1-41-9 62 62 0 0 0 25 40c1 0 2 0 2 0 1 0 3 0 4 1 1 0 2 0 4 0h5c1 0 3-1 5-1 1 0 3 0 5-1 2 0 3-1 5-1a42 42 0 0 0 5-2c1-1 3-2 4-3 1 0 3-1 4-2a48 48 0 0 0 6-5 1 1 0 0 0 0-1l11 8 0 1a62 62 0 0 1-7 8c-1 2-3 3-4 4-2 1-3 3-5 4z m-20-68h2l3 0c8-1 16-2 23-3 15-3 30-8 43-15 7-3 13-7 18-12a38 38 0 0 0 9-12l-1 0 0-2 0 0-1-2c0-2-1-3-2-5 0-1-1-2-1-4-1-1-2-3-3-4l-2-5a280 280 0 0 1-4-9l-1-2c-5 1-22 2-40-12-23-18-38-52-44-102-1 0-2 1-3 2a431 431 0 0 1-15 9l-8 5-8 4a253 253 0 0 1-33 15 122 122 0 0 1-8 3 146 146 0 0 1-9 2c-3 1-6 2-9 2l-8 2-4-13c6-2 11-4 16-6 3-1 5-2 8-3a232 232 0 0 0 22-12 279 279 0 0 0 15-8l7-5 7-4 7-5 7-5c4-4 9-7 13-11l14-11c9-7 18-14 28-21 3-2 5-4 8-5a193 193 0 0 1 24-14c3-1 6-2 9-4 3-1 6-2 9-3 3-1 6-2 9-2 3-1 6-2 9-2 7-2 13-2 19-3 3 0 7 0 10 0l4 0a24 24 0 0 1 10 3l2 1s2 1 4 3a39 39 0 0 0 6 4 21 21 0 0 0 7 4 12 12 0 0 0 7-1c0 0 1 0 1 0a16 16 0 0 0 2-1l0 0a38 38 0 0 0 0-3 38 38 0 0 0 0-8 30 30 0 0 0-12-21l0 0a66 66 0 0 0-3-2c-1-1-2-1-4-2-1 0-2-1-3-1l-4-2a153 153 0 0 0-1 10 743 743 0 0 0-54 1c-37 3-63 13-96 25a952 952 0 0 1-75 25 37 37 0 0 1-47-25c-3-11-4-26 0-44 10-53 10-95 1-115a357 357 0 0 0-100-36h-1l-3-1-6-1a181 181 0 0 0-18-2 88 88 0 0 1 11 15c5 8 8 17 10 27a112 112 0 0 1-4 62c-1 2-2 5-3 7-1 2-2 4-3 6l-2 6a117 117 0 0 0-8 21 150 150 0 0 0-3 22 180 180 0 0 0-1 12l0 6v4l0 1 0 6 1 4 0 2c0 4 1 8 1 12a177 177 0 0 0 24 65c8 13 17 26 27 38 21 24 46 47 70 69 12 12 24 23 37 35 6 6 12 12 18 18l1 1 1-2c2-2 5-5 8-8 3-3 7-6 12-9a88 88 0 0 1 23-10 148 148 0 0 1 27-5 196 196 0 0 1 30 0l0 12a184 184 0 0 0-28 3 131 131 0 0 0-23 8 61 61 0 0 0-6 3 66 66 0 0 0-10 7 50 50 0 0 0-8 7c-2 3-3 5-4 7-1 1-2 3-2 4 0 0-1 0-1 0l3 2 2 1a104 104 0 0 0 31 10 106 106 0 0 0 17 2z m21-21c-9 0-16-5-16-11 1-6 8-10 17-10 10 1 17 6 16 11 0 6-8 11-17 10z m416-102l2-12a4 4 0 0 0-4-5c-1 1-3 0-3-1l-8-21-25 2-8-23-25 3-8-24-25 3-8-23-25 2-8-23-25 3-7-21a4 4 0 0 0-4-2l-2 0c-2 0-11 1-11 3l-23 52z m-251-104c8 1 13-3 17-10 0 0 20-50 20-50a15 15 0 0 0-2-18c-4-4-12-7-17-9-3-1-3 1-4 4l-2 6 1 2a60 60 0 0 1 6 19 64 64 0 0 1-1 19l0 3-1 1 0 3v0a13 13 0 0 1-4 6 54 54 0 0 1-12 7 30 30 0 0 1-5 2c-1 0-3 1-4 1a36 36 0 0 1-5 0l-1 0c-1 1-2 3-1 4a19 19 0 0 0 15 10z m-272-46l0 0a13 13 0 0 0 4 0c27-7 48-15 67-22-3-43-30-84-73-115 4 31-1 69-7 99-3 17-2 26 0 31a11 11 0 0 0 9 7z m-324-36c47 1 104-9 137-23l0-2a148 148 0 0 1 6-18c-28-15-87-30-140-30-48-1-96 10-97 36a20 20 0 0 0 6 15c13 13 46 22 88 22z m406-47c63-47 53-140 50-160l-9-2c-18 41-66 77-95 96 24 20 42 42 54 66z" horiz-adv-x="1000" />

<glyph glyph-name="amazonpay" unicode="&#xe81d;" d="M599 642c-15 13-40 20-72 20-17 0-33-1-49-4-16-3-30-7-41-12-4-2-7-3-8-5-2-2-2-6-2-10v-14c0-7 2-10 6-10a14 14 0 0 1 5 1c1 1 3 1 4 1 26 8 52 12 76 12 21 0 35-4 43-11 9-8 13-21 13-40v-34c-24 6-46 9-66 9-30 0-54-7-72-22-18-15-27-36-27-61 0-23 7-42 22-56 14-14 34-21 59-21 15 0 30 3 45 9 15 6 28 14 41 25l2-17c1-7 5-10 12-10h22c7 0 10 3 10 10v177c0 29-7 49-23 63z m-25-192c-12-8-24-15-36-19-12-5-24-7-36-7-13 0-24 3-31 10-7 8-11 18-11 31 0 30 20 45 59 45 9 0 18-1 28-2 9-1 18-3 27-5z m-208 133c-5 17-13 31-22 43-9 12-21 21-34 27-14 6-29 9-45 9-16 0-31-3-46-9-15-5-29-14-42-25l-2 16c-1 7-5 11-12 11h-23c-7 0-10-4-10-11v-348c0-7 3-11 10-11h31c6 0 10 4 10 11v121c22-21 49-31 80-31 17 0 32 4 46 10 14 7 26 16 35 29 10 12 18 26 23 44 5 17 8 36 8 58 0 21-2 40-7 56z m-117-155c-23 0-46 8-68 25v144c22 16 45 24 69 24 47 0 71-32 71-97 0-64-24-96-72-96z m542-82l114 290c2 6 4 10 4 12 0 5-3 7-8 7h-29c-5 0-9-1-11-3-2-2-4-6-6-11l-70-201-73 201c-2 5-4 9-6 11-2 2-6 3-11 3h-31c-5 0-8-2-8-7 0-2 1-6 4-12l100-247-10-26c-6-17-12-28-20-34-7-6-17-10-30-10-6 0-11 1-14 2-4 0-6 1-8 1-5 0-8-4-8-10v-14c0-5 1-8 3-10 2-3 4-4 8-5 9-3 19-4 30-4 19 0 35 5 48 16 12 10 23 27 32 51m113-184c-110-81-268-124-405-124-191 0-364 71-495 188-10 10-1 22 12 15 141-82 315-131 495-131 121 0 254 25 377 77 19 8 34-12 16-25m45 52c15-18-15-92-28-125-4-10 4-14 13-7 59 49 74 152 62 167-12 15-114 28-177-16-10-7-8-16 3-15 35 4 114 14 127-4z" horiz-adv-x="1000" />

<glyph glyph-name="amazonfiretv" unicode="&#xe81e;" d="M842 220c11-14-13-72-23-98-3-8 4-11 11-5 46 38 58 119 48 131-9 12-90 22-139-13-8-5-6-13 2-12 28 4 90 11 101-3m-36-41c-86-63-211-97-318-97-151 0-286 56-389 148-8 7 0 17 9 12 111-65 248-103 389-103 95 0 200 19 296 60 15 6 27-9 13-20m85 132a16 16 0 0 0-9 1c-2 1-3 4-5 10l-73 181a75 75 0 0 1-2 5 11 11 0 0 0-1 5c0 3 3 5 7 5h24c4 0 7-1 8-2 2-1 4-4 6-9l56-160 56 160c1 5 3 8 5 9a17 17 0 0 0 8 2h23c4 0 6-2 6-5a13 13 0 0 0-1-5c-1-2-1-3-2-5l-72-181c-2-5-4-9-5-10a16 16 0 0 0-9-1z m-152-3c-39 0-58 19-58 58v120h-30c-5 0-8 3-8 8v10a9 9 0 0 0 2 6c1 2 4 3 7 3l30 4 5 51c1 5 4 8 9 8h17c5 0 8-3 8-8v-50h53c6 0 8-3 8-8v-16c0-5-2-8-8-8h-53v-118c0-10 2-17 7-21 4-4 12-7 23-7 5 0 12 1 19 3 4 0 7 1 8 1 3 0 4-1 5-2 1-1 1-3 1-6v-11a15 15 0 0 0-2-8c-1-2-3-3-6-4a126 126 0 0 0-37-5m-195 124c1 2 1 6 1 10 0 17-4 30-12 38-8 8-19 13-34 13-17 0-30-5-40-16-10-10-15-25-16-45z m-39-128c-33 0-59 9-76 28-17 18-26 46-26 82 0 34 9 61 26 81 17 19 41 28 72 28 26 0 46-7 60-21 14-15 21-36 21-62 0-9-1-18-3-27 0-3-1-5-2-7-1-1-3-1-6-1h-128c0-24 6-41 17-52 11-11 28-17 51-17 8 0 16 1 24 2a210 210 0 0 1 28 7l5 1a12 12 0 0 0 4 1c3 0 5-3 5-8v-11c0-4-1-6-2-8a18 18 0 0 0-7-4 141 141 0 0 0-29-9 177 177 0 0 0-34-3m-226 6c-5 0-8 3-8 8v191c0 5 3 8 8 8h18c3 0 5 0 6-1 2-1 3-4 3-7l3-22c8 7 15 14 21 18a72 72 0 0 0 43 14c3 0 6 0 9-1 5 0 7-3 7-7v-22c0-5-2-7-7-7-2 0-5 0-7 0a68 68 0 0 1-8 0c-21 0-40-6-56-19v-145c0-5-2-8-8-8z m-94 0c-5 0-8 3-8 8v191c0 5 3 8 8 8h25c5 0 8-2 8-8v-191c0-5-3-8-8-8z m13 244c-8 0-14 2-19 7a24 24 0 0 0-7 18c0 7 3 13 7 17 5 5 11 7 19 7 8 0 14-2 18-7 5-4 7-10 7-17a24 24 0 0 0-7-18 25 25 0 0 0-18-7m-151-244c-6 0-9 3-9 8v167h-30c-5 0-8 3-8 9v10c0 2 1 4 2 6 1 1 4 2 7 3l29 3v34c0 45 22 68 66 68 10 0 21-1 33-4 3-1 5-2 6-4 1-2 2-5 2-9v-10c0-5-2-8-6-8-3 0-6 0-11 1-4 1-9 1-15 1-13 0-21-2-27-7-5-4-7-12-7-23v-38h55c6 0 8-2 8-8v-15c0-6-2-9-8-9h-55v-167c0-5-3-8-8-8z" horiz-adv-x="1000" />

<glyph glyph-name="bitdefender" unicode="&#xe81f;" d="M70 850v-15l52-43c61-51 69-60 69-106v-836h360c189 0 379 68 379 285 0 129-91 228-216 242v3c103 31 174 106 174 219 0 182-156 251-307 251l-511 0z m299-153h147c99 0 130-13 160-42 23-22 34-51 34-86 0-32-11-61-35-84-29-28-70-42-143-42h-163v254z m0-406h171c144 0 212-37 212-141 0-132-127-147-219-147h-164v288z" horiz-adv-x="1000" />

<glyph glyph-name="blackberry" unicode="&#xe820;" d="M85 703l-36-174h136c105 0 137 51 137 98 0 34-19 76-105 76h-132m354 0l-36-174h136c107 0 137 51 137 98 0 34-20 76-105 76h-132m324-154l-38-174h136c107 0 139 49 139 98 0 34-20 76-104 76h-133m-726-107l-37-174h137c107 0 136 52 136 98 0 34-19 76-105 76h-131m356 0l-39-174h136c108 0 140 52 140 98 0 34-20 76-105 76h-132m319-164l-36-173h137c104 0 136 49 136 98 0 34-20 75-105 75h-132m-370-107l-37-174h137c104 0 136 52 136 98 0 34-19 76-105 76h-131z" horiz-adv-x="1000" />

<glyph glyph-name="bluetooth" unicode="&#xe821;" d="M500 850c-218 0-369-104-369-500s151-500 369-500c218 0 369 104 369 500s-151 500-369 500z m-32-70l259-259-171-171 171-171-259-259v342l-143-143-52 52 179 179-179 179 52 52 143-142v341z m72-177v-165l83 82-83 83z m0-341v-165l83 83-83 82z" horiz-adv-x="1000" />

<glyph glyph-name="co-op" unicode="&#xe822;" d="M970 631c0 35-6 71-15 106-14 42-45 77-85 92a385 385 0 0 1-254 0 132 132 0 0 1-84-92 397 397 0 0 1 0-211c13-43 45-77 84-92a335 335 0 0 1 127-20c44 0 86 8 127 20a132 132 0 0 1 85 92c9 34 15 69 15 105z m-138 0c0-17-3-36-8-51-7-22-26-39-49-45a176 176 0 0 0-66 0 61 61 0 0 0-49 45 168 168 0 0 0 0 104c7 22 26 39 49 45a176 176 0 0 0 66 0 62 62 0 0 0 49-45c5-19 8-37 8-53m-364-575a398 398 0 0 1 0 212c-14 42-45 76-85 91a385 385 0 0 1-254 0 132 132 0 0 1-84-91 398 398 0 0 1 0-212c13-42 45-76 84-91a385 385 0 0 1 254 0 141 141 0 0 1 85 91m-123 105c0-16-3-35-8-50a69 69 0 0 0-50-45 177 177 0 0 0-65 0 62 62 0 0 0-49 45 168 168 0 0 0 0 103 68 68 0 0 0 49 45 175 175 0 0 0 65 0 62 62 0 0 0 50-45c5-17 8-35 8-53m0 471h138c0 36-6 71-15 105-14 42-45 77-85 92a385 385 0 0 1-254 0c-42-17-73-51-84-93a398 398 0 0 1 0-212c13-42 45-76 84-91 41-15 83-21 127-21 44 0 86 9 127 21a132 132 0 0 1 85 91c1 6 2 13 5 18l-130 60c-1-8-2-15-5-23-7-22-26-40-49-45a177 177 0 0 0-66 0 62 62 0 0 0-49 45 168 168 0 0 0 0 104c7 21 26 39 49 45a177 177 0 0 0 66 0 62 62 0 0 0 49-45c4-18 7-35 7-51m184-366a393 393 0 0 1-15-106v-310h138v311c0 17 3 36 8 51 7 22 26 39 49 45a175 175 0 0 0 66 0 62 62 0 0 0 49-45 168 168 0 0 0 0-104c-7-22-26-40-48-45a175 175 0 0 0-65 0c-5 1-10 3-14 4l46-128c44 0 86 8 127 20a132 132 0 0 1 85 92 398 398 0 0 1 0 211c-14 43-45 77-85 92a385 385 0 0 1-254 0c-42-11-73-45-87-88" horiz-adv-x="1000" />

<glyph glyph-name="dropbox" unicode="&#xe823;" d="M250 775l-250-159 250-160 250 160-250 159z m500 0l-250-159 250-160 250 160-250 159z m-750-478l250-159 250 159-250 159-250-159z m750 159l-250-159 250-159 250 159-250 159z m-500-371l250-160 250 160-250 159-250-159z" horiz-adv-x="1000" />

<glyph glyph-name="electron" unicode="&#xe824;" d="M501 850c-36 0-65-29-65-64 0-36 29-64 65-64 24 0 46 14 56 34 93-52 161-228 161-431 0-87-12-169-35-241a13 13 0 0 1 9-16 13 13 0 0 1 17 8c23 74 36 160 36 249 0 216-74 403-180 458 0 1 0 2 0 3 0 35-29 64-64 64z m0-27a37 37 0 1 0 0-74 37 37 0 1 0 0 74z m-229-179c-86 0-152-28-183-81-31-54-22-124 21-200a13 13 0 0 1 24 14c-39 68-47 129-22 172 34 60 127 82 247 60a13 13 0 0 1 5 26c-32 6-63 9-92 9z m460-1a13 13 0 0 1 0-27c76-1 132-24 156-67 34-60 8-150-71-244a13 13 0 0 1 1-19 13 13 0 0 1 19 2c86 101 116 203 75 274-31 52-95 80-180 81z m-112-12a13 13 0 0 1-3 0c-77-17-159-49-238-95-191-110-317-271-307-390-20-11-33-32-33-57 0-35 29-64 64-64 35 0 64 29 64 64 0 36-29 65-64 65-2 0-3-1-5-1-4 107 115 256 294 360 77 44 156 75 231 91a13 13 0 0 1-3 27z m-120-260a47 47 0 0 1-9-1c-25-5-41-30-36-55 6-25 30-41 55-36 25 6 41 30 36 55-5 22-24 37-46 37z m-311-77a13 13 0 0 1-10-3 13 13 0 0 1-1-19c53-58 122-113 200-158 184-106 380-137 482-77a64 64 0 0 1 37-12c36 0 64 29 64 64 0 36-28 65-64 65-35 0-64-29-64-65 0-11 3-22 8-31-93-51-276-21-449 79-76 44-143 97-194 153a13 13 0 0 1-9 4z m-86-167a37 37 0 1 0 0-75 37 37 0 1 0 0 75z m794 0a37 37 0 1 0 0-75 37 37 0 0 0-24 9c0 0 0 1-1 1a13 13 0 0 1-4 4 37 37 0 0 0 29 61z m-583-57a13 13 0 0 1-14-18c45-125 118-202 201-202 60 0 115 41 158 113a13 13 0 0 1-4 18 13 13 0 0 1-19-4c-39-65-86-100-135-100-69 0-134 68-175 184a13 13 0 0 1-12 9z" horiz-adv-x="1000" />

<glyph glyph-name="epson" unicode="&#xe825;" d="M692 270c-42 0-59 40-59 80 0 41 16 80 59 80 43 0 60-39 60-80 0-40-17-80-60-80m0 200c-67 0-107-50-107-120s40-120 107-120c68 0 107 50 107 120s-39 120-107 120z m-692-6h170v-41h-122v-50h114v-40h-114v-56h122v-40h-170v227z m280-119h-42v78h42c30 0 50-13 50-39 0-26-20-39-50-39m-90-108h48v68h42c58 0 97 28 97 79 0 51-39 80-97 80h-90v-227z m675 227h-48v-227h47v92c0 25-1 47-2 67 5-11 22-45 29-58l61-101h48v227h-46v-90c0-25 1-50 2-70-6 12-22 46-30 59l-61 101z m-434-152c0-31 25-43 52-43 18 0 47 5 47 29 0 25-35 29-69 38-36 10-70 23-70 65 0 47 45 69 86 69 48 0 92-20 92-73h-47c-2 27-23 34-47 34-16 0-37-6-37-26 0-17 12-20 69-35 17-4 70-14 70-66 0-42-34-74-96-74-51 0-98 25-98 82h48z" horiz-adv-x="1000" />

<glyph glyph-name="facebook" unicode="&#xe826;" d="M1000 347c0 276-224 500-500 500s-500-224-500-500c0-250 183-457 422-494v349h-127v145h127v110c0 125 75 195 189 195 54 0 112-10 112-10v-123h-63c-62 0-82-39-82-78v-94h139l-22-145h-117v-349c239 37 422 244 422 494z" horiz-adv-x="1000" />

<glyph glyph-name="facebookgaming" unicode="&#xe827;" d="M0 850v-1000h653v306h-347v388h694v306z m347-653h347v-347h306v653h-653z" horiz-adv-x="1000" />

<glyph glyph-name="facebooklive" unicode="&#xe828;" d="M395 525a19 19 0 0 1-19-20v-310a19 19 0 0 1 19-19h586v-1a19 19 0 0 1 19 20v310a19 19 0 0 1-19 20z m-220-1c-97 0-175-78-175-174 0-87 64-160 147-173v122h-44v51h44v38c0 44 26 68 66 68 19 0 39-3 39-3v-43h-22c-21 0-28-14-28-27v-33h48l-8-51h-40v-122c83 13 147 86 147 173 0 96-78 174-174 174z m298-100h27v-125h68v-23h-95z m123 0h27v-148h-27z m52 0h29l37-117h2l37 117h28l-51-148h-30z m159 0h95v-23h-69v-39h66v-22h-66v-41h69v-23h-95z" horiz-adv-x="1000" />

<glyph glyph-name="fujitsu" unicode="&#xe829;" d="M690 725c-100 0-188-52-245-124l0-158c76 211 245 195 245 195 123 0 220-95 220-213 0-118-97-214-220-214a222 222 0 0 0-155 63l-107 116a253 253 0 0 1-177 72c-138 0-251-109-251-244 0-135 113-243 251-243 78 0 148 34 194 88l0 126c-75-143-194-127-194-127-88 0-161 70-161 156 0 86 73 156 161 156 44 0 84-17 114-45l106-117a313 313 0 0 1 219-88c171 0 310 135 310 301 0 166-139 300-310 300z" horiz-adv-x="1000" />

<glyph glyph-name="fujifilm" unicode="&#xe82a;" d="M20 433c-20 0-20-10-20-22v-139h33c7 0 10 3 10 9v65h60c2 0 2 1 2 2v16h-62v41c0 7 4 11 11 11h53c1 0 2 1 2 2v15z m333 0c-4 0-8-2-8-8v-111c0-16-6-26-24-29-12-2-28-1-35-1v-13c0-2 1-3 2-3 1 0 9-1 26-1 30 0 44 6 52 12 15 11 20 24 20 50v104z m-213 0c-6 0-8-3-8-8v-111c0-22 10-36 34-43 19-6 50-6 70 0 16 4 33 16 33 43v119h-32c-7 0-9-3-9-8v-114c0-13-3-19-10-23-10-5-26-5-36 0-8 5-9 12-9 23v122z m388 0c-21 0-21-10-21-22v-41c0-1 0-2 0-2l-29-22h29v-74h33c7 0 10 3 10 9v65h60c2 0 3 1 3 2v16h-63v41c0 7 4 11 11 11h53c2 0 2 1 2 2v15z m154 0h-32c-8 0-10-3-10-8v-153h33c6 0 9 2 9 9z m80 0h-32c-7 0-9-2-9-9v-129c0-11 3-23 24-23h70c2 0 2 1 2 3v15h-42c-9 0-13 5-13 13z m238 0h-48c-8 0-12-4-14-11l-26-111h-1l-27 122h-37c-8 0-10-3-10-9v-152h16c2 0 3 2 3 4v127h3l33-131h22c9 0 12 4 14 12l30 119h2v-131h30c7 0 10 3 10 10z m-567 0c-7 0-9-3-9-8v-78l39 30c1 1 2 2 2 5v51z m-9-87v-74h32c6 0 9 2 9 9v65z" horiz-adv-x="1000" />

<glyph glyph-name="ibm" unicode="&#xe82b;" d="M0 177h195v-27h-195z m0 54h195v-28h-195z m55 53h84v-28h-84z m0 53h84v-28h-84z m0 54h84v-28h-84z m0 53h84v-28h-84z m-55 53h195v-28h-195z m0 54h195v-28h-195z m222-348h299c5 8 9 18 11 28h-310v-28z m276 134h-220v-28h243a111 111 0 0 1-23 28z m-220 54v-28h220c9 8 17 17 23 28h-243z m243 106h-299v-28h310a121 121 0 0 1-11 28z m-92 54h-207v-28h279a105 105 0 0 1-72 28z m-151-107h83v-28h-83z m167-28h87c2 9 3 18 3 28h-90v-28z m-167-132h83v-28h-83z m167 0v-28h90c0 10-1 19-3 28h-87z m-223-134l207-1c28 0 53 11 72 28h-279v-27z m334 27h138v-27h-138z m0 54h138v-28h-138z m55 53h83v-28h-83z m0 53h83v-28h-83z m122 160h-177v-28h187z m-18 54h-159v-28h168z m146-374h139v-27h-139z m0 54h139v-28h-139z m0 53h83v-28h-83z m0 53h83v-28h-83z m0 26h83v28h-158l-8-23-8 23h-159v-28h83v25l9-25h149l9 25z m83 81h-140l-10-28h150z m-103 107l-10-28h169v28z m-63-401l9 27h-19z m-19 53h37l10 28h-56z m-18 53h74l10 28h-94z m-19 53h112l9 28h-131z m-111 107h150l-9 28h-141z m202 53h187v28h-178z" horiz-adv-x="1000" />

<glyph glyph-name="intel" unicode="&#xe82c;" d="M851 544v-382h69v382z m-851-5v-73h72v73z m408-15v-252c0-22 1-40 5-54 4-14 10-26 18-35 9-8 20-15 34-18 14-4 31-6 52-6h9v64c-10 0-18 0-25 1a28 28 0 0 0-16 8 29 29 0 0 0-7 15 167 167 0 0 0-2 26v90h50v59h-50v102z m-146-96c-17 0-32-4-46-10-13-7-25-16-34-28l-3-5v37h-68v-260h68v134c1 24 7 42 18 54 12 12 27 18 44 18 19 0 35-6 45-18 10-12 15-28 15-50v-138h69v148c0 37-10 66-29 87-19 20-45 31-79 31z m419-1a136 136 0 0 1-96-39c-12-12-22-27-29-43a131 131 0 0 1-11-53c0-19 4-37 10-53 7-17 17-31 29-43 11-12 26-22 43-29 17-7 36-11 56-11 58 0 94 27 116 51l-50 38c-10-12-35-29-66-29-19 0-35 4-47 13a66 66 0 0 0-25 37l0 2h204v24c0 19-3 37-9 53a141 141 0 0 1-28 43 126 126 0 0 1-42 29 139 139 0 0 1-55 10z m-679-5v-260h69v260z m678-53c47 0 69-33 69-52l-138-1c0 19 22 53 69 53z m295-159a25 25 0 0 1-25-25 25 25 0 0 1 25-26 25 25 0 0 1 25 26 25 25 0 0 1-25 25z m-1-4a21 21 0 0 0 1 0 21 21 0 0 0 20-21 21 21 0 0 0-20-21 21 21 0 0 0-21 21 21 21 0 0 0 20 21z m-9-7v-29h5v12h4l7-12h6l-8 12a8 8 0 0 1 5 3c2 1 2 3 2 5 0 3 0 5-2 7-2 1-5 2-8 2z m5-4h7c0 0 1 0 2-1a3 3 0 0 0 1-1c1 0 1-1 1-2a5 5 0 0 0-1-2 7 7 0 0 0-1-2c-1 0-2 0-2 0h-7z" horiz-adv-x="1000" />

<glyph glyph-name="lenovo" unicode="&#xe82d;" d="M877 338c0-21-14-36-34-36-19 0-35 16-35 36 0 21 15 36 34 36 20 0 35-16 35-36z m-596 38a33 33 0 0 1-27-12 41 41 0 0 1-7-31l61 25a30 30 0 0 1-27 18z m290-2c-20 0-34-15-34-36 0-20 15-36 34-36 20 0 34 15 34 36 0 20-15 36-34 36z m429 143v-334h-1000v334h1000z m-791-211h-80v135h-36v-167h116v32z m47 4l90 38a70 70 0 0 1-15 35c-12 14-29 21-51 21-39 0-68-28-68-66 0-39 30-66 72-66 24 0 48 11 60 24l-23 17c-14-11-23-13-36-13-13 0-22 4-29 10z m232 44c0 29-21 50-52 50a53 53 0 0 1-42-20v18h-35v-128h35v73c0 13 10 27 29 27 15 0 30-10 30-27v-73h35v80z m152-16c0 38-30 66-69 66-38 0-69-29-69-66 0-38 30-66 69-66 39 0 69 29 69 66z m86-64l53 128h-40l-32-87-32 87h-40l53-128h38z m186 64c0 38-31 66-69 66-39 0-69-29-69-66 0-38 30-66 68-66 39 0 70 29 70 66z" horiz-adv-x="1000" />

<glyph glyph-name="lg-1" unicode="&#xe82e;" d="M220 570a220 220 0 1 1 0-440 220 220 0 0 1 0 440z m0-36c2 0 7 0 9 0v-17a609 609 0 0 1-9 0 166 166 0 0 1-118-49 166 166 0 0 1-49-118c0-44 18-86 49-118a166 166 0 0 1 118-49 168 168 0 0 1 167 156v2h-114v18h124l8 0v-9a183 183 0 0 0-54-130 183 183 0 0 0-131-54c-49 0-95 19-130 54a183 183 0 0 0-54 130 185 185 0 0 0 184 185z m670-36c-92 0-141-50-141-146 0-96 44-147 140-147 44 0 88 11 111 27v139h-114v-54h53v-49c-9-4-29-8-47-8-59 0-79 30-79 91 0 59 19 93 78 93 33 0 52-10 67-30l41 37c-25 36-68 47-109 47z m-351-4v-285h202v55h-136v230z m-389-47a27 27 0 1 0 0-53 27 27 0 0 0 0 53z m62 0h17v-176h44v-17h-61z" horiz-adv-x="1000" />

<glyph glyph-name="lgtm-1" unicode="&#xe82f;" d="M500 647c-121 0-224-28-291-88-2 4-4 7-6 11-7 11-14 24-34 37a113 113 0 0 1-43 16 89 89 0 0 1-19 0l4 1c-38 0-60-23-75-43-14-19-23-41-29-65-12-48-12-111 34-157 23-25 52-36 77-43 5-1 9-2 14-3 17-79 66-145 132-182v0h0c39-22 75-32 103-43 38-14 79-31 126-35l3 0h6c54 0 96 22 131 35 28 11 65 21 104 42a257 257 0 0 1 49 37 282 282 0 0 1 82 144 163 163 0 0 1 92 48c45 46 45 109 33 157-6 24-15 46-29 65-15 20-37 43-75 43l4-1a89 89 0 0 1-19 0 112 112 0 0 1-42-16c-21-13-28-26-35-37-2-4-4-7-6-10-67 59-169 87-291 87z m1-57c149 0 251-44 294-124 27 11 46 79 68 93 17 10 27 8 27 8 40 0 81-117 30-168-27-28-76-35-101-33-2-80-48-152-109-186-31-17-65-27-96-38-38-15-74-32-111-32h-4c-36 3-72 17-111 32-31 11-64 21-95 38-61 35-107 106-109 186-25-3-75 5-102 33-51 51-10 168 30 168 0 0 10 2 28-8 21-14 41-83 67-93 44 80 146 124 294 124z m-161-97a127 127 0 1 1 0-254 127 127 0 0 1 0 254z m323 0a127 127 0 1 1 0-254 127 127 0 0 1 0 254z m-305-71a57 57 0 0 0 0-113 57 57 0 0 0-55 70 24 24 0 0 1 46 9 24 24 0 0 1-23 24 56 56 0 0 0 32 10z m287 0a57 57 0 0 0 0-113 57 57 0 0 0-55 70 24 24 0 1 1 23 33 56 56 0 0 0 32 10z m-165-194c-10-1-16-6-16-20 0-9 6-15 16-15a6 6 0 0 1 1 12c0 0-5 2-5 5 0 4 0 6 8 7 3 0 5 4 4 7-1 3-4 4-8 4z m43 0c-4 0-7-1-8-4-1-3 1-7 4-7 8-1 8-3 8-7 0-3-5-5-6-5a6 6 0 0 1 2-12c10 0 15 6 15 15 0 14-5 19-15 20z" horiz-adv-x="1000" />

<glyph glyph-name="linux" unicode="&#xe830;" d="M521 850c-6 0-13 0-20-1-176-14-129-200-132-262-3-46-13-82-44-126-37-44-88-115-113-188-12-35-17-71-12-104a18 18 0 0 1-4-6c-11-11-19-25-28-35-8-8-20-11-33-16-13-6-28-12-36-29-4-8-6-16-6-25 0-8 1-16 2-22 3-17 5-30 2-41-10-28-12-47-4-62 7-13 22-19 39-25 34-8 79-5 115-25 39-19 78-27 109-19 22 5 41 19 51 39 24 0 51 11 94 14 29 3 66-11 107-8 1-6 3-8 5-14l0 0c17-33 47-47 79-45 32 3 66 23 94 55 26 32 70 45 99 62 14 9 26 20 27 36 1 17-8 34-30 57v4l0 0c-7 9-10 23-14 39-4 17-8 33-21 44h0c-2 2-5 2-8 5a15 15 0 0 1-7 3c18 53 11 106-8 154-22 59-61 110-90 145-33 42-66 81-65 140 1 90 10 256-148 256z m22-142h1c9 0 16-2 24-8 8-6 14-14 18-22 5-11 7-19 7-30 0 0 0 1 0 2v-4a4 4 0 0 0 0 1l0 1a75 75 0 0 0-6-30 40 40 0 0 0-9-14 30 30 0 0 1-4 2c-4 2-8 3-12 5a55 55 0 0 1-9 3c2 3 6 6 8 8 2 6 3 11 4 17v1a50 50 0 0 1-3 17c-2 5-4 8-8 14-3 2-7 5-11 5h0c-4 0-8-1-11-5a33 33 0 0 1-9-14 49 49 0 0 1-4-17v-1c0-3 1-7 1-11-8 3-18 6-25 9a68 68 0 0 0-1 8v1a74 74 0 0 0 6 32c4 9 10 17 18 22a41 41 0 0 0 25 8z m-123-2h1c6 0 11-2 17-6 6-5 11-12 14-19 4-9 6-17 7-28v0c0-6 0-9-1-11v-4c-1 0-2 0-3-1-6-2-11-5-16-8 0 4 0 8 0 11v1c-1 5-2 8-4 14a26 26 0 0 1-7 11 10 10 0 0 1-7 2h-1c-3 0-6-1-8-5a23 23 0 0 1-5-11 39 39 0 0 1-1-14v-1c1-5 2-8 4-14 1-5 4-8 6-11 1 0 1-1 2-1-3-2-5-3-7-5a13 13 0 0 0-6-3 109 109 0 0 0-11 16 74 74 0 0 0-7 28 73 73 0 0 0 3 28 60 60 0 0 0 12 22c6 6 11 9 18 9z m57-71c14 0 30-3 50-17 13-8 22-11 44-19h0c11-6 17-12 20-17v5a24 24 0 0 0 1-19c-5-13-22-27-44-35v0c-11-6-21-14-33-20-11-5-24-12-42-11a48 48 0 0 0-18 3 149 149 0 0 0-14 8c-8 6-15 14-25 20v0h-1c-16 10-25 21-28 29-3 11 0 20 8 25 9 6 16 12 20 14 4 3 6 5 7 6h0v0c7 8 19 19 35 25 6 1 13 3 20 3z m116-90c15-59 50-144 73-186 12-22 35-69 46-126 6 0 13-1 21-3 27 70-23 145-45 166-10 8-10 14-5 14 24-23 56-66 68-115 6-23 7-46 1-70 3-1 6-2 9-3 43-22 58-39 51-64v2c-3 0-5 0-8 0h0c6 20-8 34-45 51-38 17-68 14-74-19 0-2 0-3 0-6-3-1-6-2-9-3-18-11-28-27-33-49-5-22-7-48-9-78v0c0-14-7-35-13-56-62-45-149-65-223-14a110 110 0 0 1-16 22 60 60 0 0 1-12 14c8 0 14 1 19 3a26 26 0 0 1 14 14c4 11 0 29-15 48-14 19-39 41-74 63-27 17-41 37-48 59-7 22-6 45-1 68 10 45 37 88 53 115 5 3 2-5-17-40-16-32-47-104-5-161a339 339 0 0 0 27 120c24 53 73 146 77 219 2-1 9-5 12-8 9-6 15-14 24-19 9-9 20-14 37-14 1 0 3-1 4-1 17 0 31 6 42 12 12 5 22 13 31 16h0c19 6 35 17 43 29z m91-373c2-25 15-52 37-57 25-6 60 14 75 32l9 0c13 0 24 0 35-11l0 0c9-9 13-22 16-37 4-16 7-32 17-44 21-22 27-38 27-48l0 1v-1l0 0c-1-11-8-16-21-25-26-16-73-29-102-65-26-31-57-47-85-50-28-2-52 9-66 38l0 0c-9 17-5 43 2 70 8 28 18 57 20 80 1 29 3 55 8 75 5 20 13 33 27 41l1 1z m-450-2h0c3 0 5 0 7 0 16-3 29-14 42-32l38-69 1 0c10-22 31-45 49-68 18-26 32-48 30-66v0c-2-31-20-48-46-54-27-6-64 0-100 19-41 22-88 20-119 25-16 3-26 9-30 17-5 8-5 25 5 51v0l0 0c5 14 1 32-1 47-3 17-4 30 1 39 7 14 17 17 29 23 12 5 27 8 38 19h0v0c11 11 19 25 28 35 8 8 16 14 28 14z m298 378c-18-8-39-22-62-22-22 0-40 11-53 19-7 6-12 11-16 14-7 6-6 14-3 14 5-1 6-5 9-8 4-3 8-9 15-14 12-8 28-20 48-20 20 0 44 12 58 20 9 6 19 14 27 19 7 6 7 11 12 11 5 0 1-5-6-13a337 337 0 0 0-29-20z m-45 66v1c0 1 1 2 1 2 3 2 8 1 11 0 3 0 7-3 6-6 0-2-3-2-5-2-3 0-4 1-6 2-2 1-6 1-7 3z m-23 0c-1-2-5-2-7-3-2-1-3-2-6-2-2 0-5 0-5 2-1 3 3 6 6 6 3 1 8 2 11 0 1 0 1-1 1-2v-1h0z" horiz-adv-x="1000" />

<glyph glyph-name="linuxcontainers" unicode="&#xe831;" d="M423 476l69-40-240-139 0 80 171 99z m72 42l-65-38 65-37 0 75z m-244 110l0-45 23-13 150-86 68 39-91 53-135 79-15 8 0-35z m3 41l15-9 264-152 219-126 244 141-498 288-244-142z m250-525l0-80 244 142 0 80-244-142z m-3 375l0-80 247-143 1 80-248 143z m-422-39l170-98 168 97-170 98-168-97z m921 37l-244-141-1-166 244 142 1 165z m-502-418l0 45-181 105-65 37v0l-40 23-211 122-1-80 498-287 0 35z m247 192l-246 142-244-142 246-142 244 142z m253 52l-494-286 0-168 494 288 0 166z m-500-379l0 93-498 287 0-167 498-288 0 75z m-497 478l66 38-66 38 0-76z m243 141l1 68 0 12-241-140 69-40 171 100z m2-206l-173 99-19-11-50-29 241-139 1 80z" horiz-adv-x="1000" />

<glyph glyph-name="logitech" unicode="&#xe832;" d="M1000 638a56 56 0 0 0-56-57 56 56 0 0 0-57 57 56 56 0 0 0 57 56 56 56 0 0 0 56-56z m-310-551a95 95 0 0 0-97 97h-85c0-102 80-178 180-178s181 78 181 178h-83c-1-56-44-97-96-97z m212 118h83v338h-83z m-902 0h83v478h-83v-478z m297 348c-102 0-179-77-179-177a178 178 0 0 1 179-180c101 0 180 78 180 178s-78 179-180 179z m0-276c-54 0-96 42-96 99a95 95 0 0 0 96 96 95 95 0 0 0 97-96c0-55-40-99-97-99z m568 199v67h-117c-20 8-39 10-58 10-102 0-182-77-182-179 0-102 80-178 180-178s179 78 179 178c0 35-10 67-28 91z m-175-199c-55 0-97 42-97 99a95 95 0 0 0 97 96 95 95 0 0 0 96-96c0-55-44-99-96-99z" horiz-adv-x="1000" />

<glyph glyph-name="mcafee" unicode="&#xe833;" d="M500 649l-434 201v-799l434-201 434 201v799z m257-484l-256-119-256 119v406l256-118 256 118z" horiz-adv-x="1000" />

<glyph glyph-name="microsoft" unicode="&#xe834;" d="M0 850v-475h475v475z m525 0v-475h475v475z m-525-525v-475h475v475z m525 0v-475h475v475z" horiz-adv-x="1000" />

<glyph glyph-name="microsoftazure" unicode="&#xe835;" d="M229-38h771l-416 721-126-348 243-289-472-84z m322 776l-297-249-254-441h229v-1l322 691z" horiz-adv-x="1000" />

<glyph glyph-name="microsoftexcel" unicode="&#xe836;" d="M958 788q17 0 30-13 12-12 12-29v-792q0-17-12-29-13-13-30-13h-666q-17 0-29 13-13 12-13 29v146h-208q-17 0-29 13-13 12-13 29v416q0 17 13 30 11 12 29 12h208v146q0 17 13 29 12 13 29 13z m-708-491l59-111h89l-99 161 98 158h-86l-54-100-2-3-2-4-27 54-27 53h-91l95-159-104-160h90z m344-322v125h-281v-125z m0 188v156h-94v-156z m0 218v157h-94v-157z m0 219v125h-281v-125z m344-625v125h-282v-125z m0 188v156h-282v-156z m0 218v157h-282v-157z m0 219v125h-282v-125z" horiz-adv-x="1000" />

<glyph glyph-name="microsoftoffice" unicode="&#xe837;" d="M897 671v-640q0-34-20-60-19-26-52-36l-287-82q-5-2-12-2-6-1-12-1-17 0-30 4-13 5-27 12l-188 106q-10 6-16 16-6 9-6 21 0 18 12 31 13 13 31 13h243v590l-182-65q-23-8-36-27-13-20-13-43v-337q0-20-11-38-10-17-28-27l-87-47q-12-6-23-6-21 0-36 14-14 15-14 35v475q0 25 14 49 13 24 36 37l308 175q11 6 23 9 11 3 23 3 9 0 16-1 7-2 15-4l287-79q16-5 29-14 14-9 23-22 10-12 15-28 5-15 5-31z m-66-640v640q0 11-7 20-6 8-17 11l-141 39q-17 5-34 10-16 4-33 9v-821l208 60q11 3 17 12 7 8 7 20z" horiz-adv-x="1000" />

<glyph glyph-name="microsoftoutlook" unicode="&#xe838;" d="M328 348q0-18-4-36-4-17-14-31-9-13-24-21-16-9-36-9t-36 9q-14 8-24 23-9 13-13 31-4 17-4 36t4 36q4 18 14 32 9 14 24 22 15 8 37 8t36-8q14-9 23-23 9-14 13-32 4-18 4-37z m672 2v-391q0-19-14-33-13-14-33-14h-656q-19 0-33 14-14 14-14 34v140h-208q-17 0-29 13-13 12-13 29v416q0 17 13 30 11 12 29 12h271v144q0 18 12 31 13 13 31 13h538q18 0 31-13 13-12 13-31v-346l51-30h1q4-3 7-8 3-5 3-10z m-250 344v-125h125v125z m0-188v-125h125v125z m0-187v-76l127 76z m-219 375v-125h157v125z m0-188v-125h157v125z m0-187v-85l101-62 56 33v114z m-156 375v-94h83l6 0 5-2v96z m-126-510q38 0 67 13 29 13 49 36 20 22 31 53 10 31 10 67 0 35-10 65-10 29-30 51t-48 35q-28 12-64 12-39 0-69-12-29-13-50-36-20-22-31-54-10-31-10-68 0-35 11-65 10-30 30-51 20-22 49-34 29-12 65-12z m64-209h516l-329 205v-38q0-17-12-29-13-13-30-13h-145z m625 5v302l-246-147z" horiz-adv-x="1000" />

<glyph glyph-name="microsoftpowerpoint" unicode="&#xe839;" d="M563 788q60 0 116-16 56-16 105-44 48-29 88-69 40-39 68-88 29-49 44-104 16-56 16-117 0-60-16-116-15-56-44-105-28-48-68-88-40-40-88-69-49-28-105-44-56-16-116-16-54 0-105 13-52 13-98 37-46 24-86 59-40 35-70 79h-162q-18 0-30 12t-12 30v417q0 17 12 29t30 12h162q30 44 70 79 40 35 86 59 46 24 98 37 51 13 105 13z m31-64v-343h342q-6 69-34 128-29 60-75 106-45 46-105 74-60 29-128 35z m-219-316q0 29-10 49-9 20-26 33-17 12-39 18-23 6-49 6h-132v-328h76v115h52q24 0 47 7t41 20q18 14 29 34 11 20 11 46z m188-433q48 0 94 12t85 34q41 22 74 53 34 31 60 70 25 38 41 83 15 44 19 92h-404v405q-72-6-136-38t-113-86h176q17 0 29-12t12-29v-417q0-18-12-30t-29-12h-176q27-30 59-53 32-23 68-39 35-16 74-25 39-8 79-8z m-321 475q24 0 38-9 15-10 15-35 0-12-6-19-5-7-13-11-7-4-17-6-10-2-19-2h-45v82z" horiz-adv-x="1000" />

<glyph glyph-name="microsoftword" unicode="&#xe83a;" d="M959 788q17 0 29-13t12-29v-792q0-17-12-29t-29-13h-667q-18 0-30 13t-12 29v146h-208q-18 0-30 12t-12 30v417q0 17 12 29t30 12h208v146q0 17 12 29t30 13z m-707-405l60-197h68l65 328h-68l-39-194-56 188h-58l-58-189-39 195h-72l65-328h69z m686-408v125h-625v-125z m0 188v156h-438v-156z m0 218v157h-438v-157z m0 219v125h-625v-125z" horiz-adv-x="1000" />

<glyph glyph-name="nokia" unicode="&#xe83b;" d="M48 269h-48v162h83l96-121v121h48v-162h-82l-97 123v-123m409 50c0-23-4-31-10-38-10-11-25-14-54-14h-82c-29 0-44 3-54 14-7 8-11 15-11 38v62c0 23 4 31 11 38 10 11 25 15 54 15h82c29 0 44-4 54-15 6-7 10-15 10-38v-62m-66-11c11 0 15 0 17 3 3 2 4 5 4 14v50c0 9-1 12-3 14-3 3-7 3-18 3h-78c-11 0-15 0-18-3-2-2-3-5-3-14v-50c0-9 1-12 3-14 3-3 7-3 18-3h78m136 123v-162h-50v162h50m85 0h67l-90-76 101-86h-71l-92 84 85 78m87 0h51v-162h-51m243 0l-15 28h-98l-14-28h-56l89 162h63l89-162h-58m-95 63h62l-31 59-31-59" horiz-adv-x="1000" />

<glyph glyph-name="nvidia" unicode="&#xe83c;" d="M373 483v60a279 279 0 0 0 18 1c163 5 270-141 270-141s-115-160-239-160c-17 0-33 2-49 7v182c64-8 77-36 115-100l85 72s-62 81-167 81a251 251 0 0 1-33-2m0 198v-89l18 1c227 8 375-186 375-186s-170-207-347-207c-16 0-31 1-46 4v-55c13-2 26-3 38-3 165 0 284 84 400 184 19-16 97-53 114-69-110-92-366-166-511-166-14 0-27 1-40 2v-78h626v662z m0-430v-48c-152 28-195 186-195 186s73 81 195 94v-51h0c-64 8-114-52-114-52s28-100 114-130m-271 146s91 133 271 147v49c-200-17-373-186-373-186s98-283 373-309v52c-202 25-271 247-271 247z" horiz-adv-x="1000" />

<glyph glyph-name="opera" unicode="&#xe83d;" d="M336 632c-56-65-92-162-94-270v-24c2-108 38-204 94-270 71-93 178-152 297-152 73 0 142 22 200 61-88-79-205-127-333-127-8 0-16 0-24 1-265 12-476 231-476 499 0 276 224 500 500 500h2c127 0 243-49 331-127-58 39-127 61-200 61-119 0-226-59-298-152h1z m664-282c0-148-64-281-167-373-128-62-247-19-287 9 126 28 221 180 221 364 0 184-95 337-221 364 40 27 159 71 287 9 103-92 167-225 167-373z" horiz-adv-x="1000" />

<glyph glyph-name="playstation" unicode="&#xe83e;" d="M374 742v-731l164-53v613c0 29 12 48 33 42 26-8 31-34 31-63v-245c102-50 182 0 182 132 0 134-47 194-185 242-54 19-155 50-224 63z m194-677l263 95c30 11 34 26 10 34-24 8-68 6-98-5l-175-63v100l10 3s50 18 121 26c71 8 158-1 226-27 77-26 85-62 66-87-19-25-67-43-67-43l-356-130v96z m-493 10c-79 23-92 70-56 97 33 24 90 44 90 44l234 83v-96l-168-61c-29-12-34-27-10-35 25-8 69-6 98 5l81 30v-87c-5-1-11-2-17-3-80-14-166-8-251 20z" horiz-adv-x="1000" />

<glyph glyph-name="playstation2" unicode="&#xe83f;" d="M311 276v-12h172v160h159v12h-172v-160z m677 148v-67h-300v-93h312v12h-299v69h299v91h-312v-12z m-688 0v-67h-300v-93h12v81h299v91h-311v-12z" horiz-adv-x="1000" />

<glyph glyph-name="playstation3" unicode="&#xe840;" d="M640 457h-131c-40 0-60-25-60-57v-99c0-20-10-35-30-35h-115a2 2 0 0 1-1-1v-20c0 0 0-1 1-1h130c40 0 60 25 60 57v99c0 20 10 35 30 35h116c0 0 1 0 1 1v20c0 1-1 1-1 1z m-386 0h-252c-1 0-2-1-2-1v-20c0-1 1-2 2-2h237c20 0 29-14 29-34s-9-35-29-35h-188c-29 0-51-24-51-57v-63c0-1 1-1 2-1h43c1 0 1 0 1 1v63c0 20 12 34 29 34h179c41 0 60 25 60 58 0 32-19 57-60 57z m727-104a2 2 0 0 0 0 2c13 11 19 26 19 45 0 32-20 57-60 57h-253c0 0-1-1-1-2v-19c0-1 1-2 2-2h237c20 0 30-15 30-35s-10-34-30-34h-237c-1 0-2-1-2-2v-20c0-1 1-1 2-1h237c26-1 30-26 30-39v-2c0-21-10-35-30-35h-237c-1 0-2-1-2-2v-19c0-1 1-2 2-2h252c40 0 60 27 60 57v3c0 19-6 38-19 49z" horiz-adv-x="1000" />

<glyph glyph-name="playstation4" unicode="&#xe841;" d="M513 301v99c0 21 9 35 29 35h125c1 0 1 1 1 2v19c0 1 0 1 0 1h-152c-33-4-49-27-49-57v-99c0-20-10-35-30-35h-131c-1 0-2 0-2-1v-20c0-1 0-1 1-2h149c39 1 58 26 58 58z m-512-58h44a2 2 0 0 1 1 2v63c0 21 11 35 28 35h180c41 0 60 25 60 57 0 30-16 53-49 57h-265c0 0 0 0 0-1v-19c0-1 1-2 2-2h237c20 0 30-15 30-35 0-20-10-35-30-35h-188c-29 0-51-24-51-57v-63c0-1 0-2 1-2z m667 23h239c0 0 1 0 1-1v-20c0-1 1-1 1-1h44c0 0 1 0 1 1v20c0 1 1 1 2 1h43c1 0 1 1 1 2v20c0 1 0 1-1 1h-43c-1 0-2 1-2 2v144c0 12-4 19-12 22h-12a48 48 0 0 1-13-6l-257-159c-10-6-14-13-11-18 2-4 8-8 19-8z m37 27l200 123c1 1 3 1 3-2v-123c0-1 0-2-1-2h-201c-2 0-2 1-3 1 0 1 1 2 2 3z" horiz-adv-x="1000" />

<glyph glyph-name="playstation5" unicode="&#xe842;" d="M435 243a58 58 0 0 1 58 58v99a35 35 0 0 0 35 34h112a2 2 0 0 1 1 2v20a2 2 0 0 1-1 1h-135a58 58 0 0 1-58-57v-99a35 35 0 0 0-34-35h-111a2 2 0 0 1-1-2v-20a2 2 0 0 1 1-1z m252 134v79a2 2 0 0 0 2 1h304a2 2 0 0 0 2-1v-20a2 2 0 0 0-2-2h-258a2 2 0 0 1-2-1v-52a17 17 0 0 1 17-16h192a61 61 0 0 0 0-122h-253a2 2 0 0 0-2 2v19a2 2 0 0 0 2 2h230a38 38 0 1 1 0 76h-197a35 35 0 0 0-35 35m-452-12a35 35 0 0 1 0 69h-233a2 2 0 0 0-2 2v20a2 2 0 0 0 2 1h256a58 58 0 0 0 0-115h-177a35 35 0 0 1-35-35v-63a2 2 0 0 0-2-1h-42a2 2 0 0 0-2 1v63a58 58 0 0 0 58 58z" horiz-adv-x="1000" />

<glyph glyph-name="playstationvita" unicode="&#xe843;" d="M132 341h-79c-11 0-19-8-19-22v-52h-34v50c0 28 18 46 42 46h80c20 1 25 11 25 25 0 11-6 26-25 24h-122v21h132c35 0 49-20 49-45 0-28-14-47-49-47z m146 47v-76c0-27-13-45-47-45h-74v21h64c14 0 21 11 21 24v76c0 24 12 45 46 45h74v-21h-64c-17 1-20-13-20-24z m201-121c-13 1-19 11-22 16-2 4-80 150-80 150h39l64-119c3-7 11-8 15-1l64 120h24s-75-142-78-147c-3-5-12-20-26-19z m126 165h35v-165h-35z m157-19l0-145h-35v145l-65 0v20l166 0-1-20z m134 20c-13 0-21-15-24-19-3-5-78-147-78-147h24l19 35h106l19-35h38s-77 146-80 150c-3 5-8 15-22 16h-2z m-7-41c3 0 6-2 8-6l35-64h-84l34 64c2 4 5 5 7 6z" horiz-adv-x="1000" />

<glyph glyph-name="primevideo" unicode="&#xe844;" d="M0 454c0 2 0 3 1 4 1 0 2 1 4 1h14c2 0 4-2 5-5l1-4c4 3 9 6 14 8a43 43 0 0 0 16 4c13 0 22-5 30-14 7-9 10-21 10-37 0-10-1-19-5-27-4-8-8-14-14-19a35 35 0 0 0-21-6c-6 0-11 1-15 2a36 36 0 0 0-12 7v-41c0-2-1-4-1-4-1-1-2-1-4-1h-18c-2 0-3 0-4 1-1 0-1 2-1 4z m46-13a36 36 0 0 1-18-6v-50a35 35 0 0 1 18-5c8 0 13 2 16 7 3 5 5 13 5 23 0 11-2 18-5 23-3 5-8 8-16 8z m94 3c5 6 10 10 14 12a31 31 0 0 0 15 4h2c2 0 3-1 4-1 1-1 1-2 1-4v-16c0-2 0-3-1-4 0-1-2-1-3-1a39 39 0 0 0-4 0 57 57 0 0 1-16-1c-4-1-7-2-10-3v-64c0-2-1-3-1-4-1-1-2-1-4-1h-18c-2 0-3 0-4 1-1 1-1 2-1 4v88c0 2 0 3 1 4 1 0 2 1 4 1h13c3 0 5-2 6-4z m64 30a17 17 0 0 0-12 4 14 14 0 0 0-4 11c0 4 1 8 4 11a17 17 0 0 0 12 4c5 0 8-2 11-4 3-3 5-7 5-11a14 14 0 0 0-5-11 17 17 0 0 0-11-4z m-14-20c0 2 0 3 1 4 1 0 2 1 4 1h18c2 0 3-1 4-1s1-2 1-4v-88c0-2-1-3-1-4-1-1-2-1-4-1h-18c-2 0-3 0-4 1-1 1-1 2-1 4z m76-5c7 5 13 8 18 10 6 2 11 3 17 3 12 0 20-5 24-13 7 5 13 8 19 10 5 2 11 3 17 3 9 0 16-3 21-8 5-5 7-12 7-21v-67c0-2 0-3-1-4-1-1-2-1-4-1h-18c-2 0-3 0-3 1-1 1-2 2-2 4v61c0 9-3 13-11 13-7 0-14-2-21-5v-69c0-2 0-3-1-4-1-1-2-1-4-1h-18c-2 0-3 0-4 1 0 1-1 2-1 4v61c0 9-4 13-11 13-7 0-14-2-21-5v-69c0-2-1-3-1-4-1-1-2-1-4-1h-18c-2 0-3 0-4 1-1 1-1 2-1 4v88c0 2 0 3 1 4 1 0 2 1 4 1h14c2 0 4-2 5-5z m183-48a75 75 0 0 0-19 2c1-8 4-15 8-18 4-4 11-6 20-6 3 0 7 0 10 1a128 128 0 0 1 15 3 6 6 0 0 0 1 0c2 0 4-1 4-4v-9c0-2-1-3-1-4a7 7 0 0 0-4-2 81 81 0 0 0-29-6c-16 0-28 5-36 13-9 9-13 21-13 37 0 17 4 30 13 39 9 10 21 15 36 15 12 0 21-3 28-9a29 29 0 0 0 10-23c0-10-4-17-11-22-7-5-18-7-32-7z m3 41c-12 0-19-7-21-22 5-1 10-2 17-2 6 0 11 1 14 3 3 2 4 5 4 9 0 8-5 12-14 12z m123-81a9 9 0 0 0-3 1 5 5 0 0 0-3 1 11 11 0 0 0-1 3l-33 85a78 78 0 0 0 0 3 7 7 0 0 0-1 2c0 2 1 3 4 3h19c2 0 3-1 4-1 1-1 2-2 2-4l20-68 20 68a7 7 0 0 0 2 4c1 0 2 1 4 1h19c2 0 4-1 4-3a7 7 0 0 0-1-2l-1-3-32-85a11 11 0 0 0-2-3 5 5 0 0 0-2-1 9 9 0 0 0-3-1z m84 113a16 16 0 0 0-12 4 14 14 0 0 0-4 11c0 4 1 8 4 11a16 16 0 0 0 12 4c5 0 8-2 11-4 3-3 5-7 5-11 0-5-2-9-5-11a16 16 0 0 0-11-4z m-9-113c-2 0-3 1-4 1-1 1-1 2-1 4v88c0 2 0 3 1 4 1 0 2 1 4 1h18c2 0 3-1 4-1 0-1 1-2 1-4v-88c0-2-1-3-1-4-1 0-2-1-4-1z m81-2a36 36 0 0 0-21 6 40 40 0 0 0-14 18 67 67 0 0 0-5 26c0 16 4 29 11 38a36 36 0 0 0 29 15 41 41 0 0 0 26-9v45c0 1 1 3 2 3 0 1 1 1 3 1h18c2 0 3 0 4-1 1 0 1-2 1-3v-132c0-2 0-3-1-4-1 0-2-1-4-1h-15a6 6 0 0 0-3 1 6 6 0 0 0-2 3l-1 5a40 40 0 0 0-28-11z m9 21a32 32 0 0 1 17 5v51a36 36 0 0 1-18 5c-7 0-12-3-15-8-4-5-5-13-5-23 0-10 2-18 5-23 3-4 9-7 16-7z m108 21c-7 0-13 1-19 2 1-8 4-14 8-18 4-3 11-5 19-5 4 0 7 0 10 1a125 125 0 0 1 15 3 6 6 0 0 0 1 0c2 0 3-2 3-4v-9c0-2 0-3-1-4a7 7 0 0 0-3-2 79 79 0 0 0-29-6c-15 0-27 5-35 13-8 9-12 21-12 37 0 16 4 29 12 38 9 9 21 14 35 14 12 0 21-3 27-9a28 28 0 0 0 10-22c0-10-3-17-10-21-7-5-18-8-31-8z m2 41c-11 0-18-8-20-22 5-1 10-2 16-2 7 0 11 1 14 3 3 2 4 5 4 9 0 8-4 12-14 12z m102-84c-15 0-27 5-35 14-8 9-13 22-13 38 0 16 5 29 13 38 8 9 20 14 35 14s27-5 35-14c9-9 13-22 13-38 0-16-4-29-13-38-8-9-20-14-35-14z m0 22c13 0 20 10 20 30 0 20-7 30-20 30-13 0-20-10-20-30 0-20 7-30 20-30z m-285-79c17 13 39 17 58 17 17 0 31-4 34-8 7-8-1-66-32-93-5-4-9-2-7 4 7 18 22 59 15 69-7 10-48 5-67 3-2-1-4 1-4 2v1c0 2 1 4 3 5z m-424 7a4 4 0 0 0 4 4c1 0 2 0 4-1a491 491 0 0 1 258-74c63 0 133 14 197 44 9 4 18-7 8-15-57-45-140-69-211-69-100 0-190 39-258 106a7 7 0 0 0-2 4z" horiz-adv-x="1000" />

<glyph glyph-name="qualcomm" unicode="&#xe845;" d="M500 850c-240 0-434-187-434-436 0-251 194-437 434-437 41 0 81 6 118 16l47-122c5-13 15-21 32-21h75c19 0 32 12 23 35l-61 159c120 76 200 210 200 370 0 249-194 436-434 436m189-690l-55 142c-5 12-14 23-35 23h-72c-18 0-32-11-23-34l72-187c-24-7-50-9-76-9-176 0-301 138-301 319 0 180 125 319 301 319s301-139 301-319c0-106-42-196-112-254" horiz-adv-x="1000" />

<glyph glyph-name="seagate" unicode="&#xe846;" d="M468-95c-11 42-22 83-32 123 11 6 20 10 33 16 51 22 101 47 148 79 58 39 112 84 159 136 37 41 68 86 86 139 12 36 18 72 12 109-4 31-15 59-33 85-21 31-49 55-82 72-42 21-87 29-133 27-42-1-81-10-120-24-71-26-137-64-199-106-19-12-35-26-50-43-8-9-14-19-17-31-4-20 8-36 28-37 15 0 28 5 40 11 40 19 75 44 112 67 30 19 61 37 94 50 33 13 67 20 102 15 39-7 70-25 89-61 13-24 14-51 7-77-8-31-26-56-47-79-28-31-62-57-98-79-39-22-77-46-117-66-46-25-95-42-145-56-42-13-85-18-129-14-36 3-71 14-101 35-28 19-48 44-60 76-19 48-18 97-6 147 13 56 42 104 77 150 26 34 57 64 90 92 47 39 97 75 150 105 18 10 36 20 54 29l17-36c-16-8-31-17-47-25-66-37-127-82-181-135-30-29-55-62-74-99-19-39-30-79-25-123 5-48 27-85 71-107 26-13 54-17 83-16 40 1 78 12 115 25 55 20 107 48 157 78 29 18 59 36 83 60 14 12 27 25 33 43 12 31-5 59-38 62-19 2-35-5-51-12-43-20-82-47-121-72-31-19-62-37-95-50-23-9-47-15-72-12-44 5-71 39-66 82 4 34 20 62 43 87 24 27 53 50 84 69 48 31 96 60 148 83 59 27 121 48 187 54 47 4 94 2 141-11 41-10 79-28 113-53 34-25 61-56 82-93 18-33 29-68 32-106 3-40-1-79-13-117-11-37-26-73-47-106-29-46-62-88-102-125-40-38-81-76-126-108-60-41-122-77-189-105-18-7-35-14-54-22" horiz-adv-x="1000" />

<glyph glyph-name="shopify" unicode="&#xe847;" d="M639-149l301 65s-109 734-110 739c0 5-4 8-8 8s-81 5-81 5-53 53-60 59c-2 2-3 3-5 3l-38-879h1z m-151 528s-34 18-74 18c-60 0-63-38-63-48 0-51 135-71 135-193 0-95-60-157-142-157-98 0-147 62-147 62l27 87s52-45 95-45c28 0 41 23 41 39 0 67-111 71-111 182-1 93 65 184 201 184 52 0 78-15 78-15l-39-114-1 0z m-23 436c6 0 12-1 17-5-41-20-86-68-104-166-27-9-54-17-79-25 22 75 74 196 166 196v0z m52-122v-6c-31-10-66-20-100-31 20 74 56 111 87 124 8-21 13-49 13-87z m22 93c29-3 48-36 60-73-15-5-31-10-48-16v11c0 31-4 57-12 78v0z m125-54c-1 0-2-1-3-1s-12-3-30-9c-18 52-49 99-104 99h-5c-16 20-36 29-53 29-129 0-191-161-210-244-50-15-86-26-90-28-28-8-29-9-32-36-3-19-77-586-77-586l565-106 39 882z" horiz-adv-x="1000" />

<glyph glyph-name="shotcut" unicode="&#xe848;" d="M0 850h278v-1000h-278v37h241v926h-241v37z m315 0v-1000h685v37h-648v926h648v37h-685z m58-942h627v884h-627v-884z m-153 884h-220v-884h220v884z" horiz-adv-x="1000" />

<glyph glyph-name="shutterstock" unicode="&#xe849;" d="M410 68h221a64 64 0 0 1 64 64v240h218v-240a282 282 0 0 0-282-282h-221v218m180 564h-221a64 64 0 0 1-64-64v-240h-218v240a282 282 0 0 0 282 282h221v-218z" horiz-adv-x="1000" />

<glyph glyph-name="siemens" unicode="&#xe84a;" d="M62 433c10 0 24-2 43-6v-30a103 103 0 0 1-39 9c-17 0-26-5-26-15 0-4 2-7 5-9 3-2 11-6 24-12 19-9 31-16 37-23 7-7 11-17 11-29 0-17-7-30-21-40-12-7-27-11-46-11-15 0-31 2-47 6v32c17-6 32-9 46-9 18 0 27 5 27 15a13 13 0 0 1-4 10c-3 2-10 6-21 11-20 9-33 16-39 22a42 42 0 0 0-12 30c0 16 6 28 17 36 12 9 26 13 45 13z m883 0c10 0 23-2 39-5l4-1v-30a103 103 0 0 1-39 9c-17 0-26-5-26-15 0-4 2-7 5-9 3-2 11-6 24-12 18-9 31-16 37-23 7-7 11-17 11-29 0-17-7-30-21-40-12-7-27-11-46-11-15 0-31 2-47 6v32c17-6 32-9 46-9 18 0 27 5 27 15 0 4-1 7-4 10-3 2-10 6-21 11-20 9-33 16-39 22a42 42 0 0 0-12 31c0 15 6 27 17 35 12 9 26 13 45 13z m-529-3l39-102 39 102h52v-159h-40v112l-45-114h-26l-44 114v-112h-30v159z m-232 0v-159h-43v159z m148 0v-29h-68v-36h59v-26h-59v-38h70v-30h-111v159z m363 0v-29h-69v-36h60v-26h-60v-38h70v-30h-111v159z m79 0l52-107v107h30v-159h-48l-54 108v-108h-30v159z" horiz-adv-x="1000" />

<glyph glyph-name="signal" unicode="&#xe84b;" d="M501 742c-218 0-394-163-394-363 0-126 51-221 131-282h0l10-127v0c0-1 0-2 0-2v-1c1-6 6-10 12-10 3 0 5 0 6 1l1 1 121 70c35-9 73-13 112-13 218 0 394 163 394 363 0 200-176 363-394 363l1 0z m-68 78c22 3 44 4 67 4 16 0 31 0 46-2l3 26c-16 1-33 2-49 2-24 0-47-1-71-4l4-26 0 0z m158-4c38-7 75-18 109-33l10 24c-5 2-11 4-16 7-32 12-65 21-98 27l-5-25z m382-440c0-38-6-75-17-110l25-8c11 38 17 78 18 118l-26 0z m-692 398c34 17 70 30 108 38l-6 25c-26-6-52-13-77-23-12-5-24-11-36-16l11-24z m569-58c-30 27-62 50-97 70l-13-23c34-18 65-41 93-66l17 19v0z m-219-785c40 10 77 25 112 43l-13 22c-33-17-68-30-105-40l6-25z m-478 752c27 27 56 50 89 70l-14 22c-29-18-56-38-81-61-4-4-8-8-12-12l18-19 0 0z m812-470l-24 10c-14-35-33-67-56-97l20-16c25 32 45 67 60 103h0z m-101 452c25-28 46-59 64-92l23 11c-18 35-41 69-68 99l-19-18h0z m106-125l-24-10c13-34 22-71 26-109l25 3c-3 40-13 79-27 116z m-704-642l-40-18-14 43-24-8 18-56c1-4 4-6 7-8 1-1 3-1 5-1s4 0 5 1l54 23-11 24z m159 50c-3 0-6 1-9 1l-20 4c-2 0-5 0-7-1l-81-36 11-23 77 33c5 0 10-1 15-2 3-1 6-1 9-2l5 26z m156-1c-27-5-54-7-81-7-12 0-22 1-32 2l-1-26c10-1 21-1 33-1 29 0 57 2 85 6l-4 26 0 0z m-518 607c16 34 36 66 60 95l-20 17c-25-31-46-64-63-101l0-1 23-10z m793-463c-26-27-55-51-87-72l14-21c34 22 65 47 92 76l-19 17z m-816 153c-7 33-12 70-13 111h-26c2-45 6-83 15-118l24 7z m-18 276c-12-38-19-77-21-117l26-2c2 39 9 76 20 111l-25 8z m175-553l-24 76c-1 2-2 5-5 6-9 8-18 15-27 23l-18-18c8-8 17-15 27-23l23-71 24 7z m-87 138c-25 28-43 60-57 96l-24-10c2-4 4-9 6-13 13-33 32-63 56-91l19 18z" horiz-adv-x="1000" />

<glyph glyph-name="t-mobile" unicode="&#xe84c;" d="M98 850l-11-355 54-8c11 106 38 181 81 233 46 51 111 81 195 84v-740c0-65-8-106-27-125-16-16-43-27-81-29-11 0-30-3-57-3v-57h496v57c-27 0-46 0-57 3-38 2-65 13-81 29-19 19-27 63-27 125v737c84-2 149-30 195-84 46-51 73-127 81-233l54 8-13 358z m-11-461v-203h203v203h-97z m620 0v-203h204v203h-87z" horiz-adv-x="1000" />

<glyph glyph-name="ubereats" unicode="&#xe84d;" d="M0 731v-209c0-78 56-130 129-130a124 124 0 0 1 89 37v-31h51v333h-51v-206c0-53-37-88-83-88-48 0-84 34-84 88v206z m307 0v-333h48v30a125 125 0 0 1 89-36c71-2 130 55 130 126s-59 129-130 127a124 124 0 0 1-88-36v122z m412-86c-70 0-127-56-127-126 0-72 57-127 132-127a130 130 0 0 1 106 52l-35 26a85 85 0 0 0-71-36c-41 0-76 29-82 69h200v16c0 72-52 126-123 126z m257-3a66 66 0 0 1-58-32v30h-48v-242h49v138c0 37 23 61 55 61h21v45c-7 0-14 0-19 0z m-259-39a77 77 0 0 0 76-62h-150a77 77 0 0 0 74 62z m-277 0c46 0 84-38 84-85 0-46-38-84-84-84a84 84 0 0 0-59 25 84 84 0 0 0-25 59 84 84 0 0 0 25 60 84 84 0 0 0 59 25z m-440-294v-332h238v57h-174v82h170v55h-170v81h174v57z m607-17v-70h-48v-56h48v-131c0-33 24-59 67-59h68l0 55h-48c-14 0-24 7-24 20v115h72v56h-71v70z m-221-64c-72 1-131-58-130-131 1-72 61-129 133-127a125 125 0 0 1 80 27v-22h63v247h-63v-22a125 125 0 0 1-80 28c-1 0-2 0-3 0z m490 0c-66 0-112-27-112-79 0-36 26-59 81-70l60-14c24-5 30-11 30-20 0-16-18-25-47-25-36 0-57 7-65 35h-64c9-51 48-86 127-86h0c73 0 114 35 114 82 0 33-24 58-75 69l-54 11c-32 6-41 12-41 23 0 15 15 24 42 24 31 0 53-8 59-35h63c-3 51-41 85-118 85z m-481-52c42-1 75-35 75-77 0-42-34-76-76-75-42 0-76 34-76 76 0 42 35 76 77 76z" horiz-adv-x="1000" />

<glyph glyph-name="uber" unicode="&#xe84e;" d="M0 518v-207c0-77 54-129 125-129 34 0 65 13 87 36v-30h49v330h-49v-204c0-52-36-87-81-87-47 0-81 34-81 87v204h-50z m310 0v-330h47v30c22-22 53-36 86-36a125 125 0 0 1 126 126 125 125 0 0 1-126 126 119 119 0 0 1-85-36v120h-48z m411-85c-70 0-123-57-123-125 0-72 55-125 127-125 44 0 80 19 104 51l-34 25c-18-24-42-35-70-35-40 0-73 29-79 69h196v15c0 72-51 125-121 125z m263-3c-27 0-46-12-58-31v29h-47v-240h47v137c0 37 23 61 54 61h20v44h-16z m-264-38c36 0 65-25 73-62h-146c8 37 38 62 73 62z m-280-1c45 0 82-37 82-83a83 83 0 0 0-82-84 83 83 0 0 0-83 84 83 83 0 0 0 83 83z" horiz-adv-x="1000" />

<glyph glyph-name="ubuntu" unicode="&#xe84f;" d="M500 850c276 0 500-224 500-500s-224-500-500-500-500 224-500 500 224 500 500 500z m137-737c-32-18-43-59-25-91 19-32 60-43 91-24 32 18 43 59 25 91-19 32-59 43-91 24z m-137 42c-29 0-57 7-82 18l-46-83c38-19 82-30 128-30 27 0 53 4 78 11 4 26 20 51 45 66 26 14 55 16 80 6 50 49 82 115 86 188l-95 2c-9-100-92-178-194-178z m-195 195c0 66 33 124 83 160l-49 81c-58-38-102-98-120-168 21-17 35-43 35-72 0-30-14-55-35-73 18-69 62-129 120-168l49 82c-50 34-83 92-83 158z m-145 67c-37 0-67-30-67-67s30-67 67-67 67 30 67 67-30 67-67 67z m340 128c102 0 185-78 194-178l95 2c-4 73-36 139-86 188-25-10-55-8-80 6-25 15-41 40-45 67-25 6-51 10-78 10-46 0-90-11-128-30l46-83c25 12 53 18 82 18z m137 42c32-19 72-8 91 24 18 32 7 73-25 91-31 19-72 8-91-24-18-32-7-73 25-91z" horiz-adv-x="1000" />

<glyph glyph-name="uploaded" unicode="&#xe850;" d="M611 272c0-106-87-192-193-192-106 0-192 86-192 192 0 257 385 257 385 0z m145-251c-55-56-129-165-338-171-227-6-415 187-416 429 0 122 32 194 118 283 51 53 292 288 292 288 85-85 40-203-5-247l-155-154c-20-20-82-81-81-186 2-133 105-243 242-241 109 2 156 56 182 82l160 160c46 45 157 84 243 0z" horiz-adv-x="1000" />

<glyph glyph-name="visa" unicode="&#xe851;" d="M380 506l-131-313h-86l-64 250c-4 15-7 21-19 27-20 11-52 21-80 27l2 9h137a38 38 0 0 0 38-32l34-181 84 213z m334-211c1 83-114 87-113 124 0 11 11 23 34 26a153 153 0 0 0 80-14l14 67a217 217 0 0 1-75 14c-80 0-136-43-137-104 0-45 40-70 71-85 31-15 42-25 42-39 0-21-25-30-48-30-41-1-65 11-83 20l-15-69c19-8 54-16 90-16 85 0 140 42 140 106m211-102h75l-65 313h-69a37 37 0 0 1-35-23l-121-290h85l17 47h104z m-90 111l43 117 24-117z m-340 202l-67-313h-80l66 313z" horiz-adv-x="1000" />

<glyph glyph-name="vlcmediaplayer" unicode="&#xe852;" d="M501 850c-36 0-44-6-44-6-7-2-14-10-17-18l-36-117c19-7 55-18 93-18 45 0 84 15 99 22l-36 113c-2 8-10 16-17 19 0 0-5 5-42 5z m149-311c-15-14-55-39-153-39-96 0-133 24-147 38l-58-184c9-15 52-65 204-65 156 0 202 56 211 70z m-358-185l-42-133h-69c-10 0-21-8-24-18l-98-318a17 17 0 0 1 0-6c0-1 0-1 0-1 0-4 1-9 1-9 1-11 11-19 21-19h838c11 0 20 8 21 19 0 0 1 5 1 9a1 1 0 0 1 0 0 13 13 0 0 1 0 2 17 17 0 0 1 0 5l-98 318c-3 10-14 18-24 18h-69l8-27c-10-20-62-99-262-99-192 0-243 72-255 96z" horiz-adv-x="1000" />

<glyph glyph-name="vodafone" unicode="&#xe853;" d="M500 850a500 500 0 0 1-500-500 500 500 0 0 1 500-500 500 500 0 0 1 500 500 500 500 0 0 1-500 500m177-47c13 0 27-1 36-4-90-19-163-103-162-199 0-2 0-5 0-7 152-37 220-128 220-255 2-126-98-265-267-265-136 0-279 116-279 303-1 124 67 243 152 314 83 69 197 113 300 113z" horiz-adv-x="1000" />

<glyph glyph-name="whatsapp" unicode="&#xe854;" d="M728 251c-12 6-73 36-85 40-11 4-19 6-27-6-9-13-32-40-40-49-7-8-14-9-26-3-13 6-53 20-100 62-37 33-62 73-69 85-7 13-1 20 6 26 5 5 12 14 18 21 6 8 8 13 13 21 4 8 2 16-2 22-3 6-27 67-38 92-10 24-20 21-28 21-7 0-15 0-23 0-9 0-22-3-33-15-12-12-44-42-44-103 0-61 45-120 51-128 6-9 87-134 211-187 30-13 53-21 71-26 30-10 57-9 78-5 24 3 73 30 84 58 10 29 10 54 7 59-3 6-12 9-24 15m-226-309h0a411 411 0 0 0-210 58l-15 9-156-41 42 152-10 15a411 411 0 0 0-63 220c0 227 185 411 412 411 110 0 214-43 291-120a409 409 0 0 0 121-292c0-227-185-412-412-412m351 763a492 492 0 0 1-351 145c-273 0-495-222-495-495 0-88 22-173 66-248l-71-257 263 69a495 495 0 0 1 237-60h0c273 0 496 222 496 495a493 493 0 0 1-145 351z" horiz-adv-x="1000" />

<glyph glyph-name="windowsterminal" unicode="&#xe855;" d="M340 600v125h320v-125h-320z m-21 125h-277c-23 0-42-19-42-42v-83h319v125z m639 0h-278v-125h320v83c0 23-19 42-42 42z m-958-146h1000v-562c0-23-19-42-42-42h-916c-23 0-42 19-42 42v562z m479-479c0-12 9-21 21-21h333c13 0 21 9 21 21v63c0 12-8 20-21 20h-333c-12 0-21-8-21-20v-63z m-216 190l-130-130c-10-10-10-25 0-33l38-37c10-11 25-11 33 0l184 183a22 22 0 0 1 0 33l-184 184c-8 8-25 8-33 0l-38-38c-10-8-10-23 0-33l130-129z" horiz-adv-x="1000" />

<glyph glyph-name="windows" unicode="&#xe856;" d="M0 706l406 57v-394h-406m456 400l544 81v-475h-544m-456-50h406v-394l-406 56m456 338h544v-475l-537 75" horiz-adv-x="1000" />

<glyph glyph-name="windows95" unicode="&#xe857;" d="M238 784l-31-3-10-23 30 1z m58-39l-41-6-13-33 40 5 14 34z m-92-42l-30-2-10-24 30 1z m155-13l-54-3-16-40 53 2z m78-24l-66-3-23-56 66 4 23 55z m-175-1l-40-7-15-33 41 5z m256-28l-78-6-26-63 78 6z m122-9c-4 0-9 0-14 0l-32-77c58 1 105-4 141-16l-73-175c-40 12-87 18-140 16l-22-54a365 365 0 0 0 140-17l-69-167c-53 11-100 17-142 14l-32-78c140 18 264-34 375-158l228 549c-97 108-217 162-360 163z m-27 0l-84-5-29-70 85 8z m-441-2l-30-2-10-23h30l10 25z m153-17l-53-3-17-40 53 2z m-94-21l-42-7-14-33 41 5z m172-3l-66-3-23-56 66 4 23 55z m82-29l-78-5-27-64 79 6z m95-8l-84-5-29-71 85 8 28 68z m-441-3l-30-1-10-23h30l10 25z m155-12l-55-3-16-40 54 1z m493-10a280 280 0 0 0 116-72l-73-176c-26 24-48 40-67 47l-50 21z m-590-15l-40-7-15-33 40 5 15 35z m175 0l-67-3-23-56 67 4z m81-28l-78-7-26-62 78 5 26 64z m94-12l-84-5-29-69 85 6z m-442-4l-30-1-10-23 30 0z m155-11l-53-3-18-40 54 1 17 42z m78-25l-66-3-23-56 66 3 23 56z m-174-2l-41-6-14-33 40 5z m256-26l-78-7-28-63 80 6z m94-12l-84-5-29-69 84 7z m-440-1l-31-2-10-23 30 0z m153-15l-54-3-17-41 54 2z m-95-22l-41-7-14-33 40 5 15 35z m173-3l-67-3-23-57 67 4z m81-28l-79-6-25-64 78 6z m95-9l-84-5-29-70 85 7 28 68z m-441-2l-31-3-9-23 30 1 10 25z m154-13l-53-3-17-41 54 2 16 42z m497-3c45-12 85-34 118-67l-72-175c-37 32-76 55-117 70l71 172z m-418-22l-66-3-23-55 65 2 24 56z m-174 0l-42-7-13-33 40 5z m256-28l-80-7-25-63 78 6 27 64z m93-14l-85-5-28-70 84 7z m-286-13l-55-3-16-41 53 2z m78-25l-66-3-24-55 67 3z m81-29l-78-6-26-63 78 6z m93-13l-84-5-29-70 85 8 28 67z" horiz-adv-x="1000" />

<glyph glyph-name="windowsxp" unicode="&#xe858;" d="M388 791c-50-1-108-13-181-43l-95-332c77 32 138 47 189 46a317 317 0 0 0 182-66l95 330c-52 35-108 66-190 65z m239-100l-94-332c84-57 185-103 371-20l96 331h-2c-193-81-287-36-371 21z m-351-290c-50 0-108-13-181-43l-95-332c194 80 286 33 370-23l97 333c-53 36-109 67-191 65z m241-97l0-1 0 1z m0-1l-95-329c84-57 177-102 371-22l95 330c-193-80-286-35-371 21z" horiz-adv-x="1000" />

<glyph glyph-name="woocommerce" unicode="&#xe859;" d="M31 451a31 31 0 0 1-31-32v-105c0-17 14-31 32-31h130l60-34-14 34h99a32 32 0 0 1 32 31v105a32 32 0 0 1-32 32h-276z m113-19h2c2 0 5-1 7-2a11 11 0 0 0 4-8 12 12 0 0 0-1-7c-5-10-10-27-13-50-4-23-5-40-4-53a16 16 0 0 0-2-9 9 9 0 0 0-7-5c-4 0-8 2-11 5-13 13-23 33-31 59-9-17-16-31-20-40-8-15-15-23-21-24-3 0-7 3-9 10-8 18-15 53-23 105a12 12 0 0 0 2 9c2 3 5 4 9 4 7 1 11-2 12-9 4-29 9-54 14-74l30 58c3 5 6 8 10 8 7 0 10-3 12-12 3-18 8-34 13-47 4 35 10 61 18 76a11 11 0 0 0 9 6z m54-15c3 0 5 0 8 0 9-3 17-8 22-17 4-7 7-16 7-27 0-14-4-27-11-39-9-14-19-21-33-21a37 37 0 0 0-7 1 32 32 0 0 0-22 16 54 54 0 0 0-7 28c0 14 3 27 11 39 8 13 19 20 32 20z m87 0c2 0 5 0 8 0 9-3 17-8 22-17 4-7 6-16 6-27 0-14-3-27-10-39-9-14-20-21-33-21a37 37 0 0 0-8 1 32 32 0 0 0-22 16 54 54 0 0 0-6 28c0 14 3 27 11 39 8 13 19 20 32 20z m185-2c-13 0-23-4-30-12-7-9-11-21-11-36 0-16 4-29 11-38 7-8 17-13 31-13 13 0 23 5 30 13 7 9 11 21 11 37s-4 28-11 37c-7 8-17 12-31 12z m-61 0a47 47 0 0 1-35-13c-9-9-14-21-14-35 0-15 5-28 14-37 9-9 21-14 36-14 4 0 9 1 14 2v23c-5-2-9-2-13-2a23 23 0 0 0-17 7c-5 5-7 12-7 20 0 8 2 15 7 20a21 21 0 0 0 16 7c4 0 9-1 14-2v22a58 58 0 0 1-15 2z m517 0a47 47 0 0 1-35-13c-9-9-14-21-14-35 0-15 5-28 14-37 9-9 21-14 36-14 4 0 9 1 14 2v23c-5-2-9-2-12-2a23 23 0 0 0-18 7c-4 5-7 12-7 20 0 8 3 15 7 20a21 21 0 0 0 16 7c5 0 9-1 14-2v22a58 58 0 0 1-15 2z m-400-2l-12-95h24l7 65 16-65h17l16 65 7-65h25l-13 95h-33l-5-21c-1-6-2-11-3-17l-3-15a1249 1249 0 0 1-11 53h-32z m116 0l-13-95h25l6 65 17-65h17l15 65 7-65h25l-12 95h-33l-5-21c-1-6-3-11-4-17l-3-15c-2 15-6 32-10 53h-32z m166 0v-95h25v43h1l20-42h27l-20 42a25 25 0 0 1 15 23 25 25 0 0 1-10 21c-7 5-17 8-29 8h-29z m140 0v-95h52v21h-26v17h22v19h-22v18h26v20h-52z m-199 0v-95h51v20h-26v18h23v19h-23v18h26v20h-51z m84-18c6 0 10-1 13-3 3-2 4-5 4-10 0-6-6-10-17-10v23z m-634-1c-4 0-9-3-13-9a45 45 0 0 1-8-26c0-4 1-9 3-13 2-5 4-8 8-9 3 0 7 1 11 5 5 4 8 11 10 20 1 3 1 7 1 10 0 4 0 9-2 13-2 5-5 8-8 9a10 10 0 0 1-2 0z m87 0c-5 0-9-3-13-9a45 45 0 0 1-8-26c0-4 1-9 2-13 2-5 5-8 9-9 3 0 7 1 11 5 5 4 8 11 10 20 1 3 1 7 1 10 0 4-1 9-2 13-2 5-5 8-8 9a10 10 0 0 1-2 0z m184 0c10 0 15-9 15-28 0-11-2-19-4-23a12 12 0 0 0-11-5 11 11 0 0 0-10 5c-2 4-4 12-4 24 0 18 5 27 14 27z" horiz-adv-x="1000" />

<glyph glyph-name="xbox" unicode="&#xe85a;" d="M171-26c88-77 203-124 329-124 126 0 241 47 329 124 79 79-180 363-329 475-149-112-407-396-329-475z m465 600c104-123 312-430 253-538 69 86 111 195 111 314 0 139-57 265-149 356 0 0-1 0-3 1-3 1-6 2-12 2-24 0-83-18-200-135z m-484 133c-2-1-3-1-3-1-92-91-149-217-149-356 0-119 42-228 111-314-58 109 149 415 253 538-117 117-175 135-200 135-5 0-9-1-12-2v0z m348-5s-123 72-218 75c-38 2-61-12-64-14 90 60 185 87 281 87h1c97 0 192-27 282-87-3 2-26 16-63 14-96-3-219-75-219-75v0z" horiz-adv-x="1000" />

<glyph glyph-name="xiaomi" unicode="&#xe85b;" d="M832 17a13 13 0 0 0-14 13v640a13 13 0 0 0 14 13h154a13 13 0 0 0 14-13v-640a13 13 0 0 0-14-13z m-259 0s-13 3-13 13v393a91 91 0 0 1-92 94h-289c-16 0-12-13-12-13v-474c0-11-13-13-13-13h-140a13 13 0 0 0-14 13v640a13 13 0 0 0 14 13h536a178 178 0 0 0 177-178l0-475a13 13 0 0 0-13-13z m-288 0a13 13 0 0 0-12 12v375a13 13 0 0 0 12 13h157a13 13 0 0 0 12-13v-375a13 13 0 0 0-12-12z" horiz-adv-x="1000" />

<glyph glyph-name="youtube" unicode="&#xe85c;" d="M979 592a126 126 0 0 1-88 89c-78 21-391 21-391 21s-313 0-391-21a126 126 0 0 1-88-89c-21-78-21-242-21-242s0-164 21-242a126 126 0 0 1 88-89c78-21 391-21 391-21s313 0 391 21a126 126 0 0 1 88 89c21 78 21 242 21 242s0 164-21 242z m-581-391v298l261-149-261-149z" horiz-adv-x="1000" />

<glyph glyph-name="youtubegaming" unicode="&#xe85d;" d="M1000 300v250l-250 150-250-150-250 150-250-150v-250l500-300z m-650 100h-100v-100h-50v100h-100v50h100v100h50v-100h100z m300-100a50 50 0 0 0-50 50c0 28 23 50 50 50 28 0 50-22 50-50 0-27-22-50-50-50z m150 100a50 50 0 0 0-50 50c0 28 23 50 50 50 28 0 50-22 50-50 0-27-22-50-50-50z" horiz-adv-x="1000" />

<glyph glyph-name="youtubemusic" unicode="&#xe85e;" d="M500 850c-276 0-500-224-500-500s224-500 500-500 500 224 500 500-224 500-500 500z m0-796c-163 0-296 133-296 296s133 296 296 296 296-132 296-296-132-296-296-296z m0 556c-143 0-259-117-259-260s116-259 259-259 260 116 260 259-117 260-260 260z m-96-407v295l255-148-255-147z" horiz-adv-x="1000" />

<glyph glyph-name="youtubetv" unicode="&#xe85f;" d="M908 408h-26v-137h-25v137h-26v21h77v-21z m6 21h27l8-71c3-20 5-38 7-62h1c3 24 5 41 8 62l8 71h27l-26-158h-34l-26 158z m-657-16a33 33 0 0 1-23 24c-20 5-103 5-103 5s-82 0-102-5a33 33 0 0 1-24-24c-5-20-5-63-5-63s0-43 5-63a33 33 0 0 1 24-23c20-6 102-6 102-6s83 0 103 6a34 34 0 0 1 23 23c6 20 6 63 6 63s0 43-6 63z m-152-102v78l68-39-68-39z m276-36a27 27 0 0 0-11 16 113 113 0 0 0-3 29v17a99 99 0 0 0 4 30 30 30 0 0 0 12 16 39 39 0 0 0 21 6c8 0 15-2 20-6 6-4 10-9 11-16 3-10 4-20 4-30v-17c0-10-1-19-4-29a29 29 0 0 0-11-17c-5-3-12-5-21-5-9 0-16 2-22 6z m30 18c1 3 2 10 2 18v36a57 57 0 0 1-2 18 8 8 0 0 1-8 6 8 8 0 0 1-7-6c-2-6-3-12-3-18v-36c0-9 1-15 3-18 0-4 4-6 7-6a8 8 0 0 1 8 6z m370 27v-6c0-5 0-11 0-16a16 16 0 0 1 3-8 8 8 0 0 1 7-3 8 8 0 0 1 8 5c1 3 2 8 2 15l22-2a23 23 0 0 0 0-4c0-10-2-18-8-24-6-5-14-7-25-7-13 0-22 4-27 12s-8 20-8 37v20c0 17 3 30 8 38 6 8 15 12 28 12 9 0 16-2 20-5 5-4 9-9 10-15 3-10 4-19 3-29v-20l-43 0z m3 49a15 15 0 0 1-3-8 228 228 0 0 1 0-17v-8h19v8c0 5-1 11-1 17a16 16 0 0 1-3 8 7 7 0 0 1-6 2 7 7 0 0 1-6-2z m-466-47l-29 107h26l10-48c2-12 4-22 6-31h1c0 6 2 16 5 31l11 48h26l-30-107v-51h-26v51h0z m205 64v-115h-21l-2 14h-1c-5-10-13-16-24-16-8 0-14 3-17 8-4 5-6 13-6 23v86h26v-84a28 28 0 0 1 2-11 6 6 0 0 1 6-3 12 12 0 0 1 6 2 12 12 0 0 1 5 5v91h26z m133 0v-115h-21l-2 14h-1c-5-10-13-16-24-16-8 0-14 3-17 8-4 5-6 13-6 23v86h26v-84a28 28 0 0 1 2-11 6 6 0 0 1 6-3 12 12 0 0 1 6 2 12 12 0 0 1 5 5v91h26z m-63 22h-26v-137h-25v137h-26v21h77v-21z m148-40c-1 7-4 13-7 16a21 21 0 0 1-15 5 23 23 0 0 1-13-4 27 27 0 0 1-10-11h0v61h-25v-164h22l2 11h1a22 22 0 0 1 9-9 29 29 0 0 1 13-4 21 21 0 0 1 20 12c4 8 6 21 6 38v18a203 203 0 0 1-3 31z m-23-47c0-6-1-13-1-20a21 21 0 0 0-4-10 8 8 0 0 0-6-3 11 11 0 0 0-6 2 13 13 0 0 0-5 4v66a18 18 0 0 0 5 7 9 9 0 0 0 7 3c2 0 5-1 6-3 2-3 3-6 3-10 1-7 1-14 1-21l0-15z" horiz-adv-x="1000" />

<glyph glyph-name="youtubestudio" unicode="&#xe860;" d="M872 301c2 16 3 32 3 49s-1 33-3 49l105 83a25 25 0 0 1 6 32l-100 173a25 25 0 0 1-30 11l-125-50a365 365 0 0 1-84 49l-19 132a24 24 0 0 1-25 21h-200c-12 0-23-9-24-21l-19-132a384 384 0 0 1-85-49l-124 50a24 24 0 0 1-31-11l-100-173a25 25 0 0 1 6-32l106-83c-2-16-4-32-4-49s2-33 4-49l-106-82a25 25 0 0 1-6-32l100-173c6-11 20-16 31-11l124 50c26-20 54-37 85-49l19-133a24 24 0 0 1 24-21h200c13 0 23 9 25 21l19 133a384 384 0 0 1 84 49l125-50c11-5 24 0 30 11l100 173a25 25 0 0 1-6 32l-105 82z m-472-101v300l250-150-250-150z" horiz-adv-x="1000" />

<glyph glyph-name="emo-happy" unicode="&#xe861;" d="M261 800c-60 0-109-65-109-144 0-80 49-145 109-145s110 65 110 145c0 79-49 144-110 144z m477 0c-61 0-110-65-110-144 0-80 49-145 110-145 60 0 110 65 110 145 0 79-50 144-110 144z m208-599c-13 0-27-5-37-16-4-4-8-8-12-12-111-109-253-164-396-165-142-2-285 50-396 155l-3 3-12 12c-21 21-54 20-75-1-20-21-20-55 1-76 3-4 8-8 14-14l3-3c132-124 301-186 469-184 169 1 337 67 468 195 5 5 9 10 14 14 20 22 20 56-1 77-10 10-23 15-37 15z" horiz-adv-x="999" />

<glyph glyph-name="emo-wink" unicode="&#xe862;" d="M261 800c-60 0-109-65-109-144 0-80 49-145 109-145s110 65 110 145c0 79-49 144-110 144z m343-98c-29 0-54-24-54-54 0-30 25-54 54-54l267 0c30 0 54 24 54 54 0 30-24 54-54 54l-267 0z m342-501c-13 0-27-5-37-16-4-4-8-8-12-12-111-109-253-164-396-165-142-2-285 50-396 155l-3 3-12 12c-21 21-54 20-75-1-20-21-20-55 1-76 3-4 8-8 14-14l3-3c132-124 301-186 469-184 169 1 337 67 468 195 5 5 9 10 14 14 20 22 20 56-1 77-10 10-23 15-37 15z" horiz-adv-x="999" />

<glyph glyph-name="emo-wink2" unicode="&#xe863;" d="M664 800c-61 0-110-65-110-144 0-80 49-145 110-145 60 0 110 65 110 145 0 79-50 144-110 144z m-343-98l-267 0c-30 0-54-24-54-54 0-30 24-54 54-54l267 0c30 0 54 24 54 54 0 30-24 54-54 54z m-262-361c-6 0-13-1-19-3-27-10-41-41-31-68 46-127 136-228 249-289 22-12 45-22 69-31 58-21 120-33 184-33 57 0 113 9 166 27 10 3 20 7 30 11 11 4 22 8 31 12l0 1 0 0 0 0c26 12 38 44 25 71-13 26-44 37-70 25l0 0c-9-4-17-8-24-11-8-3-17-6-25-8-43-14-88-22-133-22-51 0-101 10-148 27-19 7-37 15-55 25-90 48-163 130-200 231-8 21-28 35-49 35z" horiz-adv-x="774" />

<glyph glyph-name="spin1" unicode="&#xe864;" d="M496 850c-176 0-331-90-421-226-18-27-33-55-46-85-12-29-21-60-28-92 0 0 0-1 0-1l0 0 0 0c0-1 0-2 0-2 0-7 5-12 11-12l101 0c5 0 10 4 11 9 29 113 109 206 214 253 20 10 41 17 63 23 31 7 62 11 95 11l0 0 0 0 0 0c25 0 50-2 74-7 5-1 10-2 14-3 6-1 10-3 14-4l0 0c5-1 11 1 13 6l51 87c0 0 1 1 1 2 2 6-1 13-7 15-22 7-43 13-65 17-5 1-9 1-13 2-27 5-54 7-82 7l0 0 0 0z m327-114c-5 0-9-2-11-6l-50-87c-3-4-2-10 2-14 29-29 54-63 73-101 4-7 7-14 11-22 19-46 30-97 30-151l0 0 0 0c0-77-22-149-62-209-7-11-15-23-24-33-9-11-18-21-28-31l0 0 0 0 0 0c-4-4-5-10-2-14l50-87c0-1 1-2 2-3 4-5 11-5 16-1 58 52 104 117 134 190 6 15 11 29 15 44 14 46 21 94 21 144 0 108-34 209-92 291-11 16-23 31-37 46-13 14-26 28-41 41l0 0c-1 1-1 1-2 1-2 1-4 2-5 2z m-811-468l0 0c-1 0-2 0-3 0-6-1-10-8-9-14 34-166 149-302 302-366 30-12 61-21 93-28 32-6 66-10 100-10l0 0 0 0c40 0 79 5 117 14 7 1 14 3 22 5 6 2 13 5 20 7 1 0 2 1 3 1 6 3 8 10 4 16l-50 87c-3 5-8 7-13 6-14-4-28-7-42-9-3-1-6-1-8-2-18-2-35-3-53-3l0 0 0 0c-128 0-242 63-311 160-1 0-1 0-1 0-13 19-25 40-35 61-10 21-18 43-24 65-1 6-6 10-11 10l-101 0z" horiz-adv-x="1000" />

<glyph glyph-name="spin2" unicode="&#xe865;" d="M46 144l0 0c0 0-1 0-1 0-8 18-15 37-21 55-6 19-11 38-15 58-19 99-8 203 35 298 3 6 10 8 15 5 1 0 2 0 2-1l0 0 80-59c5-3 6-9 4-14-5-12-9-25-12-37-4-13-7-26-9-40-11-67-3-137 23-201 2-5 0-10-4-13l0 0-80-56c-5-4-12-2-16 3-1 0-1 1-1 2l0 0z m120 574l0 0c0 1 0 1 0 1 15 13 30 25 46 37 16 11 33 22 51 31 89 50 192 72 297 60 6-1 10-6 10-13 0-1-1-1-1-2l0 0-31-94c-2-5-8-8-13-7-13 0-27 0-40 0-14-1-27-2-40-4-68-11-133-40-186-84-4-3-10-3-14 0l0 0-79 58c-5 3-6 11-2 16 0 0 1 1 2 1l0 0z m588 65l0 0c0 0 1 0 1 0 17-10 34-21 50-32 16-12 31-25 46-38 74-69 127-160 148-262 2-6-2-12-9-13-1 0-1 0-2 0l0 0-100 1c-5 0-10 4-11 9-3 13-8 26-12 38-5 12-10 25-17 36-31 61-78 113-137 150-5 3-6 8-5 13l0 0 31 92c2 6 9 9 15 7 1 0 2-1 2-1l0 0z m244-535l0 0c0 0 0 0 0 0-4-20-9-39-15-57-7-19-14-37-22-55-44-92-114-170-205-221-6-3-13-1-16 4 0 1-1 2-1 2l0 0-30 94c-2 6 1 12 6 14 11 7 22 15 32 23 11 9 21 18 30 27 49 48 84 109 101 176 2 5 6 8 11 8l0 0 98-1c6 0 11-5 11-11 0-1 0-2 0-3l0 0z m-438-395l0 0c0 0 0 0 0 0-20-2-40-3-60-3-20 0-40 1-59 4-102 12-198 54-276 125-5 4-5 11 0 16 0 0 1 1 1 1l0 0 81 58c5 3 12 2 16-2 10-8 20-16 32-23 11-7 22-14 34-20 62-31 131-45 200-41 6 0 10-3 12-8l0 0 29-92c2-6-1-12-7-14-1-1-2-1-3-1l0 0z" horiz-adv-x="1000" />

<glyph glyph-name="spin3" unicode="&#xe866;" d="M494 850c-266 0-483-210-494-472-1-19 13-20 13-20l84 0c16 0 19 10 19 18 10 199 176 358 378 358 107 0 205-45 273-118l-58-57c-11-12-11-27 5-31l247-50c21-5 46 11 37 44l-58 227c-2 9-16 22-29 13l-65-60c-89 91-214 148-352 148z m409-508c-16 0-19-10-19-18-10-199-176-358-377-358-108 0-205 45-274 118l59 57c10 12 10 27-5 31l-248 50c-21 5-46-11-37-44l58-227c2-9 16-22 30-13l64 60c89-91 214-148 353-148 265 0 482 210 493 473 1 18-13 19-13 19l-84 0z" horiz-adv-x="1000" />

<glyph glyph-name="spin4" unicode="&#xe867;" d="M498 850c-114 0-228-39-320-116l0 0c173 140 428 130 588-31 134-134 164-332 89-495-10-29-5-50 12-68 21-20 61-23 84 0 3 3 12 15 15 24 71 180 33 393-112 539-99 98-228 147-356 147z m-409-274c-14 0-29-5-39-16-3-3-13-15-15-24-71-180-34-393 112-539 185-185 479-195 676-31l0 0c-173-140-428-130-589 31-134 134-163 333-89 495 11 29 6 50-12 68-11 11-27 17-44 16z" horiz-adv-x="1001" />

<glyph glyph-name="spin5" unicode="&#xe868;" d="M462 850c-6 0-11-5-11-11l0-183 0 0c0-6 5-11 11-11l69 0c1 0 1 0 1 0 7 0 12 5 12 11l0 183 0 0c0 6-5 11-12 11l-69 0c0 0 0 0-1 0z m250-47c-4 1-8-2-10-5l-91-158 0 0c-4-6-2-13 4-16l60-34c0-1 0-1 0-1 6-3 13-1 16 4l91 158c3 6 2 13-4 16l-61 35c-1 1-3 1-5 1z m-428-2c-2 0-4-1-6-2l-61-35c-5-3-7-10-4-16l91-157c0 0 0 0 0 0 3-6 10-8 16-5l61 35c5 4 7 11 4 16l-91 157c0 1 0 1 0 1-2 4-6 6-10 6z m620-163c-2 0-4 0-6-1l-157-91c0 0 0 0 0 0-6-3-8-10-5-16l35-61c4-5 11-7 16-4l157 91c1 0 1 0 1 0 6 3 7 11 4 16l-35 61c-2 4-6 6-10 5z m-810-4c-5 0-9-2-11-6l-35-61c-3-5-1-12 4-15l158-91 0 0c6-4 13-2 16 4l35 60c0 0 0 0 0 0 3 6 1 13-4 16l-158 91c-2 1-4 2-5 2z m712-235l0 0c-6 0-11-5-11-11l0-69c0-1 0-1 0-1 0-7 5-12 11-12l183 0 0 0c6 0 11 5 11 12l0 69c0 0 0 0 0 1 0 6-5 11-11 11l-183 0z m-794-5l0 0c-7 0-12-5-12-12l0-69c0 0 0 0 0-1 0-6 5-11 12-11l182 0 0 0c6 0 11 5 11 11l0 69c0 1 0 1 0 1 0 7-5 12-11 12l-182 0z m772-153c-4 0-8-2-10-6l-34-60c-1 0-1 0-1 0-3-6-1-13 4-16l158-91c6-3 13-1 16 4l35 61c3 5 1 12-4 15l-158 92 0 0c-2 1-4 1-6 1z m-566-5c-1 0-3 0-5-1l-157-91c0 0-1 0-1 0-5-3-7-10-4-16l35-61c3-5 10-7 16-4l157 91c0 0 0 0 0 0 6 3 8 10 5 16l-35 61c-3 3-7 6-11 5z m468-121c-2 0-4 0-6-1l-61-35c-5-4-7-11-4-16l91-157c0-1 0-1 0-1 3-6 11-7 16-4l61 35c5 3 7 10 4 16l-91 157c0 0 0 0 0 0-2 4-6 6-10 6z m-367-2c-4 0-8-2-10-6l-91-158c-3-6-1-13 4-16l61-35c5-3 12-1 15 4l92 158 0 0c3 6 1 13-5 16l-60 35c0 0 0 0 0 0-2 1-4 1-6 2z m149-58c-7 0-12-5-12-11l0-183 0 0c0-6 5-11 12-11l69 0c0 0 0 0 1 0 6 0 11 5 11 11l0 183 0 0c0 6-5 11-11 11l-69 0c-1 0-1 0-1 0z" horiz-adv-x="1000" />

<glyph glyph-name="spin6" unicode="&#xe869;" d="M855 9c-189-190-520-172-705 13-190 190-200 494-28 695 11 13 21 26 35 34 36 23 85 18 117-13 30-31 35-76 16-112-5-9-9-15-16-22-140-151-145-379-8-516 153-153 407-121 542 34 106 122 142 297 77 451-83 198-305 291-510 222l0 1c236 82 492-24 588-252 71-167 37-355-72-493-11-15-23-29-36-42z" horiz-adv-x="1000" />

<glyph glyph-name="firefox" unicode="&#xe86a;" d="M504-137c-216 0-387 126-466 306-87 200-17 521 139 663l-6-156c8 9 68 12 78-1 32 62 136 109 220 110-32-26-106-124-99-174 40-13 103-13 136-15 10-6 8-40-12-68-27-36-97-49-97-49l8-106-77 38c-26-64 35-120 97-110 69 12 94 57 142 54 49-2 68-29 61-54-7-30-59-25-59-25-44-70-103-100-198-92 144-119 338-11 387 86 50 97 7 242-43 283 59-25 99-51 120-107 11 124-46 266-149 349 193-56 311-205 314-444 3-239-211-488-496-488z" horiz-adv-x="1000" />

<glyph glyph-name="chrome" unicode="&#xe86b;" d="M498 850c-147-1-291-67-387-186l154-237c39 111 150 182 267 170l414-22c-42 84-108 157-196 208-79 46-166 67-252 67z m-416-226c-52-79-82-173-82-274 0-250 183-457 423-494l128 252c-116-22-233 39-281 146l-188 370z m885-94l-282-15c76-89 82-221 13-317l-226-347c94-6 190 15 278 66 216 125 304 387 217 613z m-467-11c-93 0-169-76-169-169s76-169 169-169 169 76 169 169-76 169-169 169z" horiz-adv-x="1000" />

<glyph glyph-name="opera-1" unicode="&#xe86c;" d="M426-150c-568 0-568 1000 0 1000s567-1000 0-1000z m0 92c237 0 237 816 0 816s-238-816 0-816z" horiz-adv-x="851" />

<glyph glyph-name="ie" unicode="&#xe86d;" d="M844 850c-81-1-181-46-281-106-239 35-498-103-509-386 60 93 224 257 367 301l0-13c-179-90-571-612-360-773 90-69 310 37 344 76 29-5 59-8 89-8 201 0 371 124 424 292l-301 0c-13-56-56-92-121-92-102 0-126 68-126 151l561 0c29 204-114 385-306 439 174 115 363 161 299-104l20 0c35 109 21 191-38 213-18 7-37 10-58 10-1 0-3 0-4 0z m-352-303c79 0 128-48 128-129l-252 0c0 77 46 129 124 129z m-367-422c58-83 149-145 256-171-77-58-226-84-266-52-48 40-36 124 10 223z" horiz-adv-x="944" />

<glyph glyph-name="glass" unicode="&#xe86e;" d="M948 746q0-19-24-43l-353-353v-429h179q15 0 25-10t11-25-11-25-25-11h-500q-14 0-25 11t-11 25 11 25 25 10h179v429l-353 353q-24 24-24 43 0 13 10 21t21 9 24 3h786q13 0 24-3t21-9 10-21z" horiz-adv-x="1000" />

<glyph glyph-name="music" unicode="&#xe86f;" d="M857 725v-625q0-28-19-50t-48-33-58-18-53-6-54 6-58 18-48 33-19 50 19 50 48 33 58 18 54 6q58 0 107-22v300l-429-132v-396q0-28-19-50t-48-33-58-18-53-6-54 6-58 18-48 33-19 50 19 50 48 34 58 17 54 6q58 0 107-21v539q0 17 10 32t28 20l464 142q7 3 16 3 22 0 38-16t15-38z" horiz-adv-x="857.1" />

<glyph glyph-name="search" unicode="&#xe870;" d="M643 386q0 103-73 176t-177 74-177-74-73-176 73-177 177-73 177 73 73 177z m286-465q0-29-22-50t-50-21q-30 0-50 21l-191 191q-100-69-223-69-80 0-153 31t-125 84-84 125-31 153 31 152 84 126 125 84 153 31 153-31 125-84 84-126 31-152q0-123-69-223l191-191q21-21 21-51z" horiz-adv-x="928.6" />

<glyph glyph-name="mail" unicode="&#xe871;" d="M929 11v428q-18-20-39-36-149-115-238-189-28-24-46-37t-48-28-57-13h-2q-26 0-57 13t-48 28-46 37q-88 74-238 189-21 16-39 36v-428q0-7 6-13t12-5h822q7 0 12 5t6 13z m0 586v14t-1 7-1 7-3 5-5 4-8 2h-822q-7 0-12-6t-6-12q0-94 83-159 107-84 223-176 4-3 20-17t25-21 25-17 28-16 24-5h2q11 0 24 5t28 16 25 17 25 21 20 17q116 92 224 176 30 24 56 65t26 73z m71 21v-607q0-37-26-63t-63-27h-822q-36 0-63 27t-26 63v607q0 37 26 63t63 26h822q37 0 63-26t26-63z" horiz-adv-x="1000" />

<glyph glyph-name="user" unicode="&#xe872;" d="M714 69q0-60-35-104t-84-44h-476q-49 0-84 44t-35 104q0 48 5 90t17 85 33 73 52 50 76 19q73-72 174-72t175 72q42 0 75-19t52-50 33-73 18-85 4-90z m-143 495q0-88-62-151t-152-63-151 63-63 151 63 152 151 63 152-63 62-152z" horiz-adv-x="714.3" />

<glyph glyph-name="users" unicode="&#xe873;" d="M331 350q-90-3-148-71h-75q-45 0-77 22t-31 66q0 197 69 197 4 0 25-11t54-24 66-12q38 0 75 13-3-21-3-37 0-78 45-143z m598-356q0-66-41-105t-108-39h-488q-68 0-108 39t-41 105q0 30 2 58t8 61 14 61 24 54 35 45 48 30 62 11q6 0 24-12t41-26 59-27 76-12 75 12 60 27 41 26 24 12q34 0 62-11t47-30 35-45 24-54 15-61 8-61 2-58z m-572 713q0-59-42-101t-101-42-101 42-42 101 42 101 101 42 101-42 42-101z m393-214q0-89-63-152t-151-62-152 62-63 152 63 151 152 63 151-63 63-151z m321-126q0-43-31-66t-77-22h-75q-57 68-147 71 45 65 45 143 0 16-3 37 37-13 74-13 33 0 67 12t54 24 24 11q69 0 69-197z m-71 340q0-59-42-101t-101-42-101 42-42 101 42 101 101 42 101-42 42-101z" horiz-adv-x="1071.4" />

<glyph glyph-name="videocam" unicode="&#xe874;" d="M1000 654v-608q0-23-22-32-7-3-14-3-15 0-25 10l-225 225v-92q0-67-47-114t-113-47h-393q-67 0-114 47t-47 114v392q0 67 47 114t114 47h393q66 0 113-47t47-114v-92l225 225q10 10 25 10 7 0 14-2 22-10 22-33z" horiz-adv-x="1000" />

<glyph glyph-name="picture" unicode="&#xe875;" d="M357 529q0-45-31-76t-76-32-76 32-31 76 31 76 76 31 76-31 31-76z m572-215v-250h-786v107l178 179 90-89 285 285z m53 393h-893q-7 0-12-5t-6-13v-678q0-7 6-13t12-5h893q7 0 13 5t5 13v678q0 8-5 13t-13 5z m89-18v-678q0-37-26-63t-63-27h-893q-36 0-63 27t-26 63v678q0 37 26 63t63 27h893q37 0 63-27t26-63z" horiz-adv-x="1071.4" />

<glyph glyph-name="camera" unicode="&#xe876;" d="M536 475q66 0 113-47t47-114-47-113-113-47-114 47-47 113 47 114 114 47z m393 232q59 0 101-42t41-101v-500q0-59-41-101t-101-42h-786q-59 0-101 42t-42 101v500q0 59 42 101t101 42h125l28 76q11 27 39 47t58 20h286q29 0 57-20t39-47l29-76h125z m-393-643q103 0 176 74t74 176-74 177-176 73-177-73-73-177 73-176 177-74z" horiz-adv-x="1071.4" />

<glyph glyph-name="camera-alt" unicode="&#xe877;" d="M518 386q0 8-5 13t-13 5q-37 0-63-27t-26-63q0-7 5-12t13-6 12 6 5 12q0 23 16 38t38 16q8 0 13 5t5 13z m125-73q0-59-42-101t-101-42-101 42-42 101 42 101 101 42 101-42 42-101z m-572-320h858v71h-858v-71z m643 320q0 89-62 152t-152 63-151-63-63-152 63-151 151-63 152 63 62 151z m-571 358h214v72h-214v-72z m-72-107h858v143h-462l-36-71h-360v-72z m929 143v-714q0-30-21-51t-50-21h-858q-29 0-50 21t-21 51v714q0 30 21 51t50 21h858q29 0 50-21t21-51z" horiz-adv-x="1000" />

<glyph glyph-name="th-large" unicode="&#xe878;" d="M429 279v-215q0-29-22-50t-50-21h-286q-29 0-50 21t-21 50v215q0 29 21 50t50 21h286q29 0 50-21t22-50z m0 428v-214q0-29-22-50t-50-22h-286q-29 0-50 22t-21 50v214q0 29 21 50t50 22h286q29 0 50-22t22-50z m500-428v-215q0-29-22-50t-50-21h-286q-29 0-50 21t-21 50v215q0 29 21 50t50 21h286q29 0 50-21t22-50z m0 428v-214q0-29-22-50t-50-22h-286q-29 0-50 22t-21 50v214q0 29 21 50t50 22h286q29 0 50-22t22-50z" horiz-adv-x="928.6" />

<glyph glyph-name="cancel" unicode="&#xe879;" d="M724 112q0-22-15-38l-76-76q-16-15-38-15t-38 15l-164 165-164-165q-16-15-38-15t-38 15l-76 76q-16 16-16 38t16 38l164 164-164 164q-16 16-16 38t16 38l76 76q16 16 38 16t38-16l164-164 164 164q16 16 38 16t38-16l76-76q15-15 15-38t-15-38l-164-164 164-164q15-15 15-38z" horiz-adv-x="785.7" />

<glyph glyph-name="cancel-circled" unicode="&#xe87a;" d="M641 224q0 14-10 25l-101 101 101 101q10 11 10 25 0 15-10 26l-51 50q-10 11-25 11-15 0-25-11l-101-101-101 101q-11 11-25 11-16 0-26-11l-50-50q-11-11-11-26 0-14 11-25l101-101-101-101q-11-11-11-25 0-15 11-26l50-50q10-11 26-11 14 0 25 11l101 101 101-101q10-11 25-11 15 0 25 11l51 50q10 11 10 26z m216 126q0-117-57-215t-156-156-215-58-216 58-155 156-58 215 58 215 155 156 216 58 215-58 156-156 57-215z" horiz-adv-x="857.1" />

<glyph glyph-name="cancel-circled2" unicode="&#xe87b;" d="M612 248l-81-82q-6-5-13-5t-13 5l-76 77-77-77q-5-5-13-5t-12 5l-82 82q-6 6-6 13t6 13l76 76-76 77q-6 5-6 12t6 13l82 82q5 5 12 5t13-5l77-77 76 77q6 5 13 5t13-5l81-82q6-5 6-13t-6-12l-76-77 76-76q6-6 6-13t-6-13z m120 102q0 83-41 152t-110 111-152 41-153-41-110-111-41-152 41-152 110-111 153-41 152 41 110 111 41 152z m125 0q0-117-57-215t-156-156-215-58-216 58-155 156-58 215 58 215 155 156 216 58 215-58 156-156 57-215z" horiz-adv-x="857.1" />

<glyph glyph-name="plus" unicode="&#xe87c;" d="M786 439v-107q0-22-16-38t-38-15h-232v-233q0-22-16-37t-38-16h-107q-22 0-38 16t-15 37v233h-232q-23 0-38 15t-16 38v107q0 23 16 38t38 16h232v232q0 22 15 38t38 16h107q23 0 38-16t16-38v-232h232q23 0 38-16t16-38z" horiz-adv-x="785.7" />

<glyph glyph-name="plus-circled" unicode="&#xe87d;" d="M679 314v72q0 14-11 25t-25 10h-143v143q0 15-11 25t-25 11h-71q-15 0-25-11t-11-25v-143h-143q-14 0-25-10t-10-25v-72q0-14 10-25t25-10h143v-143q0-15 11-25t25-11h71q15 0 25 11t11 25v143h143q14 0 25 10t11 25z m178 36q0-117-57-215t-156-156-215-58-216 58-155 156-58 215 58 215 155 156 216 58 215-58 156-156 57-215z" horiz-adv-x="857.1" />

<glyph glyph-name="flag" unicode="&#xe87e;" d="M179 707q0-40-36-61v-707q0-7-5-12t-13-6h-36q-7 0-12 6t-6 12v707q-35 21-35 61 0 30 21 51t50 21 51-21 21-51z m821-36v-425q0-14-7-22t-22-15q-120-65-206-65-34 0-69 12t-60 27-65 27-79 12q-107 0-259-81-10-5-19-5-14 0-25 10t-10 25v415q0 17 17 30 12 8 44 24 132 67 235 67 60 0 112-16t122-49q21-11 49-11 30 0 65 12t62 26 49 26 30 12q15 0 25-10t11-26z" horiz-adv-x="1000" />

<glyph glyph-name="tags" unicode="&#xe87f;" d="M250 600q0 30-21 51t-50 20-51-20-21-51 21-50 51-21 50 21 21 50z m595-321q0-30-20-51l-274-274q-22-21-51-21-30 0-50 21l-399 399q-21 21-36 57t-15 65v232q0 29 21 50t50 22h233q29 0 65-15t57-36l399-399q20-21 20-50z m215 0q0-30-21-51l-274-274q-22-21-51-21-20 0-33 8t-29 25l262 262q21 21 21 51 0 29-21 50l-399 399q-21 21-57 36t-65 15h125q29 0 65-15t57-36l399-399q21-21 21-50z" horiz-adv-x="1071.4" />

<glyph glyph-name="bookmark" unicode="&#xe880;" d="M650 779q12 0 24-5 19-8 29-23t11-35v-719q0-19-11-35t-29-23q-10-4-24-4-27 0-47 18l-246 236-246-236q-20-19-46-19-13 0-25 5-18 7-29 23t-11 35v719q0 19 11 35t29 23q12 5 25 5h585z" horiz-adv-x="714.3" />

<glyph glyph-name="thumbs-up" unicode="&#xe881;" d="M143 100q0 15-11 25t-25 11-25-11-11-25 11-25 25-11 25 11 11 25z m643 321q0 29-22 50t-50 22h-196q0 32 27 89t26 89q0 55-17 81t-72 27q-14-15-21-48t-17-70-33-61q-13-13-43-51-2-3-13-16t-18-23-19-24-22-25-22-19-22-15-20-6h-18v-357h18q7 0 18-1t18-4 21-6 20-7 20-6 16-6q118-41 191-41h67q107 0 107 93 0 15-2 31 16 9 26 30t10 41-10 38q29 28 29 67 0 14-5 31t-14 26q18 1 30 26t12 45z m71 1q0-50-27-91 5-18 5-38 0-43-21-81 1-12 1-24 0-56-33-99 0-78-48-123t-126-45h-72q-54 0-106 13t-121 36q-65 23-77 23h-161q-29 0-50 21t-21 50v357q0 30 21 51t50 21h153q20 13 77 86 32 42 60 72 13 14 19 48t17 70 35 60q22 21 50 21 47 0 84-18t57-57 20-104q0-51-27-107h98q58 0 101-42t42-100z" horiz-adv-x="857.1" />

<glyph glyph-name="download" unicode="&#xe882;" d="M714 100q0 15-10 25t-25 11-25-11-11-25 11-25 25-11 25 11 10 25z m143 0q0 15-10 25t-26 11-25-11-10-25 10-25 25-11 26 11 10 25z m72 125v-179q0-22-16-37t-38-16h-821q-23 0-38 16t-16 37v179q0 22 16 38t38 16h259l75-76q33-32 76-32t76 32l76 76h259q22 0 38-16t16-38z m-182 318q10-23-8-39l-250-250q-10-11-25-11t-25 11l-250 250q-17 16-8 39 10 21 33 21h143v250q0 15 11 25t25 11h143q14 0 25-11t10-25v-250h143q24 0 33-21z" horiz-adv-x="928.6" />

<glyph glyph-name="upload" unicode="&#xe883;" d="M714 29q0 14-10 25t-25 10-25-10-11-25 11-25 25-11 25 11 10 25z m143 0q0 14-10 25t-26 10-25-10-10-25 10-25 25-11 26 11 10 25z m72 125v-179q0-22-16-38t-38-16h-821q-23 0-38 16t-16 38v179q0 22 16 38t38 15h238q12-31 39-51t62-20h143q34 0 61 20t40 51h238q22 0 38-15t16-38z m-182 361q-9-22-33-22h-143v-250q0-15-10-25t-25-11h-143q-15 0-25 11t-11 25v250h-143q-23 0-33 22-9 22 8 39l250 250q10 10 25 10t25-10l250-250q18-17 8-39z" horiz-adv-x="928.6" />

<glyph glyph-name="basket" unicode="&#xe884;" d="M357-7q0-29-21-50t-50-22-50 22-22 50 22 50 50 21 50-21 21-50z m500 0q0-29-21-50t-50-22-50 22-22 50 22 50 50 21 50-21 21-50z m72 607v-286q0-13-10-23t-22-12l-583-68q7-34 7-40 0-8-13-35h513q15 0 26-11t10-25-10-25-26-11h-571q-14 0-25 11t-11 25q0 6 5 18t9 20 12 22 8 17l-98 459h-114q-15 0-25 10t-11 25 11 26 25 10h143q9 0 16-3t10-9 8-14 4-14 3-17 3-14h670q14 0 25-11t11-25z" horiz-adv-x="928.6" />

<glyph glyph-name="trash" unicode="&#xe885;" d="M275 825c-14 0-25-11-25-25l0-75-200 0c-28 0-50-22-50-50 0-28 22-50 50-50l650 0c28 0 50 22 50 50 0 28-22 50-50 50l-200 0 0 75c0 14-11 25-25 25l-200 0z m25-50l150 0 0-50-150 0 0 50z m-250-200c-28 0-54-23-49-50l99-600c5-27 22-50 50-50l450 0c28 0 45 23 50 50l99 600c5 27-21 50-49 50l-650 0z" horiz-adv-x="750" />

<glyph glyph-name="windows-1" unicode="&#xe886;" d="M0-43l105 371q35 20 86 31t83 13l34 1q50 0 104-10 101-20 144-61l-104-370q-36 28-79 45t-69 21l-26 4q-34 3-65 3-16 0-42-1t-84-14-87-33z m126 477l105 371q35 20 86 32t84 12l33 1q51 0 104-10 101-20 144-61l-104-371q-36 28-79 46t-69 20l-26 4q-35 3-64 3-16 0-42-1t-84-13-88-33z m431-513l104 371q37-28 81-45t68-21l25-4q34-3 65-3 16 0 43 2t84 13 86 32l-104-371q-35-20-86-31t-84-12l-33-2q-51 0-104 10-101 20-145 61z m120 475l104 370q37-28 81-45t68-21l25-4q34-3 65-3 16 0 43 2t83 13 87 32l-104-370q-35-20-86-31t-85-13l-33-2q-52 0-103 11-101 19-145 61z" horiz-adv-x="1233" />

<glyph glyph-name="laptop" unicode="&#xe887;" d="M0 47l0 88 1000 0 0-88-51-52-898 0z m100 135l0 524 800 0 0-524-800 0z m99 96l602 0 0 334-602 0 0-334z m209-252l184 0 0 80-184 0 0-80z" horiz-adv-x="1000" />

</font>
</defs>
</svg>
